<?xml version="1.0" encoding="UTF-8"?>
<svg version="1.1" xmlns="http://www.w3.org/2000/svg" width="1024" height="1024">
<path d="M0 0 C0.886875 0.41894531 1.77375 0.83789062 2.6875 1.26953125 C40.54165512 20.36167053 62.01816714 62.27337369 79 99 C82.66982963 99 85.26812838 97.98307062 88.73828125 96.76953125 C90.11924617 96.2929006 91.50044054 95.81693434 92.88183594 95.34155273 C93.60528198 95.09138397 94.32872803 94.84121521 95.07409668 94.58346558 C122.90158824 84.99893813 152.7800002 77.08430008 182.484375 80.47265625 C190.27352699 81.56176972 190.27352699 81.56176972 197.68359375 79.6484375 C199.13918124 78.42896135 200.55870716 77.16505004 201.9375 75.859375 C209.45608833 69.0812537 219.90373152 69.26635095 229.4609375 69.6171875 C240.55259461 70.343835 250.20990237 75.68989564 257.75 83.75 C266.06416884 93.87746785 268.88001844 105.09930415 268 118 C267.0919464 125.68648185 264.22326791 133.6628357 258.7890625 139.2890625 C256.31384066 143.03972616 257.02321954 145.91924225 257.75 150.125 C262.80372865 186.54299181 253.89014956 225.71613628 239 259 C239.91136719 259.44988281 240.82273437 259.89976562 241.76171875 260.36328125 C246.18493432 262.55484952 250.593807 264.77444056 255 267 C255.83982422 267.4228125 256.67964844 267.845625 257.54492188 268.28125 C293.2048955 286.3124782 330.69504628 311.22990301 343.99609375 350.9765625 C345.51794493 356.26299292 346.65664108 361.5062572 347 367 C347.07927734 368.175625 347.07927734 368.175625 347.16015625 369.375 C347.9570982 392.65956473 337.86789548 413.60090153 322.375 430.4375 C320.6013745 432.31039215 318.80351985 434.15549106 317 436 C316.33484375 436.71542969 315.6696875 437.43085937 314.984375 438.16796875 C294.69813497 459.51966256 266.23959792 472.76795422 240 485 C240 488.76407333 241.20822801 491.82333428 242.44921875 495.32421875 C242.97178283 496.83122532 243.49339173 498.33856338 244.01416016 499.84619141 C244.42495819 501.03163544 244.42495819 501.03163544 244.84405518 502.24102783 C250.03977968 517.31159916 254.56574257 532.20309407 257 548 C257.12552246 548.8048584 257.25104492 549.6097168 257.38037109 550.43896484 C259.64492075 565.66545562 260.25831579 581.3197925 257.27246094 596.48266602 C256.84929885 598.70907157 256.84929885 598.70907157 257 602 C259.18233854 604.82817497 259.18233854 604.82817497 262 607 C270.70572074 616.70943913 272.87572454 626.96030174 272.3828125 639.68359375 C271.59955112 651.0113267 265.90733226 660.51654418 257.8125 668.25 C246.93082258 677.49020405 234.75362353 679.10345163 221 678 C211.9988567 676.37565575 204.84281305 671.97213254 198 666 C197.34 665.01 196.68 664.02 196 663 C194.98164062 663.144375 193.96328125 663.28875 192.9140625 663.4375 C153.67306771 668.70965852 116.49053927 658.95226501 80 645 C79.56171875 645.88816406 79.1234375 646.77632812 78.671875 647.69140625 C76.46894652 652.13823411 74.23665341 656.57005858 72 661 C71.53948242 661.91523437 71.07896484 662.83046875 70.60449219 663.7734375 C64.41873378 676.02049237 58.10289773 687.90586075 50 699 C49.37762451 699.85343994 49.37762451 699.85343994 48.74267578 700.72412109 C43.24538131 708.19122658 37.36399862 715.25099079 31 722 C30.31679688 722.74765625 29.63359375 723.4953125 28.9296875 724.265625 C14.23455391 739.77414237 -6.43312483 751.58577868 -28 753 C-28.77988281 753.0515625 -29.55976562 753.103125 -30.36328125 753.15625 C-43.20058553 753.61268749 -55.52125596 750.61862787 -67 745 C-67.88816406 744.58105469 -68.77632813 744.16210938 -69.69140625 743.73046875 C-108.30255622 724.22818485 -128.67953678 681.77806325 -147 645 C-147.7892688 645.31638428 -147.7892688 645.31638428 -148.59448242 645.63916016 C-182.24732913 659.03343647 -221.09529639 670.36962729 -257.57055664 663.27246094 C-259.78913439 662.85220618 -259.78913439 662.85220618 -263 663 C-265.24676389 665.20127958 -265.24676389 665.20127958 -267 668 C-278.93022017 677.20599667 -290.23643412 679.48424055 -305 678 C-316.54427533 675.57611301 -326.19615066 668.51649515 -333 659 C-339.16889347 647.70311817 -340.7859918 636.15448369 -338.31640625 623.49609375 C-335.99790905 615.96338292 -332.48477568 609.76292929 -326.265625 604.83203125 C-323.84203165 601.80253956 -323.68085015 601.48460167 -323.94921875 597.8828125 C-324.17121085 596.29332221 -324.41873205 594.70725272 -324.6875 593.125 C-324.92105863 591.40961982 -325.14887047 589.69344794 -325.37109375 587.9765625 C-325.48437012 587.1299707 -325.59764648 586.28337891 -325.71435547 585.41113281 C-329.59475137 552.65661154 -318.55003294 515.80632824 -306 486 C-306.91136719 485.55011719 -307.82273437 485.10023438 -308.76171875 484.63671875 C-313.18493432 482.44515048 -317.593807 480.22555944 -322 478 C-322.83982422 477.5771875 -323.67964844 477.154375 -324.54492188 476.71875 C-359.52975195 459.02890364 -395.38391364 435.1146175 -410 397 C-416.08476422 377.45716902 -415.15466353 357.41335732 -406 339 C-405.319375 337.60007812 -405.319375 337.60007812 -404.625 336.171875 C-401.16421976 329.4384004 -396.93262039 323.72292973 -392 318 C-391.31035156 317.18789063 -390.62070312 316.37578125 -389.91015625 315.5390625 C-367.15083763 289.44610046 -336.52558898 274.16933609 -306 259 C-306.43570313 257.86046875 -306.87140625 256.7209375 -307.3203125 255.546875 C-317.57749457 228.42245572 -326.53574326 199.66267501 -325.90234375 170.37109375 C-325.88067139 169.24106934 -325.85899902 168.11104492 -325.83666992 166.94677734 C-325.77999843 164.73387551 -325.69411099 162.52147929 -325.57543945 160.31103516 C-325.22620256 155.02920762 -325.22620256 155.02920762 -327.22387695 150.3581543 C-328.74370419 149.14253017 -330.3728152 148.06765467 -332 147 C-340.51604845 135.93740503 -343.7508261 125.29503604 -342.8203125 111.296875 C-341.20398817 101.07114965 -335.77332075 90.85340114 -328 84 C-324.79902089 81.70011485 -321.51209838 79.78392299 -318 78 C-317.02933594 77.505 -317.02933594 77.505 -316.0390625 77 C-305.56572908 72.40410685 -293.60291494 73.48238595 -283 77 C-280.21475524 78.41280531 -277.65953619 79.92980623 -275.0859375 81.6953125 C-271.71117899 83.80611651 -269.90091541 84.15378684 -265.93359375 83.4765625 C-264.77988281 83.19554687 -263.62617188 82.91453125 -262.4375 82.625 C-224.53895229 74.06852376 -181.99058269 85.26712308 -147 100 C-146.55011719 99.08863281 -146.10023438 98.17726563 -145.63671875 97.23828125 C-143.85520586 93.64170443 -142.05295899 90.05581533 -140.24462891 86.47265625 C-139.41461746 84.82370453 -138.58876848 83.17265103 -137.76708984 81.51953125 C-129.03152019 63.98723276 -118.99458397 46.76307764 -106 32 C-104.72576172 30.5459375 -104.72576172 30.5459375 -103.42578125 29.0625 C-76.98132014 -0.66768307 -38.50310404 -19.08747629 0 0 Z M-86 35 C-104.51306865 53.77309954 -116.73698257 77.75879991 -127.91015625 101.3359375 C-128.31371338 102.18720215 -128.71727051 103.0384668 -129.13305664 103.91552734 C-130.12800545 105.93151396 -130.12800545 105.93151396 -130 108 C-129.47905762 108.24008789 -128.95811523 108.48017578 -128.42138672 108.72753906 C-99.44882266 122.14415226 -71.90685858 138.0401126 -45.49609375 155.9765625 C-41.3953333 158.75862283 -37.22416182 161.40980128 -33 164 C-31.98164062 163.26136719 -30.96328125 162.52273438 -29.9140625 161.76171875 C-20.2376162 154.80323246 -10.3624314 148.36639678 -0.12402344 142.26855469 C1.86949573 141.07794255 3.85419726 139.87415168 5.8359375 138.6640625 C24.35756265 127.37955903 43.56014346 117.58490041 63 108 C60.79336292 100.76671844 57.84422141 94.18185849 54.4375 87.4375 C53.90447266 86.38046875 53.37144531 85.3234375 52.82226562 84.234375 C37.2870708 53.83057297 15.64639413 22.52493345 -18.0625 11.125 C-44.53922362 4.14831833 -67.41411196 17.10306703 -86 35 Z M-259 99 C-260.31912186 101.94082242 -260.31912186 101.94082242 -259.08984375 104.62109375 C-255.81383042 114.77790926 -256.98756786 127.53110095 -261.32421875 137.1328125 C-267.06671463 146.95796862 -276.09908751 155.11979369 -287.1171875 158.4765625 C-293.98476773 159.72352151 -301.03719115 159.7821775 -308 160 C-316.85579042 177.71158084 -303.62609091 214.19468492 -297.90234375 231.44921875 C-295.43036607 238.69603703 -292.86747011 245.89963521 -290 253 C-285.58611176 252.37628934 -281.59476197 251.29784268 -277.3828125 249.84765625 C-276.06088451 249.4002057 -274.7386009 248.95380476 -273.41601562 248.50830078 C-272.71903564 248.27274475 -272.02205566 248.03718872 -271.30395508 247.79449463 C-243.51583654 238.45939923 -214.98430963 231.37359767 -186.0925293 226.41381836 C-183.82023271 226.01017351 -183.82023271 226.01017351 -181 225 C-180.24173073 223.15811682 -180.24173073 223.15811682 -179.89453125 220.84765625 C-179.72018555 219.9438623 -179.54583984 219.04006836 -179.36621094 218.10888672 C-179.18348633 217.1035791 -179.00076172 216.09827148 -178.8125 215.0625 C-178.38013763 212.85731743 -177.94370219 210.65293083 -177.50390625 208.44921875 C-177.26559082 207.25087402 -177.02727539 206.0525293 -176.78173828 204.81787109 C-171.24302988 177.76780177 -164.48511489 150.71120514 -154.67529297 124.86694336 C-153.45961268 121.62323567 -153 119.54600317 -153 116 C-173.94953882 108.13012306 -194.79976935 101.22300207 -217 98 C-217.87011719 97.86851562 -218.74023438 97.73703125 -219.63671875 97.6015625 C-232.73360765 95.95611296 -246.05075892 96.66830386 -259 99 Z M86 116 C87.27083051 122.45775288 89.11613419 128.54790655 91.22363281 134.77978516 C101.15491618 164.21270492 108.10600507 194.52444962 114 225 C114.54897949 225.10957031 115.09795898 225.21914063 115.66357422 225.33203125 C149.29209864 232.08932511 182.45318514 239.9804898 214.86523438 251.32470703 C217.72490883 252.31618439 219.94623358 253 223 253 C230.87028533 232.04937404 237.7734721 211.20043825 241 189 C241.13148438 188.14148438 241.26296875 187.28296875 241.3984375 186.3984375 C242.11979659 180.72504574 242.09730918 175.02332492 242.125 169.3125 C242.12975342 168.50377441 242.13450684 167.69504883 242.1394043 166.86181641 C242.12628396 162.13752298 241.78592066 157.65938674 241 153 C239.25976562 153.25136719 239.25976562 153.25136719 237.484375 153.5078125 C222.10955898 155.58022814 209.71231522 154.87400948 196.71484375 145.3203125 C189.99620131 139.2877742 184.83030457 129.82803204 183 121 C182.90453001 118.19767503 182.86056005 115.42634991 182.875 112.625 C182.87113281 111.8825 182.86726562 111.14 182.86328125 110.375 C182.87076332 106.1401478 183.16581979 102.17090103 184 98 C151.20063673 91.73324955 116.25073514 104.63236202 86 116 Z M-137 124 C-146.60058097 148.35007687 -153.28258139 173.68831625 -159.0625 199.1875 C-159.34939697 200.45070068 -159.63629395 201.71390137 -159.93188477 203.01538086 C-161.32599485 209.3446148 -162.35751783 215.5548205 -163 222 C-161.90107422 221.87882812 -160.80214844 221.75765625 -159.66992188 221.6328125 C-151.58579845 220.75557556 -143.50515732 219.93884719 -135.3984375 219.29833984 C-131.43570285 218.9793397 -127.47673319 218.62265779 -123.51757812 218.26220703 C-121.49282008 218.08626932 -119.46664619 217.92597705 -117.43945312 217.78076172 C-101.51228833 216.70609774 -101.51228833 216.70609774 -89.078125 207.45605469 C-88.39234375 206.64555664 -87.7065625 205.83505859 -87 205 C-85.82796976 203.97628971 -84.62842883 202.98218462 -83.390625 202.0390625 C-81.15301663 200.3191098 -78.91807445 198.59621266 -76.6875 196.8671875 C-76.08550781 196.40151367 -75.48351562 195.93583984 -74.86328125 195.45605469 C-72.278265 193.43600268 -69.72984697 191.37194103 -67.17895508 189.30908203 C-60.95365514 184.27747016 -54.66113201 179.4512035 -48 175 C-66.57455226 159.46422929 -111.882788 124 -137 124 Z M-18 174 C-14.4613902 177.67647772 -10.73819464 180.89325206 -6.6875 184 C23.27618193 207.27618193 23.27618193 207.27618193 31 215 C32.62485409 215.26455239 34.25956325 215.4689206 35.89599609 215.6484375 C36.94153656 215.76525879 37.98707703 215.88208008 39.06430054 216.00244141 C40.20581573 216.12538574 41.34733093 216.24833008 42.5234375 216.375 C43.69452057 216.50438965 44.86560364 216.6337793 46.07217407 216.76708984 C49.83934619 217.18214937 53.60716508 217.59100582 57.375 218 C59.87894786 218.27566398 62.38285468 218.55170103 64.88671875 218.828125 C67.30725479 219.0940858 69.72782666 219.35972079 72.1484375 219.625 C73.26971039 219.74794434 74.39098328 219.87088867 75.54623413 219.99755859 C82.35847452 220.73643402 89.17369277 221.40480459 96 222 C95.32430953 214.02165487 93.66670194 206.35596917 91.875 198.5625 C91.71971832 197.88293243 91.56443665 197.20336487 91.40444946 196.50320435 C83.47468021 159.35805162 83.47468021 159.35805162 70 124 C44.10394134 124 2.21210935 158.87650268 -18 174 Z M-39.25 188.875 C-39.78286621 189.27775146 -40.31573242 189.68050293 -40.86474609 190.09545898 C-42.57909396 191.39359379 -44.29003828 192.69609398 -46 194 C-46.83096191 194.63301025 -46.83096191 194.63301025 -47.67871094 195.27880859 C-58.51348904 203.4252537 -58.51348904 203.4252537 -69 212 C-69 212.33 -69 212.66 -69 213 C-45.57 213 -22.14 213 2 213 C-2.03511236 208.96488764 -6.02475053 205.38060704 -10.4375 201.8125 C-11.13109619 201.25022705 -11.82469238 200.6879541 -12.53930664 200.10864258 C-25.28928899 187.76125675 -25.28928899 187.76125675 -39.25 188.875 Z M-81.96875 230.3203125 C-82.74093872 230.34229706 -83.51312744 230.36428162 -84.30871582 230.38693237 C-90.7106647 230.70758506 -94.27831277 233.08463559 -98.78515625 237.40625 C-99.48189453 238.06882812 -100.17863281 238.73140625 -100.89648438 239.4140625 C-101.61126953 240.10242188 -102.32605469 240.79078125 -103.0625 241.5 C-104.46915271 242.84469144 -105.8767273 244.18841911 -107.28515625 245.53125 C-108.034021 246.24627686 -108.78288574 246.96130371 -109.55444336 247.69799805 C-112.21701623 250.20427733 -114.92301316 252.65816997 -117.6328125 255.11328125 C-124.25278746 261.14072759 -130.59184689 267.4402463 -136.91088867 273.78051758 C-138.82422194 275.69925505 -140.74290504 277.61252754 -142.66210938 279.52539062 C-148.09804293 284.95837771 -153.49679955 290.37040711 -158.47631836 296.23120117 C-160.1676798 298.19465473 -161.92748434 300.07693891 -163.7109375 301.95703125 C-164.31550781 302.59447266 -164.92007813 303.23191406 -165.54296875 303.88867188 C-166.78522549 305.19317389 -168.03010554 306.49518185 -169.27734375 307.79492188 C-170.17259766 308.74141602 -170.17259766 308.74141602 -171.0859375 309.70703125 C-171.6226709 310.2688208 -172.1594043 310.83061035 -172.71240234 311.40942383 C-181.56282047 322.34239199 -176.15006439 353.61508571 -176.13037109 367.59912109 C-176.12581003 370.8663922 -176.12581003 374.1336078 -176.13037109 377.40087891 C-176.1972989 399.18918364 -176.1972989 399.18918364 -175.6796875 420.96875 C-175.65770294 421.74093872 -175.63571838 422.51312744 -175.61306763 423.30871582 C-175.29955716 429.56806766 -173.03754424 433.14629242 -168.8125 437.56640625 C-168.19503906 438.21802734 -167.57757813 438.86964844 -166.94140625 439.54101562 C-165.98041016 440.54165039 -165.98041016 440.54165039 -165 441.5625 C-163.74915149 442.87549426 -162.49917649 444.18932114 -161.25 445.50390625 C-160.57428955 446.21345459 -159.8985791 446.92300293 -159.20239258 447.65405273 C-156.77213045 450.24272237 -154.39378506 452.8747438 -152.01171875 455.5078125 C-145.53909454 462.61796753 -138.74558603 469.40525504 -131.93774414 476.19262695 C-129.80172643 478.32324634 -127.67115882 480.45921223 -125.54101562 482.59570312 C-124.15917493 483.9768835 -122.77702433 485.35775389 -121.39453125 486.73828125 C-120.77036819 487.36446854 -120.14620514 487.99065582 -119.50312805 488.63581848 C-115.739057 492.38026361 -111.86127755 495.94057484 -107.83717346 499.40437317 C-104.27158389 502.5011686 -100.8492316 505.75657352 -97.40625 508.98828125 C-92.31756265 513.72727208 -89.30487853 514.23289292 -82.50195312 514.55419922 C-81.65018745 514.59630964 -80.79842178 514.63842007 -79.92084503 514.68180656 C-71.2688355 515.0806288 -62.62836318 515.14568465 -53.96875 515.1328125 C-52.31506333 515.13348979 -50.66137676 515.1344633 -49.00769043 515.13571167 C-45.5759179 515.13716872 -42.14417176 515.13509939 -38.71240234 515.13037109 C-34.37315518 515.12467508 -30.03396994 515.12796494 -25.69472504 515.13394356 C-22.29009558 515.13760372 -18.88548016 515.13638593 -15.48085022 515.13381577 C-13.88330579 515.13316147 -12.28575996 515.13392064 -10.68821716 515.13629532 C-5.45746735 515.14236954 -0.22984917 515.09711039 5 515 C5.83493988 514.98679466 6.66987976 514.97358932 7.53012085 514.95998383 C10.10263811 514.90970364 12.6726692 514.82989469 15.24414062 514.74169922 C16.02941887 514.72811434 16.81469711 514.71452946 17.62377167 514.70053291 C25.44761786 514.36816532 29.77827318 510.64745829 35 505 C36.56106399 503.45687927 38.12351891 501.91516412 39.6875 500.375 C40.33074219 499.70210937 40.97398437 499.02921875 41.63671875 498.3359375 C43.57567406 496.41941638 45.54082543 494.65635394 47.60839844 492.88500977 C52.13464829 488.93741953 56.38918661 484.75512891 60.62890625 480.50390625 C61.42223862 479.71153061 62.21557098 478.91915497 63.03294373 478.10276794 C64.69889081 476.43749717 66.36359256 474.77097971 68.02709961 473.10327148 C70.55536134 470.56965378 73.08891661 468.04141833 75.62304688 465.51367188 C77.2503207 463.88573717 78.87728425 462.25749225 80.50390625 460.62890625 C81.25201065 459.88282608 82.00011505 459.13674591 82.77088928 458.36805725 C86.8273402 454.29370842 90.72286496 450.13437459 94.46913147 445.77241516 C97.33780019 442.45111629 100.35020684 439.25928628 103.34375 436.05078125 C107.86636939 431.16180442 108.24645125 428.01781185 108.55419922 421.50195312 C108.59630964 420.65018745 108.63842007 419.79842178 108.68180656 418.92084503 C109.0806288 410.2688355 109.14568465 401.62836318 109.1328125 392.96875 C109.13348979 391.31506333 109.1344633 389.66137676 109.13571167 388.00769043 C109.13716872 384.5759179 109.13509939 381.14417176 109.13037109 377.71240234 C109.12467508 373.37315518 109.12796494 369.03396994 109.13394356 364.69472504 C109.13760372 361.29009558 109.13638593 357.88548016 109.13381577 354.48085022 C109.13316147 352.88330579 109.13392064 351.28575996 109.13629532 349.68821716 C109.14637631 341.00707297 109.02081368 332.3330933 108.67919922 323.65820312 C108.64625354 322.4606477 108.64625354 322.4606477 108.61264229 321.23889923 C108.40647053 316.80472244 107.99217225 313.94002844 105 310.4375 C103.68572888 309.26985142 102.35119082 308.12472004 101 307 C99.58350316 305.45620803 98.18898426 303.8920721 96.8125 302.3125 C95.21094748 300.53930206 93.60639408 298.76881301 92 297 C90.75947876 295.62920288 90.75947876 295.62920288 89.49389648 294.23071289 C81.70963061 285.68515617 73.61992664 277.4656178 65.43505859 269.3046875 C63.23547928 267.11051498 61.04135993 264.91098277 58.84765625 262.7109375 C57.4248 261.28874144 56.00163391 259.86685529 54.578125 258.4453125 C53.93522522 257.80038849 53.29232544 257.15546448 52.62994385 256.49099731 C48.82063392 252.70101239 44.90193827 249.09273786 40.82728577 245.58917236 C39.00682671 244.00593712 37.2381576 242.37897933 35.48046875 240.7265625 C34.6596582 239.95505859 34.6596582 239.95505859 33.82226562 239.16796875 C32.71039015 238.11852834 31.60110641 237.06633668 30.49414062 236.01171875 C18.132736 224.43118951 -12.15752053 229.84647469 -28.59912109 229.86962891 C-31.8663922 229.87418997 -35.1336078 229.87418997 -38.40087891 229.86962891 C-60.18918364 229.8027011 -60.18918364 229.8027011 -81.96875 230.3203125 Z M54 234 C58.33114375 239.24331911 62.93743438 243.89833227 67.9375 248.5 C78.20297816 258.05929218 88.51958338 267.67511447 97.5703125 278.4140625 C99.82309278 280.91304828 102.35124135 282.93267618 105 285 C104.4081462 275.20793958 103.43610544 265.53569801 102.125 255.8125 C101.96386719 254.51763672 101.80273438 253.22277344 101.63671875 251.88867188 C101.38728516 250.03532227 101.38728516 250.03532227 101.1328125 248.14453125 C100.98730957 247.03440674 100.84180664 245.92428223 100.69189453 244.78051758 C99.9357932 241.74197206 99.37772795 240.92728688 97 239 C94.06915017 238.39245945 91.27923441 237.95043272 88.31640625 237.61328125 C87.46449203 237.50654587 86.61257782 237.39981049 85.73484802 237.2898407 C83.01205671 236.95199837 80.28745572 236.63236207 77.5625 236.3125 C75.73098045 236.08641245 73.89959793 235.85921173 72.06835938 235.63085938 C68.70851803 235.21793505 65.34864447 234.80576117 61.98657227 234.41137695 C61.31167252 234.3316011 60.63677277 234.25182526 59.94142151 234.16963196 C57.96766058 233.99717434 55.98128086 234 54 234 Z M-133.81640625 234.890625 C-135.09571266 235.04854523 -135.09571266 235.04854523 -136.40086365 235.20965576 C-138.20091546 235.43457858 -140.00047747 235.6634517 -141.79956055 235.89599609 C-144.55419822 236.24893633 -147.31089379 236.58013584 -150.06835938 236.91015625 C-151.81787614 237.13149013 -153.56723163 237.35410327 -155.31640625 237.578125 C-156.14145157 237.67514709 -156.96649689 237.77216919 -157.81654358 237.87213135 C-163.16419639 238.55968819 -163.16419639 238.55968819 -167 242 C-167.61950103 244.93038823 -168.07337757 247.72008141 -168.421875 250.68359375 C-168.53098206 251.53550797 -168.64008911 252.38742218 -168.75250244 253.26515198 C-168.98029645 255.06573231 -169.20180397 256.86711751 -169.41748047 258.66918945 C-169.74855943 261.42550686 -170.10115857 264.17842644 -170.45703125 266.93164062 C-170.67576131 268.68213194 -170.89325078 270.4327788 -171.109375 272.18359375 C-171.21449402 273.00661484 -171.31961304 273.82963593 -171.42791748 274.67759705 C-171.86520511 278.40230367 -172.06488519 281.40496288 -171 285 C-161.94695061 276.22533623 -161.94695061 276.22533623 -153.4375 266.9375 C-146.61153534 258.89880051 -138.89008575 251.45110156 -130.85546875 244.6328125 C-127.40357604 241.59514691 -124.21132043 238.28818715 -121 235 C-125.37847139 233.70305391 -129.35524698 234.32083075 -133.81640625 234.890625 Z M117 243 C117.06993164 243.58338135 117.13986328 244.1667627 117.21191406 244.76782227 C117.43026721 246.60012814 117.646576 248.43267807 117.86157227 250.26538086 C118.12542422 252.50505447 118.39432032 254.74413842 118.66772461 256.98266602 C119.43801855 263.46078217 120.09445118 269.92347194 120.55331421 276.43171692 C120.80128522 279.90623626 121.08309867 283.37773828 121.36584473 286.84957886 C121.49576581 288.55929924 121.60976115 290.27031295 121.70690918 291.98220825 C122.42574271 304.48255239 124.4344375 310.43795695 134 319 C135.00821623 320.16365019 135.99036419 321.35128104 136.92578125 322.57421875 C138.63232146 324.8002622 140.34272792 327.022507 142.0625 329.23828125 C142.77019531 330.1502124 142.77019531 330.1502124 143.4921875 331.08056641 C146.73588072 335.20976267 150.07660685 339.26172724 153.40942383 343.3190918 C157.06589844 347.78888541 160.56829732 352.35553283 164 357 C168.67236369 352.76026258 171.87558753 347.92993688 175.25 342.625 C175.82137695 341.73522461 176.39275391 340.84544922 176.98144531 339.92871094 C181.80943975 332.3759799 186.50422301 324.75495331 191 317 C191.34949707 316.39865234 191.69899414 315.79730469 192.05908203 315.17773438 C198.65611104 303.77219084 204.74930955 292.09851352 210.77246094 280.38183594 C211.78521593 278.41675286 212.81599561 276.46097031 213.8515625 274.5078125 C215.20818105 272.00511159 215.20818105 272.00511159 215 269 C192.91393597 260.24997973 170.02384552 254.03666112 146.9375 248.5625 C146.23728729 248.39501251 145.53707458 248.22752502 144.81564331 248.05496216 C135.58994483 245.86099712 126.41133312 244.17446532 117 243 Z M-282 269 C-279.64588404 276.98352368 -276.1004014 284.14223647 -272.25 291.5 C-271.92086609 292.13249664 -271.59173218 292.76499329 -271.25262451 293.41665649 C-259.57160938 315.81631248 -245.96940327 336.98013549 -232 358 C-229.60847788 355.67098681 -227.40761882 353.36971079 -225.44140625 350.671875 C-224.97984131 350.04514893 -224.51827637 349.41842285 -224.04272461 348.77270508 C-223.55425049 348.1052124 -223.06577637 347.43771973 -222.5625 346.75 C-201.97895408 318.97895408 -201.97895408 318.97895408 -191 308 C-190.73544761 306.37514591 -190.5310794 304.74043675 -190.3515625 303.10400391 C-190.23474121 302.05846344 -190.11791992 301.01292297 -189.99755859 299.93569946 C-189.87461426 298.79418427 -189.75166992 297.65266907 -189.625 296.4765625 C-189.49561035 295.30547943 -189.3662207 294.13439636 -189.23291016 292.92782593 C-188.81785063 289.16065381 -188.40899418 285.39283492 -188 281.625 C-187.72433602 279.12105214 -187.44829897 276.61714532 -187.171875 274.11328125 C-186.9059142 271.69274521 -186.64027921 269.27217334 -186.375 266.8515625 C-186.25205566 265.73028961 -186.12911133 264.60901672 -186.00244141 263.45376587 C-185.26356598 256.64152548 -184.59519541 249.82630723 -184 243 C-213.88992514 243 -255.42748808 255.71374404 -282 269 Z M-305.1015625 278.30859375 C-306.66100586 279.05109375 -306.66100586 279.05109375 -308.25195312 279.80859375 C-341.57812547 295.90241409 -378.68426793 316.13646358 -393.34375 352.31640625 C-398.93908534 368.92256222 -397.32303213 384.24083486 -390 400 C-374.28927457 429.49350284 -344.23556669 447.40795561 -315.375 462 C-314.45050049 462.46929932 -313.52600098 462.93859863 -312.57348633 463.42211914 C-307.77023983 465.80642668 -303.21703201 467.74219502 -298 469 C-297.23429687 467.32550781 -297.23429687 467.32550781 -296.453125 465.6171875 C-283.36557095 437.31247506 -267.5424259 410.1840615 -249.98828125 384.42578125 C-247.21206686 380.35192058 -244.57575863 376.20300911 -242 372 C-242.58265625 371.20980469 -243.1653125 370.41960937 -243.765625 369.60546875 C-259.25369636 348.38594501 -272.51208128 325.5557556 -284.9375 302.4375 C-285.55214111 301.29676025 -286.16678223 300.15602051 -286.80004883 298.98071289 C-290.8194493 291.43590728 -294.50019254 283.79849274 -298 276 C-300.78771076 276 -302.58392482 277.10921251 -305.1015625 278.30859375 Z M231 276 C230.51140503 277.04619507 230.51140503 277.04619507 230.01293945 278.11352539 C222.33355577 294.48629824 214.19756399 310.41267482 205 326 C204.5551123 326.75974121 204.11022461 327.51948242 203.65185547 328.30224609 C199.10734124 336.03121215 194.31443333 343.57192757 189.3125 351.01171875 C188.90174728 351.62340912 188.49099457 352.23509949 188.0677948 352.86532593 C186.00372245 355.9354834 183.93008605 358.99852025 181.84106445 362.05175781 C181.07750351 363.17894623 180.31406989 364.30622092 179.55078125 365.43359375 C178.86669189 366.43447021 178.18260254 367.43534668 177.4777832 368.46655273 C175.74807225 370.94306891 175.74807225 370.94306891 176 374 C177.28245116 376.3160279 177.28245116 376.3160279 179.04296875 378.8046875 C179.69813477 379.76971191 180.35330078 380.73473633 181.02832031 381.72900391 C182.09711426 383.28627197 182.09711426 383.28627197 183.1875 384.875 C184.66787203 387.06601625 186.14569726 389.25875521 187.62109375 391.453125 C187.99364288 392.00686798 188.36619202 392.56061096 188.75003052 393.13113403 C198.5637877 407.75320579 207.35607577 422.88334189 215.62744141 438.42236328 C216.93520762 440.87832126 218.2532965 443.32844296 219.57421875 445.77734375 C223.66868995 453.39956301 227.58055385 461.04420318 231 469 C239.89362945 466.45896301 247.82557377 462.24050756 256 458 C256.6590332 457.66274902 257.31806641 457.32549805 257.99707031 456.97802734 C286.23645897 442.51861104 317.38200315 420.73445884 327.62939453 389.05419922 C329.43597636 382.58075283 330.82659049 375.71899985 330 369 C329.86851562 367.92621094 329.73703125 366.85242188 329.6015625 365.74609375 C327.26426971 351.19113409 320.82118222 338.96231006 311 328 C310.31292969 327.18273437 309.62585938 326.36546875 308.91796875 325.5234375 C289.8665888 303.34831777 260.20064094 286.31828525 233 276 C232.34 276 231.68 276 231 276 Z M-194 337 C-195.97874939 339.30700705 -197.9058765 341.63420821 -199.8125 344 C-200.38911377 344.71317383 -200.96572754 345.42634766 -201.55981445 346.16113281 C-205.68558853 351.29487977 -209.72294611 356.49086042 -213.6875 361.75 C-214.19192627 362.41644531 -214.69635254 363.08289063 -215.21606445 363.76953125 C-215.91928833 364.71119141 -215.91928833 364.71119141 -216.63671875 365.671875 C-217.04623779 366.2194043 -217.45575684 366.76693359 -217.87768555 367.33105469 C-219.10133957 369.1506977 -220.05900525 371.02151204 -221 373 C-215.08671958 380.94629305 -209.15492704 388.87723956 -203.0625 396.6875 C-202.62703857 397.25033691 -202.19157715 397.81317383 -201.74291992 398.39306641 C-198.9989249 401.8896428 -196.17931969 404.82068031 -193 408 C-193 384.57 -193 361.14 -193 337 C-193.33 337 -193.66 337 -194 337 Z M126 337 C126 360.43 126 383.86 126 408 C130.03516824 403.96483176 133.61910786 399.97506811 137.1875 395.5625 C137.74977295 394.86962891 138.3120459 394.17675781 138.89135742 393.46289062 C144.21508015 386.84156226 149.16590076 379.98380026 154 373 C151.2291144 367.87091389 148.1386206 363.43072903 144.4375 358.9375 C143.37689138 357.63339187 142.31701411 356.32868867 141.2578125 355.0234375 C140.7205957 354.36311523 140.18337891 353.70279297 139.62988281 353.02246094 C136.49415337 349.13145095 133.44011585 345.17518729 130.39038086 341.21655273 C129.28281496 339.79318898 128.14462472 338.39373629 127 337 C126.67 337 126.34 337 126 337 Z M-232 388 C-248.78389513 408.46255707 -261.54573908 433.19980676 -273.75 456.5625 C-274.64501221 458.26599609 -274.64501221 458.26599609 -275.55810547 460.00390625 C-278.27347124 465.26853619 -280.70314429 470.20571519 -282 476 C-253.59238856 487.25448046 -214.93372628 502 -184 502 C-184.12117188 500.90107422 -184.24234375 499.80214844 -184.3671875 498.66992188 C-185.24442444 490.58579845 -186.06115281 482.50515732 -186.70166016 474.3984375 C-187.0206603 470.43570285 -187.37734221 466.47673319 -187.73779297 462.51757812 C-187.91373068 460.49282008 -188.07402295 458.46664619 -188.21923828 456.43945312 C-189.29485322 440.50955094 -189.29485322 440.50955094 -198.54833984 428.07373047 C-199.76191162 427.04723389 -199.76191162 427.04723389 -201 426 C-202.01214513 424.83976555 -202.99472482 423.6520421 -203.92578125 422.42578125 C-205.63232146 420.1997378 -207.34272792 417.977493 -209.0625 415.76171875 C-209.53429687 415.15376465 -210.00609375 414.54581055 -210.4921875 413.91943359 C-213.73588072 409.79023733 -217.07660685 405.73827276 -220.40942383 401.6809082 C-223.66678352 397.69900565 -226.78331462 393.64443179 -229.80737305 389.48193359 C-230.20093994 388.99289551 -230.59450684 388.50385742 -231 388 C-231.33 388 -231.66 388 -232 388 Z M164 388 C162.88277296 389.42192532 161.76556506 390.84386567 160.6484375 392.26586914 C159.66047134 393.52311551 158.67218123 394.78010736 157.68359375 396.03686523 C155.18395585 399.21546097 152.68853469 402.39706445 150.20703125 405.58984375 C144.85974417 412.45695699 139.38338704 419.17450308 133.703125 425.76953125 C133.2777243 426.28247742 132.85232361 426.79542358 132.41403198 427.32391357 C131.39906443 428.52697924 130.34744101 429.69947605 129.27371216 430.85040283 C123.85574244 437.04280947 122.71161742 442.27179896 122.0390625 450.33984375 C121.91816254 451.50197891 121.79726257 452.66411407 121.67269897 453.86146545 C121.2953341 457.55130871 120.95951895 461.24355161 120.625 464.9375 C120.37905023 467.41368596 120.13037716 469.88960302 119.87890625 472.36523438 C119.31899898 477.93191945 118.78868586 483.50069884 118.27423096 489.07174683 C117.87045542 493.38328407 117.43802277 497.6918239 117 502 C125.70220033 501.29282345 134.1222381 499.39789818 142.625 497.5 C143.41156982 497.32526154 144.19813965 497.15052307 145.00854492 496.9704895 C180.94023673 489.21620267 180.94023673 489.21620267 215 476 C213.06866235 469.68460998 210.66923956 463.82608836 207.6875 457.9375 C207.25945068 457.08752441 206.83140137 456.23754883 206.39038086 455.36181641 C200.73259156 444.30599857 194.3768854 433.65154149 188 423 C187.49791016 422.15598633 186.99582031 421.31197266 186.47851562 420.44238281 C181.52124699 412.12052872 176.39407727 403.9422764 170.9375 395.9375 C170.47190674 395.25171875 170.00631348 394.5659375 169.52661133 393.859375 C167.26876866 390.38977627 167.26876866 390.38977627 164 388 Z M-172 460 C-171.09224751 471.25645681 -170.05608001 482.49204961 -168.5625 493.6875 C-168.45252686 494.57719482 -168.34255371 495.46688965 -168.22924805 496.38354492 C-168.11363525 497.20959229 -167.99802246 498.03563965 -167.87890625 498.88671875 C-167.7816626 499.61076904 -167.68441895 500.33481934 -167.58422852 501.08081055 C-166.85385342 503.48009122 -165.90957304 504.3916332 -164 506 C-161.15307741 506.60708891 -158.44995468 507.04878916 -155.5703125 507.38671875 C-154.742966 507.49345413 -153.91561951 507.60018951 -153.0632019 507.7101593 C-150.41849187 508.04793333 -147.7719146 508.36751423 -145.125 508.6875 C-143.35011932 508.91360873 -141.57537745 509.1408099 -139.80078125 509.36914062 C-138.09908334 509.5843242 -136.3972638 509.79854854 -134.6953125 510.01171875 C-133.50133347 510.16165535 -133.50133347 510.16165535 -132.28323364 510.31462097 C-128.49730929 510.77061295 -124.82213963 511.120664 -121 511 C-125.34882433 505.73384554 -129.97972271 501.0599613 -135 496.4375 C-155.87706733 476.99161357 -155.87706733 476.99161357 -163.27734375 467.84375 C-165.95824627 464.97439402 -168.98951956 462.51535941 -172 460 Z M101.9609375 461.90625 C101.10757813 462.7621875 100.25421875 463.618125 99.375 464.5 C98.53710938 465.3353125 97.69921875 466.170625 96.8359375 467.03125 C94.740796 469.17911348 92.77041758 471.40694401 90.81640625 473.68359375 C86.30518508 478.88082489 81.43714783 483.70863958 76.5625 488.5625 C75.65951172 489.46935547 74.75652344 490.37621094 73.82617188 491.31054688 C69.28385746 495.84628299 64.71509305 500.25188419 59.76928711 504.34741211 C57.58958612 506.38334367 55.81901289 508.64126075 54 511 C63.98052449 510.40074118 73.83768652 509.37989739 83.75 508.0625 C85.11456341 507.89111733 86.47914668 507.71989276 87.84375 507.54882812 C89.12765625 507.37931641 90.4115625 507.20980469 91.734375 507.03515625 C93.47025879 506.80904663 93.47025879 506.80904663 95.24121094 506.57836914 C98.12918003 506.23546914 98.12918003 506.23546914 100 504 C100.52677884 501.13758502 100.94353623 498.33447727 101.2890625 495.44921875 C101.39721283 494.59826126 101.50536316 493.74730377 101.61679077 492.87055969 C101.84424836 491.06793613 102.06757626 489.26478744 102.28710938 487.46118164 C102.62250972 484.70794223 102.97025404 481.95648829 103.3203125 479.20507812 C103.53979234 477.45321628 103.75856535 475.70126571 103.9765625 473.94921875 C104.07965729 473.12822189 104.18275208 472.30722504 104.28897095 471.46134949 C104.75423056 467.61611566 105.12796269 463.88234908 105 460 C103.65652652 459.88618061 103.65652652 459.88618061 101.9609375 461.90625 Z M-290 492 C-301.9094657 523.69260783 -313.22647707 557.69191125 -308 592 C-307.67 592.33 -307.34 592.66 -307 593 C-304.72879236 592.99399945 -302.45766714 592.94400204 -300.1875 592.875 C-286.45337888 592.68481759 -275.12200724 596.47815247 -265.04296875 605.86328125 C-256.3204091 614.98611133 -253.80394542 626.55629878 -253.9375 638.8125 C-253.94201172 639.60076172 -253.94652344 640.38902344 -253.95117188 641.20117188 C-253.96288688 643.13414761 -253.98082002 645.06708393 -254 647 C-221.3014916 651.57631495 -182.38938409 643.69469204 -153 629 C-154.27088099 622.54199064 -156.11630032 616.45161026 -158.22387695 610.21948242 C-167.58339405 582.48114699 -174.63334861 553.94384608 -179.58618164 525.0925293 C-179.98982649 522.82023271 -179.98982649 522.82023271 -181 520 C-183.72351732 519.18684191 -186.30745653 518.58237773 -189.08984375 518.0546875 C-189.92824295 517.88382126 -190.76664215 517.71295502 -191.63044739 517.53691101 C-193.44614913 517.16707185 -195.26295505 516.80262237 -197.08068848 516.44290161 C-201.90885887 515.4831163 -206.72593387 514.47101566 -211.54296875 513.45703125 C-212.51722809 513.25228683 -213.49148743 513.04754242 -214.49526978 512.83659363 C-223.30675765 510.96791288 -232.04472339 508.8745015 -240.75 506.5625 C-241.43022217 506.38202118 -242.11044434 506.20154236 -242.8112793 506.01559448 C-254.63000242 502.85031748 -266.24710895 499.11619046 -277.80175781 495.09790039 C-278.96932617 494.6930542 -280.13689453 494.28820801 -281.33984375 493.87109375 C-282.36456787 493.50943115 -283.38929199 493.14776855 -284.44506836 492.77514648 C-287.03347573 491.85483769 -287.03347573 491.85483769 -290 492 Z M214.48046875 493.8359375 C212.75957031 494.43559326 212.75957031 494.43559326 211.00390625 495.04736328 C210.38531738 495.26330139 209.76672852 495.4792395 209.12939453 495.70172119 C178.1052834 506.45816354 146.15994872 513.58324936 114 520 C113.77449463 521.09425293 113.54898926 522.18850586 113.31665039 523.31591797 C106.76956652 554.96726488 99.72562014 586.24160216 89.09790039 616.80175781 C88.4906311 618.55311035 88.4906311 618.55311035 87.87109375 620.33984375 C87.50943115 621.36456787 87.14776855 622.38929199 86.77514648 623.44506836 C85.85483769 626.03347573 85.85483769 626.03347573 86 629 C106.95062596 636.87028533 127.79956175 643.7734721 150 647 C150.85851562 647.13148438 151.71703125 647.26296875 152.6015625 647.3984375 C158.25437414 648.11717987 163.93487721 648.09726188 169.625 648.125 C170.82552002 648.13213013 170.82552002 648.13213013 172.05029297 648.1394043 C177.11856621 648.1252705 181.98298257 647.72327711 187 647 C186.94779297 645.47632813 186.94779297 645.47632813 186.89453125 643.921875 C186.55563946 629.89209701 188.30897142 616.63398994 198.0390625 605.7109375 C210.74506013 593.72330016 224.41724038 592.62966542 241 593 C245.81790656 558.57528055 235.79538961 523.68365506 223 492 C219.68635648 492 217.5978863 492.7275112 214.48046875 493.8359375 Z M-163 523 C-161.68423568 533.79770732 -159.52835313 544.24548382 -157 554.8125 C-156.70953796 556.03632889 -156.70953796 556.03632889 -156.41320801 557.28488159 C-153.54430213 569.3188994 -150.34803782 581.22613333 -146.75 593.0625 C-146.44690918 594.06405624 -146.44690918 594.06405624 -146.13769531 595.08584595 C-143.45841814 603.88569252 -140.41323148 612.46062714 -137 621 C-133.35897642 620.40160322 -130.4092594 619.40194326 -127.10546875 617.76953125 C-125.69031982 617.07041626 -125.69031982 617.07041626 -124.24658203 616.35717773 C-123.23708496 615.84743408 -122.22758789 615.33769043 -121.1875 614.8125 C-120.13159668 614.28148682 -119.07569336 613.75047363 -117.98779297 613.20336914 C-106.37304154 607.28416424 -95.16929112 600.71267656 -84 594 C-82.74268066 593.25121582 -82.74268066 593.25121582 -81.45996094 592.48730469 C-73.1319261 587.52700135 -64.92431222 582.40240971 -56.875 577 C-56.18083984 576.54278564 -55.48667969 576.08557129 -54.77148438 575.61450195 C-53.12435495 574.48833 -51.55311575 573.25264922 -50 572 C-49.64909069 569.02407934 -49.64909069 569.02407934 -51.3984375 567.58056641 C-52.05070312 567.09249512 -52.70296875 566.60442383 -53.375 566.1015625 C-54.10501221 565.54637939 -54.83502441 564.99119629 -55.5871582 564.41918945 C-56.78151489 563.53106567 -56.78151489 563.53106567 -58 562.625 C-59.66127213 561.36214366 -61.3214063 560.09778912 -62.98046875 558.83203125 C-63.82270996 558.19217285 -64.66495117 557.55231445 -65.53271484 556.89306641 C-69.17800107 554.09615869 -72.75235066 551.21661295 -76.3125 548.3125 C-76.96033447 547.78446777 -77.60816895 547.25643555 -78.27563477 546.71240234 C-94.84456595 533.15543405 -94.84456595 533.15543405 -98 530 C-99.37362571 529.77154228 -100.75723919 529.60259142 -102.14233398 529.45922852 C-103.02513535 529.36565567 -103.90793671 529.27208282 -104.81748962 529.17567444 C-105.78392899 529.07774094 -106.75036835 528.97980743 -107.74609375 528.87890625 C-108.74520279 528.77408432 -109.74431183 528.66926239 -110.7736969 528.56126404 C-113.99454873 528.22420342 -117.21598833 527.89318895 -120.4375 527.5625 C-123.58843713 527.23508905 -126.73924329 526.90643788 -129.89004517 526.57772827 C-131.95425849 526.3625231 -134.0185283 526.147859 -136.08285522 525.93374634 C-145.06036485 525.0008578 -154.03128213 524.01361969 -163 523 Z M84.1875 524.0234375 C83.30457275 524.12967438 82.42164551 524.23591125 81.51196289 524.34536743 C78.67443668 524.68690188 75.83719404 525.03071779 73 525.375 C70.23098826 525.71069659 67.461914 526.04581763 64.69259644 526.37898254 C62.85505645 526.60038333 61.01775391 526.82376383 59.18069458 527.04911804 C54.65548829 527.59688818 50.13573742 528.09060226 45.59326172 528.47192383 C44.30379639 528.58602097 44.30379639 528.58602097 42.98828125 528.7024231 C41.3776458 528.8415066 39.76576746 528.96716055 38.15283203 529.0763855 C30.47135645 529.7544704 26.31299814 533.62298984 21 539 C18.9109444 540.85573251 16.76884162 542.64558514 14.625 544.4375 C14.08053223 544.9001123 13.53606445 545.36272461 12.97509766 545.83935547 C7.68645918 550.32276012 2.20759922 554.53681172 -3.31787109 558.72216797 C-6.32740095 561.00836234 -9.31864961 563.31833697 -12.3125 565.625 C-13.41268523 566.4714519 -14.51293837 567.31781555 -15.61328125 568.1640625 C-16.40089844 568.76992188 -17.18851563 569.37578125 -18 570 C-13.8559805 574.53590867 -9.22656611 577.70467591 -4.0625 581 C-2.74838135 581.84485962 -2.74838135 581.84485962 -1.40771484 582.70678711 C32.38189878 607.39530937 32.38189878 607.39530937 70 621 C80.75099347 594.0410694 87.95920556 565.85741113 93.9375 537.5 C94.14914795 536.49694824 94.3607959 535.49389648 94.57885742 534.46044922 C94.76810791 533.53506348 94.9573584 532.60967773 95.15234375 531.65625 C95.3997229 530.44678711 95.3997229 530.44678711 95.65209961 529.21289062 C96.10353849 526.7147678 96.10353849 526.7147678 96 523 C92.02082239 523 88.13094455 523.54152267 84.1875 524.0234375 Z M-69 532 C-64.96483176 536.03516824 -60.97506811 539.61910786 -56.5625 543.1875 C-55.52319336 544.03090942 -55.52319336 544.03090942 -54.46289062 544.89135742 C-47.84156226 550.21508015 -40.98380026 555.16590076 -34 560 C-29.1341073 557.34587671 -24.80757798 554.47711027 -20.5 551 C-19.9126709 550.53158691 -19.3253418 550.06317383 -18.72021484 549.58056641 C-17.46914939 548.58202168 -16.21967332 547.58148284 -14.97167969 546.57910156 C-12.90772991 544.92610167 -10.83380527 543.28628104 -8.7578125 541.6484375 C-7.38002252 540.5575263 -6.00241375 539.4663862 -4.625 538.375 C-3.6340332 537.59382812 -3.6340332 537.59382812 -2.62304688 536.796875 C-1.0633071 535.55439859 0.47123423 534.28039486 2 533 C2 532.67 2 532.34 2 532 C-21.43 532 -44.86 532 -69 532 Z M-34 581 C-34.65991943 581.48976318 -35.31983887 581.97952637 -35.99975586 582.48413086 C-64.85794223 603.71241263 -97.04345166 622.89190614 -130 637 C-127.79336292 644.23328156 -124.84422141 650.81814151 -121.4375 657.5625 C-120.90447266 658.61953125 -120.37144531 659.6765625 -119.82226562 660.765625 C-104.91001871 689.9502608 -83.9294055 720.98627405 -52 733 C-47.07308641 734.51715041 -42.11724496 735.37339858 -37 736 C-36.26652344 736.09023438 -35.53304687 736.18046875 -34.77734375 736.2734375 C-14.65316704 737.38432624 2.87733982 724.75324857 17.109375 712.12890625 C34.4444371 695.54927117 46.75002886 673.46375362 57 652 C57.30631348 651.36126953 57.61262695 650.72253906 57.92822266 650.06445312 C61.4235177 643.78550954 61.4235177 643.78550954 63 637 C62.36312256 636.70456299 61.72624512 636.40912598 61.07006836 636.10473633 C45.28609397 628.74697379 30.02166419 620.80570934 15 612 C14.15663086 611.51063965 13.31326172 611.0212793 12.44433594 610.51708984 C-0.91555835 602.75490195 -13.76405819 594.29412334 -26.54663086 585.61889648 C-28.99154513 584.00557909 -31.47740509 582.48830563 -34 581 Z " fill="#000000" transform="translate(546,141)"/>
<path d="M0 0 C18.03947696 14.4027184 29.4339188 31.03647337 33.44140625 53.94921875 C35.06020994 77.80703582 31.56026562 100.12810579 15.484375 118.72265625 C14.81019531 119.45742188 14.13601563 120.1921875 13.44140625 120.94921875 C12.77753906 121.70460938 12.11367188 122.46 11.4296875 123.23828125 C2.45690189 132.89107464 -9.1205794 139.74272849 -21.55859375 143.94921875 C-22.46867188 144.26761719 -23.37875 144.58601562 -24.31640625 144.9140625 C-45.51158507 151.04653424 -68.81603743 147.46445252 -87.92578125 137.08984375 C-92.92755338 134.22946342 -97.31932291 130.84476493 -101.55859375 126.94921875 C-102.26371094 126.31242188 -102.96882813 125.675625 -103.6953125 125.01953125 C-117.78837102 111.6512586 -127.08641358 92.37995445 -127.796875 72.89453125 C-128.0239738 60.89029508 -127.37353918 50.38080871 -123.55859375 38.94921875 C-123.26984375 38.03269531 -122.98109375 37.11617188 -122.68359375 36.171875 C-117.29566465 20.94616465 -105.45757138 8.24614179 -92.55859375 -1.05078125 C-91.45837891 -1.85128906 -91.45837891 -1.85128906 -90.3359375 -2.66796875 C-64.16381171 -19.9963402 -25.04029367 -18.52901345 0 0 Z " fill="#000000" transform="translate(559.55859375,447.05078125)"/>
</svg>
