<svg viewBox="0 0 635 377" fill="none" xmlns="http://www.w3.org/2000/svg" data-svg-name="handAdam"><defs><filter id="handAdamWatercolorFilter"><feTurbulence result="noise-lg" type="fractalNoise" baseFrequency=".012" numOctaves="2" seed="42"></feTurbulence><feTurbulence result="noise-md" type="fractalNoise" baseFrequency=".24" numOctaves="3" seed="505"></feTurbulence><feComposite result="BaseGraphic" in="SourceGraphic" in2="noise-lg" operator="arithmetic" k1="0.5" k2="0.6" k4="-.07"></feComposite><feDisplacementMap result="layer-2" inx="BaseGraphic" in="SourceGraphic" in2="noise-lg" xChannelSelector="G" yChannelSelector="R" scale="4"></feDisplacementMap><feDisplacementMap result="layer-2" in="layer-2" in2="noise-md" xChannelSelector="A" yChannelSelector="G" scale="2"></feDisplacementMap><feDisplacementMap result="glow" in="BaseGraphic" in2="noise-lg" xChannelSelector="R" yChannelSelector="A" scale="16"></feDisplacementMap><feMorphology result="glow-diff" in="glow" operator="erode" radius="1"></feMorphology><feComposite result="glow" in="glow" in2="glow-diff" operator="out"></feComposite><feGaussianBlur result="glow" in="glow" stdDeviation="1.2"></feGaussianBlur><feComposite id="color" result="layer-2" in="layer-2" in2="glow" operator="arithmetic" k1="1.5" k2="0" k3=".3"></feComposite><feComposite class="js-watercolor-anim" in="SourceGraphic" in2="layer-2" operator="arithmetic" k1="-0.8" k2="0.8" k3="2"></feComposite></filter></defs><g id="base" filter="url(#handAdamWatercolorFilter)" style="opacity: 1;"><path id="p" d="M566.589 310.363L566.329 310.673C554.719 319.673 545.729 314.183 545.729 314.183C529.619 304.323 528.639 278.453 528.639 278.453C516.139 273.193 503.429 243.823 503.429 243.823C490.499 241.633 466.059 215.003 466.059 215.003C466.059 215.003 468.689 237.803 467.809 249.853L467.579 250.143C464.887 247.964 462.079 245.931 459.169 244.053C451.169 238.853 439.699 231.383 429.329 224.273C425.169 206.673 419.329 197.073 419.329 197.073C415.379 205.623 405.629 206.493 405.629 206.493C403.379 204.253 400.039 200.413 400.039 200.413C403.039 195.153 412.089 185.413 412.089 185.413C420.639 176.413 435.219 167.333 435.219 167.333C459.219 190.673 482.219 173.913 482.219 173.913C501.289 192.983 523.319 188.373 523.319 188.373C526.455 189.111 529.541 190.046 532.559 191.173C537.607 192.927 542.267 195.644 546.279 199.173C552.679 204.883 562.129 211.393 571.139 218.673L570.659 219.263C570.659 219.263 581.839 251.153 584.139 257.393C586.439 263.633 592.029 300.133 589.399 305.393C587.569 309.053 581.939 313.493 575.029 313.563C571.919 313.569 568.914 312.43 566.589 310.363Z" fill="#EEC72D"></path><path id="p_2" d="M634.219 249.523C633.87 250.726 633.242 251.83 632.385 252.745C631.528 253.659 630.467 254.357 629.289 254.783C621.069 258.073 601.999 252.483 588.849 235.713C584.089 229.643 577.779 223.973 571.249 218.713C562.249 211.433 552.789 204.923 546.389 199.213C542.376 195.683 537.716 192.966 532.668 191.213C529.651 190.086 526.565 189.15 523.429 188.413C523.429 188.413 501.429 193.023 482.329 173.953C482.329 173.953 459.329 190.713 435.329 167.373C435.329 167.373 420.749 176.473 412.199 185.453C412.199 185.453 403.108 195.153 400.148 200.453C409.038 181.823 430.049 164.453 435.809 159.853C436.217 159.525 436.725 159.346 437.249 159.346C437.772 159.346 438.28 159.525 438.688 159.853C444.168 164.243 464.859 178.963 483.489 167.393C483.489 167.393 499.949 186.393 523.489 186.853C528.504 186.951 533.5 186.207 538.269 184.653C538.269 184.653 545.008 181.653 545.668 183.173C546.328 184.693 533.168 187.943 533.168 187.943C533.168 187.943 549.449 192.053 565.389 206.353C581.329 220.653 611.529 254.293 634.219 249.523Z" fill="#EEC72D"></path><path id="p_3" d="M457.919 310.083V310.203C455.417 317.129 452.567 323.924 449.379 330.563C449.093 331.168 448.613 331.66 448.015 331.961C447.417 332.262 446.735 332.354 446.079 332.223C424.199 327.873 428.629 303.643 430.079 297.503C430.359 296.343 430.839 294.203 431.079 292.973C441.299 301.723 450.259 307.053 457.919 310.083Z" fill="#EEC72D"></path><path id="p_4" d="M224.009 154.893C225.669 157.673 226.069 161.483 222.009 162.133C214.069 163.403 205.849 162.853 197.839 163.363C189.973 163.787 182.148 164.789 174.429 166.363C162.734 168.983 151.505 173.367 141.129 179.363C128.449 186.473 116.729 195.113 104.799 203.363C102.112 205.335 99.5535 207.476 97.1388 209.773C96.8689 210.061 96.5218 210.266 96.1388 210.363C96.0106 210.394 95.8768 210.394 95.7486 210.363C94.4886 209.883 94.8086 205.933 94.9386 205.043C95.7486 199.403 99.9388 195.363 103.679 191.453C107.929 187.003 112.359 182.713 116.909 178.573C135.329 161.813 155.789 147.323 176.639 133.763C180.329 131.373 184.169 128.963 188.509 128.263C194.219 127.353 200.059 129.583 204.769 132.953C212.689 138.573 219.059 146.623 224.009 154.893Z" fill="#EEC72D"></path><path id="p_5" d="M395.169 251.833C406.569 253.383 430.259 294.933 450.369 305.953C451.209 306.413 452.269 307.013 453.259 307.503C452.259 307.053 451.329 306.503 450.329 306.023C441.139 301.103 430.399 293.023 418.189 280.413C380.049 240.953 328.109 239.313 298.849 233.723C269.589 228.133 240.379 194.903 240.379 194.903C213.757 210.03 189.666 229.229 168.979 251.803C120.529 304.453 88.4385 334.653 68.3785 344.803C55.7985 351.193 35.8787 364.513 25.7487 371.433C22.939 373.404 19.5626 374.403 16.1329 374.278C12.7033 374.154 9.40799 372.912 6.74865 370.743C1.44865 366.233 0.448811 359.263 2.65881 350.463C4.48915 343.428 7.80838 336.869 12.3922 331.227C16.976 325.586 22.7175 320.994 29.2286 317.763C50.5386 306.973 90.2289 285.313 120.029 259.873C162.769 223.383 241.029 164.313 241.029 164.313C241.029 164.313 288.379 209.683 317.969 219.213C317.909 219.263 382.999 250.173 395.169 251.833Z" fill="#EEC72D"></path></g><g id="shading" filter="url(#globalPencil2Filter)"><path id="p_6" d="M20.3695 322.603L1.51953 364.853" stroke="black" stroke-width="2" stroke-miterlimit="10" style="stroke-dashoffset: 0; stroke-dasharray: none;"></path><path id="p_7" d="M42.6696 310.192L14.0996 374.252" stroke="black" stroke-width="2" stroke-miterlimit="10" style="stroke-dashoffset: 0; stroke-dasharray: none;"></path><path id="p_8" d="M119.67 175.123L108.58 199.993" stroke="black" stroke-width="2" stroke-miterlimit="10" style="stroke-dashoffset: 0; stroke-dasharray: 28.2306px, 38.2306px;"></path><path id="p_9" d="M65.0891 297.502L35.2891 364.322" stroke="black" stroke-width="2" stroke-miterlimit="10" style="stroke-dashoffset: 0; stroke-dasharray: none;"></path><path id="p_10" d="M132.57 183.802V183.792L145.77 154.222L145.78 154.212" stroke="black" stroke-width="2" stroke-miterlimit="10" style="stroke-dashoffset: 0; stroke-dasharray: none;"></path><path id="p_11" d="M88.4294 282.772L58.6094 349.622" stroke="black" stroke-width="2" stroke-miterlimit="10" style="stroke-dashoffset: 0; stroke-dasharray: none;"></path><path id="p_12" d="M170.059 137.342L154.459 172.322" stroke="black" stroke-width="2" stroke-miterlimit="10" style="stroke-dashoffset: 0; stroke-dasharray: none;"></path><path id="p_13" d="M113.33 264.532V264.542L81.5801 335.732" stroke="black" stroke-width="2" stroke-miterlimit="10" style="stroke-dashoffset: 0; stroke-dasharray: none;"></path><path id="p_14" d="M190.99 128.022L173.92 166.282" stroke="black" stroke-width="2" stroke-miterlimit="10" style="stroke-dashoffset: 0; stroke-dasharray: none;"></path><path id="p_15" d="M139.979 242.382V242.392L108.629 312.672V312.682" stroke="black" stroke-width="2" stroke-miterlimit="10" style="stroke-dashoffset: 0; stroke-dasharray: none;"></path><path id="p_16" d="M205.12 133.922L191.83 163.702" stroke="black" stroke-width="2" stroke-miterlimit="10" style="stroke-dashoffset: 0; stroke-dasharray: none;"></path><path id="p_17" d="M166.079 221.453L138.689 282.863" stroke="black" stroke-width="2" stroke-miterlimit="10" style="stroke-dashoffset: 0; stroke-dasharray: none;"></path><path id="p_18" d="M216.67 145.612L208.92 163.002" stroke="black" stroke-width="2" stroke-miterlimit="10" style="stroke-dashoffset: 0; stroke-dasharray: none;"></path><path id="p_19" d="M191.87 201.223V201.233L170.6 248.913" stroke="black" stroke-width="2" stroke-miterlimit="10" style="stroke-dashoffset: 0; stroke-dasharray: none;"></path><path id="p_20" d="M217.45 181.462L217.44 181.482L199.25 222.282" stroke="black" stroke-width="2" stroke-miterlimit="10" style="stroke-dashoffset: 0; stroke-dasharray: none;"></path><path id="p_21" d="M241.279 165.612L224.109 204.122" stroke="black" stroke-width="2" stroke-miterlimit="10" style="stroke-dashoffset: 0; stroke-dasharray: none;"></path><path id="p_22" d="M253.24 176.402L243.17 198.972" stroke="black" stroke-width="2" stroke-miterlimit="10" style="stroke-dashoffset: 0; stroke-dasharray: none;"></path><path id="p_23" d="M265.42 186.692L255.01 210.032" stroke="black" stroke-width="2" stroke-miterlimit="10" style="stroke-dashoffset: 0; stroke-dasharray: none;"></path><path id="p_24" d="M277.839 196.433L267.469 219.693" stroke="black" stroke-width="2" stroke-miterlimit="10" style="stroke-dashoffset: 0; stroke-dasharray: 26.4669px, 36.4669px;"></path><path id="p_25" d="M290.579 205.462L280.699 227.622" stroke="black" stroke-width="2" stroke-miterlimit="10" style="stroke-dashoffset: 0; stroke-dasharray: 25.2627px, 35.2627px;"></path><path id="p_26" d="M303.779 213.462L295.029 233.092" stroke="black" stroke-width="2" stroke-miterlimit="10" style="stroke-dashoffset: 0; stroke-dasharray: none;"></path><path id="p_27" d="M317.78 219.672L310.58 235.822" stroke="black" stroke-width="2" stroke-miterlimit="10" style="stroke-dashoffset: 0; stroke-dasharray: none;"></path><path id="p_28" d="M331.66 226.143H331.65L326.25 238.273" stroke="black" stroke-width="2" stroke-miterlimit="10" style="stroke-dashoffset: 0; stroke-dasharray: 14.2877px, 24.2877px;"></path><path id="p_29" d="M345.589 232.502L341.689 241.242" stroke="black" stroke-width="2" stroke-miterlimit="10" style="stroke-dashoffset: 0; stroke-dasharray: none;"></path><path id="p_30" d="M359.59 238.712L356.74 245.102" stroke="black" stroke-width="2" stroke-miterlimit="10" style="stroke-dashoffset: 0; stroke-dasharray: none;"></path><path id="p_31" d="M373.69 244.692L371.27 250.132" stroke="black" stroke-width="2" stroke-miterlimit="10" style="stroke-dashoffset: 0; stroke-dasharray: none;"></path><path id="p_32" d="M407.84 205.722L420.69 176.902L420.72 176.842V176.832L424.36 168.672" stroke="black" stroke-width="2" stroke-miterlimit="10" style="stroke-dashoffset: 0; stroke-dasharray: none;"></path><path id="p_33" d="M388.02 250.152L385.17 256.522V256.532" stroke="black" stroke-width="2" stroke-miterlimit="10" style="stroke-dashoffset: 0; stroke-dasharray: none;"></path><path id="p_34" d="M423.48 208.252L439.67 171.952L439.68 171.922L443.31 163.792" stroke="black" stroke-width="2" stroke-miterlimit="10" style="stroke-dashoffset: 0; stroke-dasharray: none;"></path><path id="p_35" d="M401.919 256.592L398.389 264.502" stroke="black" stroke-width="2" stroke-miterlimit="10" style="stroke-dashoffset: 0; stroke-dasharray: none;"></path><path id="p_36" d="M431.98 226.772L453.44 178.662L453.45 178.652L457.22 170.172" stroke="black" stroke-width="2" stroke-miterlimit="10" style="stroke-dashoffset: 0; stroke-dasharray: none;"></path><path id="p_37" d="M413.179 268.933L410.789 274.293" stroke="black" stroke-width="2" stroke-miterlimit="10" style="stroke-dashoffset: 0; stroke-dasharray: none;"></path><path id="p_38" d="M444.9 235.392L470.2 178.672L470.21 178.652L473.65 170.932V170.922" stroke="black" stroke-width="2" stroke-miterlimit="10" style="stroke-dashoffset: 0; stroke-dasharray: none;"></path><path id="p_39" d="M424.089 282.062V282.072L422.459 285.702" stroke="black" stroke-width="2" stroke-miterlimit="10" style="stroke-dashoffset: 0; stroke-dasharray: none;"></path><path id="p_40" d="M457.889 243.872L466.039 225.612V225.602L468.949 219.082L486.899 178.832L486.909 178.802L489.229 173.612" stroke="black" stroke-width="2" stroke-miterlimit="10" style="stroke-dashoffset: 0; stroke-dasharray: none;"></path><path id="p_41" d="M435.289 294.542L434.529 296.252L434.399 296.542L427.719 311.512" stroke="black" stroke-width="2" stroke-miterlimit="10" style="stroke-dashoffset: 0; stroke-dasharray: none;"></path><path id="p_42" d="M480.74 230.232L500.42 186.122V186.102L502.32 181.862" stroke="black" stroke-width="2" stroke-miterlimit="10" style="stroke-dashoffset: 0; stroke-dasharray: none;"></path><path id="p_43" d="M447.479 304.822L447.409 304.972L447.239 305.342L436.719 328.942" stroke="black" stroke-width="2" stroke-miterlimit="10" style="stroke-dashoffset: 0; stroke-dasharray: none;"></path><path id="p_44" d="M517.08 186.342L515.97 188.832L493.25 239.782" stroke="black" stroke-width="2" stroke-miterlimit="10" style="stroke-dashoffset: 0; stroke-dasharray: none;"></path><path id="p_45" d="M534.269 185.393L533.319 187.533L533.049 188.133L531.689 191.173V191.183L505.389 250.133V250.143" stroke="black" stroke-width="2" stroke-miterlimit="10" style="stroke-dashoffset: 0; stroke-dasharray: none;"></path><path id="p_46" d="M547.129 194.172L545.019 198.882L545.009 198.922L514.939 266.332" stroke="black" stroke-width="2" stroke-miterlimit="10" style="stroke-dashoffset: 0; stroke-dasharray: none;"></path><path id="p_47" d="M560.079 202.723L557.379 208.773L557.369 208.803L526.539 277.923" stroke="black" stroke-width="2" stroke-miterlimit="10" style="stroke-dashoffset: 0; stroke-dasharray: none;"></path><path id="p_48" d="M533.16 300.652L569.84 218.412L569.86 218.382L572.03 213.502" stroke="black" stroke-width="2" stroke-miterlimit="10" style="stroke-dashoffset: 0; stroke-dasharray: none;"></path><path id="p_49" d="M576.98 240.022L544.08 313.772" stroke="black" stroke-width="2" stroke-miterlimit="10" style="stroke-dashoffset: 0; stroke-dasharray: none;"></path><path id="p_50" d="M583.859 224.583L581.879 229.043" stroke="black" stroke-width="2" stroke-miterlimit="10" style="stroke-dashoffset: 0; stroke-dasharray: none;"></path><path id="p_51" d="M561.029 313.382L584.219 261.372V261.362" stroke="black" stroke-width="2" stroke-miterlimit="10" style="stroke-dashoffset: 0; stroke-dasharray: none;"></path><path id="p_52" d="M596.03 234.893L593.07 241.543" stroke="black" stroke-width="2" stroke-miterlimit="10" style="stroke-dashoffset: 0; stroke-dasharray: none;"></path><path id="p_53" d="M577.939 313.053L588.489 289.383V289.373" stroke="black" stroke-width="2" stroke-miterlimit="10" style="stroke-dashoffset: 0; stroke-dasharray: none;"></path><path id="p_54" d="M608.889 243.652L605.709 250.772" stroke="black" stroke-width="2" stroke-miterlimit="10" style="stroke-dashoffset: 0; stroke-dasharray: none;"></path><path id="p_55" d="M623.109 249.362L620.359 255.522" stroke="black" stroke-width="2" stroke-miterlimit="10" style="stroke-dashoffset: 0; stroke-dasharray: none;"></path></g><g id="lines" filter="url(#globalPencil1Filter)"><path id="p_56" d="M118.959 105.723C118.959 105.723 200.599 59.8029 245.959 33.5029" stroke="black" stroke-width="2" stroke-miterlimit="10" style="stroke-dashoffset: 0; stroke-dasharray: none;"></path><path id="p_57" d="M91.7793 71.9728C91.7793 71.9728 228.049 65.0628 265.699 73.6128" stroke="black" stroke-width="2" stroke-miterlimit="10" style="stroke-dashoffset: 0; stroke-dasharray: none;"></path><path id="p_58" d="M374.299 88.1528C374.299 88.1528 431.399 91.3328 455.719 69.6328" stroke="black" stroke-width="2" stroke-miterlimit="10" style="stroke-dashoffset: 0; stroke-dasharray: none;"></path><path id="p_59" d="M268.318 220.903L360.048 302.763" stroke="black" stroke-width="2" stroke-miterlimit="10" style="stroke-dashoffset: 0; stroke-dasharray: none;"></path><path id="p_60" d="M475.609 251.973L519.829 334.103" stroke="black" stroke-width="2" stroke-miterlimit="10" style="stroke-dashoffset: 0; stroke-dasharray: none;"></path><path id="p_61" d="M422.189 293.723L501.639 331.473" stroke="black" stroke-width="2" stroke-miterlimit="10" style="stroke-dashoffset: 0; stroke-dasharray: none;"></path><path id="p_62" d="M447.189 288.253C447.189 288.253 459.459 278.363 464.939 270.913C464.939 270.913 481.86 274.523 484.5 289.483C485.91 297.483 478.15 303.793 469.06 303.803C466.267 303.764 463.517 303.117 460.999 301.909C458.481 300.7 456.256 298.958 454.479 296.803L447.189 288.253Z" stroke="black" stroke-width="2" stroke-miterlimit="10" style="stroke-dashoffset: 0; stroke-dasharray: none;"></path><path id="p_63" d="M467.35 250.023C468.23 238.023 465.6 215.173 465.6 215.173C465.6 215.173 490.04 241.803 502.97 243.993C502.97 243.993 515.68 273.363 528.18 278.623C528.18 278.623 529.18 304.493 545.27 314.353C545.27 314.353 554.27 319.833 565.87 310.843" stroke="black" stroke-width="2" stroke-miterlimit="10" style="stroke-dashoffset: 0; stroke-dasharray: none;"></path><path id="p_64" d="M430.259 292.403C430.039 293.613 429.539 295.843 429.259 297.033C427.759 303.173 423.329 327.403 445.259 331.743C445.916 331.874 446.597 331.782 447.195 331.481C447.793 331.181 448.273 330.689 448.559 330.083C451.75 323.45 454.6 316.657 457.099 309.733" stroke="black" stroke-width="2" stroke-miterlimit="10" style="stroke-dashoffset: 0; stroke-dasharray: none;"></path><path id="p_65" d="M405.189 206.633C405.189 206.633 414.94 205.763 418.89 197.213C418.89 197.213 424.71 206.813 428.89 224.413" stroke="black" stroke-width="2" stroke-miterlimit="10" style="stroke-dashoffset: 0; stroke-dasharray: none;"></path><path id="p_66" d="M570.229 219.453C570.229 219.453 581.409 251.353 583.709 257.593C586.009 263.833 591.6 300.333 588.97 305.593C587.14 309.253 581.51 313.693 574.6 313.753C572.103 313.753 569.66 313.028 567.567 311.666C565.475 310.305 563.822 308.365 562.81 306.083L537.02 249.083" stroke="black" stroke-width="2" stroke-miterlimit="10" style="stroke-dashoffset: 0; stroke-dasharray: none;"></path><path id="p_67" d="M454.42 308.393C453.852 308.188 453.298 307.947 452.76 307.673C451.76 307.183 450.71 306.583 449.87 306.123C429.76 295.123 406.07 253.553 394.67 252.003C382.5 250.363 317.41 219.453 317.41 219.453C287.82 209.923 240.47 164.553 240.47 164.553C240.47 164.553 162.23 223.623 119.47 260.113C89.6803 285.553 49.98 307.213 28.67 318.003C22.1589 321.234 16.4175 325.826 11.8336 331.467C7.24978 337.108 3.93055 343.668 2.10022 350.703C-0.109783 359.503 0.890061 366.473 6.19006 370.983C8.84939 373.152 12.1447 374.393 15.5743 374.518C19.004 374.642 22.3804 373.643 25.1901 371.673C35.3201 364.753 55.1904 351.433 67.8204 345.043C87.8804 334.853 119.97 304.653 168.42 252.043C189.107 229.469 213.199 210.27 239.82 195.143C239.82 195.143 269.03 228.373 298.29 233.963C327.55 239.553 379.49 241.193 417.63 280.653C429.84 293.293 440.58 301.343 449.77 306.263C450.77 306.793 451.77 307.263 452.7 307.743C470.54 316.333 482.12 312.863 487 309.253C493.14 304.713 501.24 293.003 484.84 269.383C477.827 259.379 468.922 250.845 458.63 244.263C442.45 233.823 412.69 214.263 405.14 206.673C402.89 204.433 399.55 200.593 399.55 200.593C402.55 195.333 411.6 185.593 411.6 185.593C420.15 176.593 434.73 167.513 434.73 167.513C458.73 190.853 481.73 174.093 481.73 174.093C500.8 193.153 522.83 188.553 522.83 188.553C525.967 189.286 529.054 190.221 532.07 191.353C537.12 193.102 541.78 195.82 545.79 199.353C556.79 209.193 576.93 221.443 588.25 235.873C601.4 252.643 620.47 258.233 628.69 254.943C633.14 253.163 634.12 249.353 634.08 246.243C634.017 243.843 633.379 241.494 632.22 239.393C617.86 212.523 580.78 174.853 576.52 168.703C571.59 161.573 567.52 153.573 561.29 149.083C550.29 141.173 531.04 140.203 523.48 136.263C515.92 132.323 509.02 133.633 503.76 130.673C498.5 127.713 485.67 124.093 485.67 124.093C481.07 122.453 467.26 114.893 455.76 101.743C444.26 88.5927 425.51 86.9426 414.66 87.6026C403.81 88.2626 360.09 91.2226 295.66 78.7226C231.23 66.2226 186.51 64.9127 157.9 84.3127C129.29 103.713 83.9005 120.153 78.3405 123.443C72.7805 126.733 50.7303 133.303 38.8903 137.243C27.0503 141.183 3.38 152.703 3.38 152.703" stroke="black" stroke-width="2" stroke-miterlimit="10" style="stroke-dashoffset: 0; stroke-dasharray: none;"></path><path id="p_68" d="M95.6002 210.303C94.3402 209.823 94.6602 205.863 94.7902 204.983C95.6002 199.343 99.7904 195.303 103.53 191.383C107.78 186.943 112.21 182.653 116.76 178.513C135.18 161.743 155.64 147.263 176.49 133.703C180.18 131.313 184.02 128.903 188.36 128.203C194.07 127.293 199.91 129.523 204.62 132.893C212.52 138.543 218.89 146.593 223.84 154.893C225.5 157.683 225.9 161.493 221.84 162.143C213.9 163.413 205.68 162.863 197.67 163.363C189.805 163.797 181.981 164.8 174.26 166.363C162.567 168.988 151.339 173.371 140.96 179.363C128.28 186.473 116.56 195.103 104.63 203.363C101.943 205.335 99.3851 207.476 96.9703 209.773C96.7005 210.062 96.3533 210.267 95.9703 210.363C95.844 210.371 95.7174 210.351 95.6002 210.303V210.303Z" stroke="black" stroke-width="2" stroke-miterlimit="10" style="stroke-dashoffset: 0; stroke-dasharray: none;"></path><path id="p_69" d="M633.68 249.703C610.99 254.473 580.75 220.773 564.8 206.473C548.85 192.173 532.58 188.063 532.58 188.063C532.58 188.063 545.73 184.773 545.08 183.293C544.43 181.813 537.68 184.773 537.68 184.773C506.61 194.773 482.939 167.513 482.939 167.513C464.309 179.083 443.62 164.363 438.14 159.973C437.731 159.645 437.223 159.467 436.7 159.467C436.176 159.467 435.668 159.645 435.26 159.973C429.5 164.523 408.49 181.973 399.6 200.573" stroke="black" stroke-width="2" stroke-miterlimit="10" style="stroke-dashoffset: 0; stroke-dasharray: none;"></path><path id="p_70" d="M615.93 214.933L615.22 215.623C613.824 216.967 612.881 218.713 612.522 220.618C612.164 222.523 612.408 224.493 613.22 226.253C616.22 232.833 621.93 242.813 629.96 247.183C629.96 247.183 633.61 248.473 634.1 246.003" stroke="black" stroke-width="2" stroke-miterlimit="10" style="stroke-dashoffset: 0; stroke-dasharray: none;"></path></g><g id="arrows" filter="url(#globalPencil1Filter)"><path id="p_71" d="M323.43 241.723C323.71 250.183 318.871 253.963 310.811 253.923" stroke="black" stroke-width="2" stroke-miterlimit="10" style="stroke-dashoffset: 0; stroke-dasharray: none;"></path><path id="p_72" d="M313.851 250.063L310.721 254.093L315.041 257.093" stroke="black" stroke-width="2" stroke-miterlimit="10" style="stroke-dashoffset: 0; stroke-dasharray: 11.3622px, 21.3622px;"></path><path id="p_73" d="M326.58 244.863L323.56 240.983L319.74 244.313" stroke="black" stroke-width="2" stroke-miterlimit="10" style="stroke-dashoffset: 0; stroke-dasharray: none;"></path><path id="p_74" d="M501.82 248.573C494.67 254.323 489.58 255.963 482.76 258.433" stroke="black" stroke-width="2" stroke-miterlimit="10" style="stroke-dashoffset: 0; stroke-dasharray: none;"></path><path id="p_75" d="M485.22 254.333L482.09 258.373L486.41 261.363" stroke="black" stroke-width="2" stroke-miterlimit="10" style="stroke-dashoffset: 0; stroke-dasharray: none;"></path><path id="p_76" d="M501.32 253.163L502.34 248.353L497.34 247.573" stroke="black" stroke-width="2" stroke-miterlimit="10" style="stroke-dashoffset: 0; stroke-dasharray: none;"></path><path id="p_77" d="M552.48 132.103C590.84 123.553 582.12 152.303 582.87 160.323" stroke="black" stroke-width="2" stroke-miterlimit="10" style="stroke-dashoffset: 0; stroke-dasharray: none;"></path><path id="p_78" d="M579.361 157.143L582.671 161.043L586.491 157.423" stroke="black" stroke-width="2" stroke-miterlimit="10" style="stroke-dashoffset: 0; stroke-dasharray: none;"></path><path id="p_79" d="M554.491 128.173L551.871 132.323L556.291 134.793" stroke="black" stroke-width="2" stroke-miterlimit="10" style="stroke-dashoffset: 0; stroke-dasharray: none;"></path></g><g id="scribbles" filter="url(#globalPencil1Filter)"><path id="p_80" d="M311.389 63.5524C318.706 46.2093 331.771 31.9146 348.389 23.0723" stroke="black" stroke-miterlimit="10" style="stroke: rgb(71, 71, 71); stroke-dashoffset: 0; stroke-dasharray: none;"></path><path id="p_81" d="M314.159 49.0625L309.389 67.2225L321.059 53.9925" stroke="black" stroke-miterlimit="10" style="stroke: rgb(71, 71, 71); stroke-dashoffset: 0; stroke-dasharray: none;"></path><path id="p_82" d="M320.846 53.4428C321.358 52.4577 320.176 50.8292 318.206 49.8057C316.235 48.7823 314.223 48.7514 313.712 49.7365C313.2 50.7216 314.382 52.3497 316.353 53.3731C318.323 54.3966 320.335 54.4279 320.846 53.4428Z" stroke="black" stroke-miterlimit="10" style="stroke: rgb(71, 71, 71); stroke-dashoffset: 0; stroke-dasharray: none;"></path><path id="p_83" d="M359.475 36.6865C361.492 34.891 389.493 7.40817 377.14 6.19777C375.566 6.04983 374.275 7.38795 373.347 8.67232C369.171 14.4217 359.004 39.5578 372.675 41.2524C381.336 42.3216 385.243 28.7987 387.939 23.0963C386.749 26.5998 385.545 30.231 385.922 33.916C386.299 37.601 388.753 41.3129 392.391 41.9853C395.645 42.5502 398.9 40.4857 400.729 37.7354C402.435 35.0205 403.459 31.934 403.715 28.7382C398.524 30.5538 400.265 37.3253 406.129 37.6346C411.824 37.9372 416.02 32.6719 421.205 31.0984C428.73 28.8053 437.633 29.0811 444.23 33.7142" stroke="black" stroke-miterlimit="10" style="stroke: rgb(71, 71, 71); stroke-dashoffset: 0; stroke-dasharray: none;"></path><path id="p_84" d="M520.959 108.851C521.926 108.851 522.591 107.34 523.679 107.189C526.021 106.932 528.666 108.911 527.684 111.39C526.701 113.868 523.845 115.062 523.15 117.646C522.969 118.356 528.318 116.558 528.893 116.241C531.144 115.032 548.674 104.151 539.561 102.126C538.54 102.004 537.505 102.178 536.581 102.628C535.656 103.078 534.881 103.785 534.348 104.665C533.569 105.821 533.089 107.153 532.952 108.54C532.815 109.928 533.025 111.327 533.562 112.614C533.969 113.668 534.699 114.567 535.647 115.183C542.085 118.961 540.74 105.874 538.231 103.093C539.047 103.985 543.052 100.585 543.536 100.192C544.036 99.7158 544.627 99.3447 545.273 99.1007C545.92 98.8567 546.608 98.7447 547.298 98.7714C551.061 99.3457 548.084 105.239 549.46 107.445C552.301 111.979 559.297 105.164 561.126 102.912" stroke="#131313" stroke-miterlimit="10" style="stroke: rgb(71, 71, 71); stroke-dashoffset: 0; stroke-dasharray: none;"></path></g></svg>
