<svg width="549" height="663" viewBox="0 0 549 663" fill="none" xmlns="http://www.w3.org/2000/svg" data-svg-name="buildIndiaArt" style="touch-action: pan-y;"><feComposite class="js-watercolor-anim" in="SourceGraphic" in2="layer-2" operator="arithmetic" k1="-0.8" k2="0.8" k3="2" style="touch-action: pan-y;"></feComposite>--&gt;<g id="base" style="touch-action: pan-y;"><path id="p" d="M326.165 190.649C325.819 190.327 325.487 189.991 325.16 189.654C324.634 189.114 324.123 188.564 323.639 187.99C323.621 187.961 323.601 187.934 323.577 187.91C323.104 187.322 322.63 186.71 322.184 186.09C322.066 185.928 321.957 185.772 321.843 185.616C321.369 184.919 320.896 184.193 320.469 183.482C320.431 183.411 320.393 183.34 320.351 183.269C319.861 182.435 319.401 181.579 318.972 180.7L318.853 180.458C318.673 180.089 318.503 179.709 318.332 179.33C318.242 179.141 318.152 178.951 318.067 178.757C317.839 178.24 317.626 177.719 317.418 177.197C317.394 177.136 317.365 177.079 317.342 177.017C317.073 176.331 316.816 175.636 316.569 174.931C316.493 174.723 316.427 174.514 316.356 174.306C316.176 173.784 316.005 173.263 315.84 172.741L315.669 172.192C315.333 171.097 315.025 169.997 314.721 168.874C314.693 168.755 314.66 168.641 314.631 168.528C314.337 167.406 314.066 166.287 313.816 165.172L313.702 164.698C313.447 163.555 313.229 162.427 312.977 161.308C312.954 161.18 312.925 161.048 312.897 160.92C312.674 159.825 312.461 158.744 312.252 157.687C312.044 156.63 311.84 155.601 311.637 154.601C311.599 154.421 311.565 154.241 311.528 154.066C311.333 153.118 311.134 152.169 310.931 151.278C310.931 151.226 310.93 151.169 310.897 151.117L310.826 150.814C310.697 150.273 310.569 149.747 310.442 149.235L310.3 148.681C310.13 148.036 309.959 147.406 309.774 146.808C309.646 146.382 309.509 145.969 309.367 145.571C309.324 145.448 309.277 145.33 309.234 145.211C309.191 145.093 309.101 144.846 309.035 144.675C309.007 144.6 308.973 144.538 308.945 144.467C308.836 144.197 308.718 143.936 308.599 143.675C308.547 143.561 308.5 143.429 308.443 143.32C308.386 143.211 308.391 143.225 308.367 143.173C308.291 143.026 308.215 142.888 308.139 142.746C308.064 142.604 307.997 142.467 307.922 142.339C307.846 142.211 307.836 142.211 307.794 142.144C307.751 142.078 307.675 141.95 307.614 141.86C307.552 141.77 307.505 141.68 307.448 141.599C307.391 141.519 307.253 141.338 307.154 141.215L307.04 141.068L306.998 141.007C306.86 140.845 306.718 140.684 306.571 140.533L306.372 140.343L274.174 110.48C274.416 110.706 274.643 110.948 274.851 111.206L274.956 111.348C275.117 111.552 275.268 111.765 275.429 111.993C275.491 112.087 275.553 112.182 275.61 112.277C275.728 112.471 275.842 112.675 275.956 112.879C276.069 113.083 276.107 113.159 276.183 113.31C276.259 113.462 276.339 113.642 276.415 113.813C276.534 114.069 276.652 114.329 276.761 114.604C276.87 114.879 276.955 115.078 277.05 115.353C277.093 115.467 277.14 115.581 277.183 115.704C277.325 116.105 277.462 116.522 277.595 116.955C277.78 117.548 277.95 118.178 278.121 118.823L278.263 119.382C278.391 119.894 278.519 120.416 278.642 120.951C278.68 121.108 278.718 121.264 278.751 121.425C278.957 122.32 279.156 123.247 279.348 124.208C279.386 124.388 279.419 124.563 279.457 124.743C279.659 125.748 279.865 126.778 280.073 127.834C280.282 128.896 280.495 129.972 280.722 131.071C280.722 131.195 280.77 131.318 280.798 131.446C281.026 132.565 281.267 133.696 281.523 134.84L281.594 135.162L281.637 135.323C281.89 136.442 282.161 137.562 282.452 138.684C282.48 138.798 282.509 138.911 282.542 139.025C282.831 140.125 283.139 141.225 283.49 142.343C283.49 142.4 283.523 142.457 283.542 142.519C283.561 142.58 283.622 142.765 283.66 142.888C283.826 143.41 283.997 143.936 284.177 144.457L284.39 145.083C284.636 145.78 284.892 146.477 285.162 147.164C285.162 147.221 285.21 147.278 285.234 147.335C285.442 147.861 285.655 148.382 285.883 148.894C285.968 149.088 286.058 149.278 286.148 149.472C286.319 149.852 286.489 150.226 286.669 150.601C286.681 150.631 286.696 150.662 286.712 150.691C286.736 150.743 286.764 150.79 286.788 150.842C287.22 151.714 287.68 152.571 288.167 153.411C288.195 153.459 288.219 153.516 288.252 153.563L288.285 153.62C288.716 154.35 289.181 155.042 289.659 155.753C289.716 155.834 289.759 155.919 289.816 155.999C289.873 156.08 289.939 156.156 290 156.236C290.446 156.857 290.906 157.464 291.394 158.052C291.41 158.075 291.427 158.097 291.446 158.118C291.92 158.692 292.436 159.246 292.962 159.782C293.024 159.848 293.076 159.915 293.137 159.976C293.407 160.247 293.682 160.517 293.962 160.777L326.165 190.649Z" fill="#366BB3" style="touch-action: pan-y;"></path><path id="p_2" d="M153.594 315.494L185.788 345.356C185.101 344.721 184.414 344.058 183.722 343.389L183.068 342.745C182.594 342.271 182.078 341.768 181.585 341.271L180.931 340.621L178.888 338.55C177.898 337.535 176.908 336.53 175.932 335.54L175.486 335.066L175.335 334.919C174.899 334.478 174.467 334.056 174.036 333.629C173.799 333.397 173.562 333.155 173.325 332.928C172.676 332.298 172.037 331.681 171.402 331.094L171.373 331.065L139.18 301.203C139.819 301.8 140.473 302.426 141.132 303.065L141.852 303.776L143.141 305.056L143.738 305.663C144.721 306.655 145.706 307.657 146.695 308.668C147.374 309.36 148.055 310.051 148.737 310.74L149.069 311.076L149.391 311.394C149.865 311.868 150.382 312.384 150.874 312.868L151.528 313.508C152.215 314.195 152.907 314.854 153.594 315.494Z" fill="#366BB3" style="touch-action: pan-y;"></path><path id="p_3" d="M265.972 264.268L233.778 234.405C232.922 233.613 232.013 232.88 231.058 232.211C230.524 231.839 229.963 231.506 229.381 231.215C221.325 227.181 208.295 230.504 196.183 234.287C184.071 238.069 172.874 242.302 168.463 240.098C168.156 239.945 167.872 239.751 167.619 239.52L199.813 269.382C200.065 269.613 200.349 269.806 200.656 269.956C205.068 272.165 216.265 267.927 228.376 264.149C240.488 260.371 253.49 257.039 261.574 261.073C262.158 261.364 262.719 261.698 263.252 262.073C263.726 262.419 264.2 262.775 264.673 263.14C265.147 263.505 265.559 263.884 265.976 264.268H265.972Z" fill="#366BB3" style="touch-action: pan-y;"></path><path id="p_4" d="M229.846 376.119C227.791 374.235 225.535 372.583 223.117 371.194C222.397 370.773 221.672 370.384 220.933 370.014C220.194 369.644 219.383 369.27 218.597 368.933C218.019 368.687 217.436 368.459 216.848 368.246L216.265 368.047C215.872 367.91 215.479 367.777 215.081 367.654C214.844 367.578 214.607 367.516 214.375 367.45C214.015 367.341 213.654 367.236 213.29 367.146C213.038 367.08 212.787 367.023 212.531 366.962C212.181 366.881 211.83 366.796 211.479 366.725L210.693 366.573C210.347 366.506 209.996 366.445 209.65 366.388L208.85 366.274C208.499 366.222 208.153 366.179 207.802 366.142L206.992 366.056L205.931 365.976L205.13 365.928L204.03 365.895H203.253C202.87 365.895 202.486 365.895 202.102 365.895H201.368C200.936 365.895 200.51 365.942 200.079 365.976L199.472 366.014C198.842 366.066 198.207 366.132 197.577 366.213H197.477C196.875 366.288 196.274 366.378 195.667 366.478L195.013 366.597C194.591 366.672 194.17 366.748 193.753 366.838L192.99 367.004C192.601 367.09 192.217 367.175 191.829 367.27L191.023 367.478L189.9 367.782L189.076 368.028C188.706 368.142 188.341 368.251 187.972 368.374L187.583 368.493L187.218 368.625C186.673 368.81 186.128 369.005 185.583 369.204L184.996 369.422C184.276 369.697 183.574 369.99 182.83 370.299L182.755 370.327L182.058 370.635L180.978 371.109L180.167 371.498C179.817 371.668 179.471 371.83 179.12 372.005L178.973 372.076L178.727 372.209C177.852 372.654 176.975 373.128 176.097 373.631L175.884 373.745L175.798 373.797C174.92 374.296 174.048 374.816 173.183 375.356C173.088 375.413 172.993 375.46 172.903 375.522L172.609 375.712C171.823 376.186 171.041 376.717 170.24 377.248C169.468 377.774 168.7 378.324 167.937 378.883L167.648 379.087L167.335 379.328C166.682 379.802 166.037 380.305 165.393 380.812L165.146 381.002L165.075 381.059C164.349 381.637 163.625 382.233 162.905 382.846L162.692 383.016L162.351 383.32C161.758 383.827 161.166 384.348 160.578 384.874C160.469 384.979 160.356 385.073 160.242 385.173L160.086 385.32C159.365 385.977 158.65 386.65 157.939 387.339L157.802 387.467L157.503 387.771C156.882 388.377 156.261 388.998 155.65 389.629C155.546 389.738 155.437 389.837 155.333 389.946C155.229 390.055 155.224 390.069 155.167 390.126C154.423 390.904 153.679 391.7 152.949 392.496C152.892 392.558 152.836 392.615 152.784 392.677L152.518 392.98C151.774 393.819 151.035 394.667 150.305 395.535L150.182 395.677L150.149 395.715C149.296 396.739 148.454 397.785 147.623 398.853C147.552 398.948 147.476 399.033 147.405 399.128L147.296 399.275C146.368 400.475 145.458 401.703 144.567 402.958C144.51 403.038 144.453 403.109 144.396 403.185L144.316 403.308C143.245 404.822 142.199 406.372 141.179 407.959L141.141 408.015L140.985 408.271C140.425 409.147 139.874 410.036 139.331 410.94L138.914 411.637C138.326 412.626 137.748 413.626 137.18 414.637L137.108 414.765L136.91 415.13C136.436 415.996 135.962 416.87 135.488 417.752C135.36 418.003 135.227 418.226 135.095 418.505C134.57 419.526 134.055 420.556 133.55 421.596L133.337 422.07C132.896 423.018 132.465 423.933 132.038 424.881L131.683 425.672C131.209 426.748 130.735 427.829 130.294 428.924C130.294 428.952 130.295 428.981 130.257 429.014L130.129 429.336C129.74 430.284 129.361 431.266 128.987 432.242L128.693 433.128C128.282 434.231 127.881 435.348 127.489 436.48V436.522C127.11 437.635 126.744 438.758 126.39 439.892L126.11 440.798C125.795 441.831 125.49 442.872 125.196 443.922C125.167 444.026 125.134 444.125 125.106 444.23C125.104 444.252 125.104 444.274 125.106 444.296C124.632 446.078 124.158 447.889 123.727 449.714L123.698 449.832C123.263 451.694 122.864 453.579 122.504 455.487C122.384 456.128 122.225 456.761 122.031 457.383C121.917 457.748 121.794 458.099 121.661 458.44C121.528 458.782 121.381 459.085 121.23 459.388C121.135 459.578 121.054 459.772 120.955 459.952C120.917 460.024 120.879 460.09 120.836 460.156C120.628 460.527 120.401 460.886 120.154 461.232L120.097 461.313C119.828 461.681 119.538 462.034 119.23 462.37L119.192 462.413C118.879 462.749 118.545 463.065 118.192 463.361C117.836 463.663 117.465 463.946 117.079 464.209H117.046C116.671 464.46 116.278 464.683 115.875 464.911L115.714 464.996C115.306 465.213 114.887 465.409 114.458 465.584L114.345 465.626C113.97 465.778 113.582 465.916 113.188 466.043C112.566 466.248 111.933 466.42 111.293 466.56L110.871 466.641C110.326 466.75 109.763 466.84 109.189 466.911L108.573 466.987C107.929 467.053 107.265 467.105 106.588 467.129C106.507 467.129 106.431 467.129 106.351 467.129C105.593 467.157 104.806 467.129 104.01 467.129L103.356 467.101C102.724 467.072 102.085 467.029 101.437 466.973L100.793 466.911C99.9554 466.829 99.1056 466.723 98.2432 466.593L97.812 466.522C97.0681 466.408 96.3147 466.276 95.5518 466.129L94.7698 465.972C94.0117 465.821 93.2393 465.65 92.4622 465.465L91.9884 465.356C91.0644 465.133 90.1308 464.882 89.1878 464.626C88.9414 464.56 88.7141 464.484 88.4487 464.413C87.7095 464.201 86.9656 463.978 86.2169 463.745L85.4208 463.498C84.473 463.185 83.4875 462.868 82.5161 462.55L82.208 462.436C81.3235 462.12 80.4327 461.793 79.5356 461.455L78.6826 461.128C77.8818 460.815 77.0763 460.498 76.2708 460.18L75.6453 459.924C74.6549 459.516 73.6645 459.09 72.6695 458.654L71.9539 458.331C71.1673 457.977 70.3776 457.617 69.5847 457.251L68.7317 456.848C67.7366 456.377 66.7415 455.903 65.7464 455.426C53.1752 449.136 41.1062 441.106 32.6953 433.29L64.8889 463.152C73.3092 470.964 85.3734 478.998 97.94 485.284C98.9351 485.758 99.9301 486.26 100.925 486.734L101.773 487.132C102.566 487.502 103.356 487.862 104.143 488.213L104.858 488.535C105.853 488.971 106.845 489.396 107.834 489.81L108.464 490.066C109.27 490.393 110.07 490.716 110.871 491.014L111.724 491.346C112.62 491.683 113.511 492.014 114.397 492.327L114.705 492.436C115.652 492.778 116.648 493.1 117.61 493.384L118.406 493.636C119.154 493.866 119.898 494.089 120.637 494.304L121.377 494.512C122.324 494.778 123.258 495.023 124.177 495.247L124.651 495.356C125.428 495.536 126.196 495.707 126.954 495.863L127.74 496.02C128.499 496.162 129.247 496.295 129.986 496.413L130.427 496.484C131.29 496.611 132.139 496.717 132.977 496.802L133.621 496.859C134.268 496.916 134.908 496.958 135.54 496.987L136.194 497.02C136.99 497.044 137.777 497.048 138.535 497.02H138.776C139.454 496.992 140.113 496.944 140.757 496.873C140.966 496.873 141.169 496.826 141.373 496.802C141.947 496.726 142.51 496.636 143.055 496.527C143.193 496.499 143.34 496.48 143.477 496.446C144.117 496.308 144.75 496.137 145.372 495.934L145.515 495.897C145.861 495.778 146.197 495.65 146.529 495.517L146.642 495.475C146.969 495.342 147.282 495.2 147.59 495.048L147.874 494.896L148.036 494.811L148.249 494.697C148.405 494.612 148.561 494.517 148.723 494.422L149.196 494.133H149.23H149.263L149.637 493.873C149.77 493.773 149.902 493.673 150.03 493.569C150.158 493.465 150.248 493.399 150.353 493.308L150.376 493.285C150.462 493.214 150.552 493.138 150.632 493.057C150.713 492.977 150.836 492.872 150.935 492.778L151.225 492.488L151.371 492.327L151.409 492.285L151.504 492.19C151.613 492.067 151.717 491.943 151.822 491.815C151.926 491.687 152.044 491.545 152.153 491.403L152.276 491.228L152.333 491.147L152.466 490.972C152.565 490.825 152.665 490.673 152.76 490.498C152.855 490.322 152.93 490.199 153.02 490.052L153.134 489.848C153.163 489.801 153.191 489.758 153.215 489.711C153.286 489.578 153.338 489.422 153.409 489.284C153.561 488.971 153.708 488.658 153.84 488.336C153.864 488.275 153.897 488.218 153.921 488.156C154.006 487.928 154.091 487.682 154.167 487.464C154.167 487.407 154.191 487.341 154.21 487.284C154.405 486.662 154.563 486.029 154.684 485.388C155.044 483.492 155.442 481.605 155.878 479.728L155.906 479.61C156.333 477.786 156.792 475.98 157.285 474.192C157.318 474.068 157.356 473.945 157.394 473.822C157.688 472.773 157.993 471.732 158.309 470.698C158.403 470.395 158.493 470.092 158.588 469.788C158.944 468.66 159.304 467.541 159.683 466.432V466.375C160.071 465.247 160.472 464.132 160.886 463.029C160.995 462.735 161.104 462.441 161.218 462.147C161.588 461.174 161.967 460.21 162.355 459.256L162.521 458.834C162.973 457.744 163.436 456.661 163.91 455.587C164.028 455.321 164.146 455.051 164.27 454.786C164.693 453.838 165.124 452.906 165.563 451.989L165.776 451.515C166.284 450.477 166.8 449.444 167.321 448.425C167.454 448.173 167.587 447.922 167.715 447.671C168.179 446.789 168.653 445.917 169.136 445.054C169.231 444.889 169.316 444.723 169.406 444.58C169.975 443.566 170.553 442.571 171.141 441.58L171.562 440.878C172.102 439.978 172.652 439.088 173.211 438.21C173.278 438.11 173.339 438.001 173.406 437.902C174.426 436.322 175.471 434.77 176.542 433.247L176.794 432.901C177.689 431.645 178.594 430.412 179.523 429.213L179.85 428.796C180.681 427.731 181.523 426.685 182.376 425.658L182.532 425.473C183.262 424.606 184.001 423.757 184.745 422.918C184.892 422.762 185.034 422.601 185.176 422.444C185.906 421.634 186.65 420.837 187.394 420.074L187.867 419.6C188.479 418.97 189.099 418.349 189.72 417.737L190.156 417.306C190.867 416.619 191.578 415.95 192.303 415.291L192.777 414.817C193.364 414.293 193.953 413.776 194.544 413.267L195.098 412.793C195.819 412.187 196.544 411.591 197.273 411.006L197.581 410.769C198.226 410.257 198.875 409.764 199.524 409.281L200.131 408.831C200.894 408.276 201.661 407.726 202.429 407.2C203.206 406.669 203.988 406.162 204.798 405.669L205.372 405.309C206.237 404.768 207.109 404.249 207.987 403.749L208.286 403.588C209.164 403.095 210.041 402.621 210.916 402.166L211.314 401.962L212.356 401.46C212.626 401.327 212.896 401.194 213.166 401.071L214.247 400.597L215.019 400.256C215.739 399.948 216.464 399.659 217.189 399.379L217.772 399.166C218.319 398.963 218.864 398.769 219.407 398.583L220.16 398.331C220.53 398.213 220.895 398.099 221.265 397.99L222.094 397.744L223.212 397.44L224.018 397.232L225.179 396.961L225.937 396.796C226.363 396.71 226.785 396.634 227.207 396.559L227.856 396.435C228.462 396.336 229.064 396.251 229.671 396.17H229.765C230.4 396.094 231.035 396.028 231.661 395.976L232.267 395.933C232.699 395.904 233.125 395.876 233.556 395.857H234.291C234.674 395.857 235.058 395.857 235.442 395.857C235.703 395.857 235.963 395.857 236.219 395.857C236.589 395.857 236.954 395.857 237.319 395.89C237.584 395.89 237.849 395.919 238.119 395.938C238.475 395.961 238.825 395.985 239.181 396.018L239.991 396.099L241.038 396.232L241.839 396.35L242.882 396.53L243.668 396.682C244.019 396.758 244.37 396.838 244.72 396.924C244.976 396.98 245.227 397.037 245.478 397.104C245.843 397.199 246.203 397.303 246.563 397.407L247.269 397.611C247.667 397.734 248.061 397.872 248.454 398.009C248.648 398.075 248.843 398.137 249.037 398.208C249.624 398.42 250.207 398.647 250.785 398.891C251.572 399.229 252.351 399.591 253.122 399.976C253.861 400.341 254.586 400.735 255.306 401.152C257.723 402.543 259.981 404.195 262.039 406.077L229.846 376.119Z" fill="#366BB3" style="touch-action: pan-y;"></path><path id="p_5" d="M510.006 119.577C510.034 119.103 510.058 118.629 510.072 118.126C510.072 118.008 510.072 117.885 510.072 117.761C510.072 117.638 510.072 117.477 510.072 117.33C510.072 117.033 510.072 116.734 510.072 116.434C510.072 116.145 510.072 115.861 510.072 115.576C510.072 115.292 510.049 114.993 510.034 114.704C510.034 114.562 510.034 114.41 510.034 114.268C510.034 114.126 510.035 114.116 510.011 114.04C509.944 113.178 509.859 112.329 509.741 111.504V111.353C509.741 111.263 509.703 111.177 509.689 111.087C509.575 110.338 509.442 109.599 509.281 108.883C509.281 108.85 509.281 108.817 509.281 108.784C509.283 108.774 509.283 108.764 509.281 108.755C509.125 108.054 508.935 107.371 508.731 106.698C508.708 106.617 508.693 106.537 508.67 106.456C508.646 106.376 508.613 106.309 508.589 106.233C508.386 105.589 508.167 104.954 507.926 104.337V104.304C507.911 104.263 507.894 104.224 507.874 104.186C507.646 103.607 507.4 103.053 507.134 102.503C507.096 102.427 507.068 102.342 507.03 102.266C506.992 102.19 506.964 102.152 506.935 102.095C506.646 101.512 506.343 100.939 506.021 100.389C506.006 100.366 505.994 100.342 505.983 100.318C505.945 100.261 505.907 100.204 505.874 100.147C505.561 99.6305 505.234 99.128 504.893 98.6351C504.85 98.5687 504.813 98.4976 504.765 98.436L504.689 98.3364C504.301 97.7913 503.893 97.2604 503.467 96.7485C503.429 96.7011 503.396 96.6489 503.358 96.6063C503.32 96.5636 503.258 96.502 503.211 96.4451C502.737 95.9 502.263 95.3739 501.766 94.8667L501.718 94.8098C501.444 94.5349 501.159 94.2647 500.875 93.9992L468.681 64.1367C468.985 64.4211 469.283 64.7103 469.572 65.0042C470.074 65.5114 470.553 66.0422 471.018 66.5826L471.273 66.886C471.695 67.4026 472.107 67.9288 472.496 68.4787C472.567 68.5735 472.633 68.6777 472.7 68.7773C473.041 69.2513 473.368 69.768 473.676 70.2846L473.827 70.5264C474.15 71.081 474.453 71.6498 474.742 72.2328L474.941 72.6452C475.2 73.1887 475.446 73.748 475.68 74.3232C475.68 74.3753 475.723 74.4227 475.747 74.4748C475.988 75.0911 476.22 75.7262 476.41 76.3709C476.462 76.5226 476.509 76.679 476.552 76.8449C476.756 77.518 476.945 78.2006 477.102 78.9068L477.13 79.0348C477.291 79.7505 477.424 80.4853 477.538 81.2342C477.538 81.3764 477.585 81.5139 477.604 81.6561C477.723 82.4809 477.808 83.3246 477.869 84.1873C477.869 84.41 477.903 84.6328 477.917 84.8556C477.931 85.0784 477.945 85.4339 477.955 85.7231C477.964 86.0122 477.955 86.2966 477.955 86.5857C477.955 86.8749 477.955 87.1783 477.955 87.4769C477.955 87.7755 477.955 88.0078 477.955 88.278C477.955 88.752 477.917 89.226 477.888 89.7C477.888 89.9228 477.865 90.1408 477.85 90.3636C477.798 91.0557 477.737 91.7572 477.656 92.4682C477.654 92.4823 477.654 92.4967 477.656 92.5108C477.576 93.1934 477.481 93.8808 477.372 94.5775C477.339 94.8003 477.291 95.0516 477.253 95.2601C477.177 95.7341 477.092 96.2081 476.997 96.6821C476.945 96.9571 476.884 97.2415 476.827 97.5211C476.732 97.9667 476.637 98.4123 476.533 98.8673C476.467 99.1659 476.391 99.474 476.315 99.7774C476.206 100.223 476.093 100.664 475.974 101.114C475.889 101.436 475.799 101.759 475.709 102.062C475.59 102.493 475.462 102.93 475.329 103.366C475.23 103.697 475.131 104.029 475.026 104.366C474.884 104.811 474.737 105.262 474.586 105.712C474.472 106.049 474.363 106.38 474.245 106.717C474.083 107.191 473.908 107.665 473.733 108.139C473.614 108.466 473.496 108.793 473.372 109.125C473.178 109.637 472.97 110.158 472.761 110.68C472.643 110.973 472.534 111.263 472.411 111.561C471.965 112.647 471.487 113.751 470.989 114.879C470.875 115.135 470.757 115.396 470.638 115.652C470.112 116.804 469.563 117.96 468.975 119.145C468.435 120.24 467.871 121.307 467.298 122.359C467.104 122.715 466.909 123.061 466.715 123.407C466.407 123.966 466.089 124.521 465.767 125.066C465.554 125.431 465.336 125.791 465.123 126.151C464.796 126.692 464.464 127.227 464.132 127.753L463.55 128.678C462.807 129.834 462.046 130.966 461.266 132.072C461.114 132.29 460.958 132.503 460.792 132.716C460.081 133.712 459.359 134.687 458.626 135.641C458.555 135.731 458.489 135.826 458.418 135.921C457.702 136.84 456.996 137.736 456.238 138.618C456.049 138.85 455.854 139.092 455.66 139.305C455.044 140.035 454.419 140.727 453.793 141.457C453.641 141.623 453.495 141.798 453.319 141.964C452.556 142.808 451.779 143.637 450.997 144.453L450.443 145.022C449.786 145.701 449.122 146.366 448.453 147.017L447.946 147.491C447.045 148.363 446.136 149.212 445.221 150.046L444.671 150.544C443.724 151.392 442.776 152.226 441.828 153.042L441.549 153.274C440.307 154.326 439.062 155.347 437.815 156.336L437.194 156.81L435.602 158.047L434.801 158.678C434.251 159.095 433.699 159.509 433.143 159.92L432.579 160.337C431.536 161.098 430.497 161.844 429.461 162.574L428.987 162.925C427.973 163.636 426.962 164.336 425.954 165.025L425.315 165.456L423.708 166.541L423.083 166.959L420.908 168.381L420.699 168.513C420.026 168.959 419.349 169.4 418.681 169.836L417.989 170.31L416.368 171.362L414.425 172.623L413.838 173.007L411.805 174.334L411.331 174.647C410.824 174.984 410.322 175.311 409.829 175.642L409.18 176.074L407.796 177.022L407.37 177.311L407.232 177.406C406.566 177.861 405.909 178.316 405.261 178.771L404.854 179.055C404.332 179.425 403.816 179.795 403.309 180.164L402.996 180.392C402.939 180.43 402.887 180.473 402.835 180.515C402.063 181.084 401.309 181.653 400.584 182.222C400.523 182.269 400.456 182.312 400.399 182.359L400.158 182.558C399.641 182.966 399.134 183.378 398.646 183.786L398.438 183.957L398.371 184.013C397.898 184.416 397.424 184.824 396.978 185.232L396.926 185.274L396.215 185.938C396.087 186.061 395.95 186.18 395.827 186.303L395.798 186.327C395.433 186.677 395.078 187.033 394.732 187.388C394.732 187.388 394.732 187.388 394.709 187.388C394.382 187.725 394.064 188.066 393.761 188.407L393.723 188.45C393.657 188.521 393.6 188.592 393.538 188.663C393.344 188.881 393.15 189.104 392.96 189.327L392.823 189.498L392.538 189.853C392.429 189.986 392.32 190.119 392.216 190.256C392.112 190.394 392.06 190.465 391.979 190.569C391.899 190.673 391.79 190.82 391.7 190.948L391.515 191.195C391.42 191.332 391.33 191.47 391.24 191.612C391.15 191.754 391.008 191.944 390.899 192.114L390.78 192.294C390.728 192.375 390.69 192.456 390.638 192.536C390.392 192.934 390.164 193.337 389.946 193.745C389.899 193.83 389.842 193.911 389.799 193.996C389.757 194.081 389.757 194.091 389.738 194.138C389.477 194.65 389.236 195.167 389.022 195.693L388.994 195.75L388.852 196.124C388.79 196.286 388.738 196.451 388.681 196.598C388.624 196.745 388.591 196.854 388.553 196.978C388.439 197.333 388.335 197.689 388.245 198.049C388.23 198.089 388.218 198.13 388.207 198.172C388.108 198.575 388.027 198.983 387.956 199.39C387.956 199.514 387.918 199.637 387.899 199.76C387.871 199.959 387.833 200.158 387.809 200.357C387.809 200.428 387.809 200.499 387.809 200.571C387.771 200.94 387.748 201.315 387.729 201.689C387.729 201.808 387.705 201.921 387.705 202.04C387.703 202.072 387.703 202.103 387.705 202.135C387.705 202.661 387.705 203.197 387.738 203.742V203.78C387.738 203.87 387.762 203.96 387.767 204.05C387.798 204.492 387.846 204.938 387.909 205.386C387.909 205.443 387.909 205.5 387.909 205.557C387.932 205.695 387.966 205.837 387.989 205.974C388.049 206.338 388.12 206.707 388.203 207.083C388.203 207.178 388.236 207.278 388.259 207.373C388.283 207.467 388.326 207.619 388.359 207.742C388.449 208.107 388.548 208.482 388.657 208.856C388.7 208.989 388.729 209.122 388.766 209.259C388.804 209.397 388.856 209.52 388.899 209.653C388.942 209.785 388.994 209.942 389.046 210.089C389.188 210.496 389.34 210.909 389.52 211.331L389.619 211.591C389.619 211.62 389.619 211.648 389.653 211.677C389.847 212.151 390.055 212.625 390.278 213.137L390.472 213.544C390.591 213.795 390.7 214.018 390.823 214.293C390.946 214.568 391.065 214.767 391.188 215.018C391.562 215.744 391.951 216.44 392.344 217.113C392.391 217.199 392.439 217.294 392.486 217.374C392.534 217.455 392.652 217.635 392.733 217.772L393.159 218.464C393.315 218.716 393.477 218.938 393.633 219.204C393.789 219.469 393.927 219.649 394.078 219.863C394.145 219.962 394.211 220.071 394.282 220.171L394.585 220.578C394.723 220.773 394.865 220.967 395.007 221.152C395.149 221.337 395.362 221.626 395.542 221.839L395.969 222.375L396.125 222.574L396.538 223.048L396.95 223.522L397.561 224.176C397.694 224.314 397.822 224.456 397.954 224.589L398.035 224.674C398.334 224.972 398.637 225.262 398.94 225.546L431.133 255.409C430.797 255.1 430.47 254.778 430.143 254.461L429.745 254.043C429.54 253.829 429.336 253.61 429.134 253.389L428.721 252.915L428.153 252.247L427.722 251.711C427.546 251.484 427.366 251.237 427.191 251.024C427.016 250.811 426.907 250.64 426.769 250.446C426.632 250.251 426.428 249.972 426.262 249.735C426.096 249.498 425.964 249.299 425.817 249.076C425.67 248.853 425.499 248.602 425.343 248.336C425.187 248.071 425.054 247.862 424.912 247.64L424.528 246.985C424.135 246.308 423.746 245.616 423.372 244.886C423.116 244.388 422.898 243.904 422.656 243.421C422.595 243.279 422.524 243.141 422.462 243.004C422.225 242.482 421.988 241.97 421.803 241.463L421.704 241.198C421.543 240.781 421.385 240.368 421.23 239.961L421.083 239.52C420.998 239.25 420.922 238.989 420.846 238.728C420.732 238.349 420.633 237.979 420.543 237.61C420.486 237.392 420.434 237.169 420.387 236.951C420.306 236.581 420.235 236.211 420.173 235.846C420.14 235.647 420.102 235.453 420.074 235.258C420.012 234.784 419.965 234.358 419.932 233.917C419.932 233.817 419.908 233.713 419.903 233.609C419.87 233.069 419.861 232.533 419.87 232.007C419.87 231.855 419.87 231.713 419.894 231.566C419.894 231.187 419.936 230.808 419.974 230.438C420.003 230.168 420.036 229.897 420.079 229.632C420.079 229.509 420.112 229.385 420.135 229.262C420.206 228.85 420.287 228.442 420.387 228.044C420.402 228.001 420.415 227.956 420.424 227.911C420.515 227.556 420.619 227.2 420.732 226.85C420.77 226.722 420.818 226.594 420.86 226.466C420.969 226.158 421.078 225.849 421.201 225.546C421.415 225.02 421.675 224.503 421.917 223.991C421.983 223.859 422.054 223.731 422.126 223.603C422.343 223.195 422.571 222.792 422.817 222.394C422.907 222.252 422.988 222.109 423.083 221.967C423.177 221.825 423.305 221.631 423.419 221.465C423.533 221.299 423.718 221.024 423.893 220.806C423.983 220.678 424.078 220.55 424.172 220.427C424.353 220.185 424.542 219.953 424.732 219.706L425.016 219.351C425.248 219.071 425.49 218.796 425.731 218.521C425.793 218.45 425.85 218.379 425.916 218.308C426.229 217.957 426.551 217.611 426.864 217.265L426.907 217.218C427.262 216.853 427.627 216.492 428.001 216.132L428.39 215.772C428.641 215.535 428.892 215.298 429.153 215.061C429.627 214.653 430.072 214.246 430.55 213.843L430.816 213.625C431.29 213.212 431.816 212.8 432.332 212.388L432.759 212.051C433.484 211.482 434.237 210.913 435.01 210.345L435.483 209.999C435.995 209.629 436.516 209.254 437.047 208.88L437.431 208.605C438.085 208.15 438.748 207.692 439.421 207.23L439.952 206.87L441.373 205.922L442.004 205.505L443.534 204.491L444.008 204.192L446.036 202.865L446.657 202.462L448.585 201.21L450.111 200.215L450.926 199.689L452.897 198.395L453.115 198.253C453.832 197.782 454.553 197.308 455.276 196.831C455.499 196.688 455.717 196.537 455.935 196.39C456.461 196.039 456.987 195.688 457.513 195.328L457.939 195.039L458.171 194.882C459.176 194.2 460.184 193.503 461.195 192.792L461.692 192.441C462.725 191.711 463.761 190.966 464.801 190.204L464.933 190.109L465.374 189.777C465.93 189.37 466.481 188.957 467.028 188.54L467.781 187.967C468.312 187.559 468.842 187.151 469.373 186.734L469.847 186.36L469.985 186.246C471.248 185.257 472.493 184.238 473.718 183.189L473.903 183.037L473.998 182.952C474.946 182.141 475.894 181.307 476.841 180.454L477.144 180.188L477.391 179.956C478.307 179.128 479.215 178.276 480.115 177.401L480.281 177.249L480.623 176.903C481.291 176.254 481.954 175.586 482.613 174.912C482.731 174.789 482.859 174.671 482.977 174.543L483.167 174.344C483.947 173.528 484.721 172.697 485.489 171.85C485.532 171.803 485.579 171.76 485.622 171.708C485.664 171.656 485.835 171.462 485.939 171.343C486.571 170.635 487.193 169.92 487.806 169.196L488.161 168.788C488.237 168.698 488.308 168.599 488.384 168.509C489.119 167.622 489.848 166.726 490.564 165.807L490.621 165.74L490.772 165.527C491.508 164.579 492.23 163.606 492.938 162.607L493.236 162.209C493.293 162.128 493.345 162.038 493.402 161.958C494.179 160.852 494.941 159.722 495.686 158.569L495.871 158.294C496.008 158.08 496.136 157.858 496.269 157.644C496.601 157.113 496.932 156.583 497.259 156.042C497.477 155.682 497.691 155.317 497.904 154.952C498.221 154.407 498.539 153.852 498.851 153.298C498.984 153.065 499.117 152.824 499.245 152.615C499.306 152.497 499.368 152.369 499.434 152.25C500.008 151.193 500.572 150.127 501.112 149.032C501.704 147.851 502.249 146.69 502.775 145.543C502.894 145.282 503.012 145.026 503.126 144.77C503.628 143.647 504.107 142.542 504.547 141.452C504.567 141.412 504.585 141.371 504.599 141.329C504.703 141.073 504.798 140.827 504.898 140.575C505.106 140.054 505.315 139.533 505.509 139.021L505.874 138.03C506.045 137.556 506.22 137.082 506.386 136.608C506.499 136.271 506.613 135.935 506.722 135.603C506.874 135.129 507.021 134.702 507.163 134.257C507.267 133.92 507.367 133.584 507.471 133.252C507.599 132.816 507.727 132.384 507.845 131.953C507.893 131.782 507.95 131.607 507.997 131.436C508.044 131.266 508.073 131.133 508.111 130.962C508.229 130.517 508.343 130.071 508.452 129.63C508.528 129.327 508.603 129.019 508.67 128.716C508.774 128.242 508.869 127.82 508.963 127.374C509.02 127.09 509.082 126.81 509.134 126.53C509.229 126.056 509.309 125.582 509.39 125.108C509.428 124.881 509.475 124.634 509.508 124.421C509.619 123.726 509.714 123.039 509.793 122.359C509.79 122.345 509.79 122.331 509.793 122.316C509.873 121.605 509.935 120.894 509.987 120.217C509.987 120.018 509.996 119.809 510.006 119.577Z" fill="#366BB3" style="touch-action: pan-y;"></path><path id="p_6" d="M402.967 354.324L370.774 324.462C369.183 322.972 367.386 321.719 365.438 320.741C365.021 320.532 364.6 320.338 364.178 320.158L363.751 319.997C363.467 319.883 363.178 319.765 362.889 319.665C362.714 319.603 362.534 319.551 362.358 319.494C362.098 319.409 361.842 319.324 361.581 319.248L361.003 319.101C360.752 319.035 360.501 318.968 360.245 318.911L359.638 318.793C359.392 318.745 359.141 318.693 358.89 318.655L358.264 318.57C358.013 318.537 357.762 318.499 357.511 318.475C357.26 318.452 357.084 318.437 356.871 318.423C356.658 318.409 356.369 318.38 356.113 318.366H355.459C355.208 318.366 354.957 318.366 354.701 318.366H354.033L353.275 318.39L352.592 318.437L351.829 318.499L351.142 318.579L350.37 318.674L349.673 318.788C349.417 318.831 349.161 318.869 348.906 318.921L348.2 319.058L347.427 319.224L346.716 319.395L345.939 319.594L345.224 319.798L344.447 320.025L343.726 320.257L343.252 320.4L342.992 320.495L341.698 320.969L341.225 321.139C340.642 321.367 340.063 321.613 339.481 321.85L339.414 321.879L339.306 321.931C338.315 322.362 337.325 322.822 336.334 323.32L336.259 323.353L336.079 323.448C335.194 323.899 334.311 324.373 333.43 324.87H333.406L333.33 324.912C332.529 325.386 331.733 325.86 330.937 326.334L330.733 326.458L330.634 326.524C329.885 326.992 329.141 327.478 328.402 327.984C328.326 328.036 328.251 328.079 328.179 328.131C328.108 328.183 328.032 328.235 327.957 328.287C327.232 328.761 326.511 329.292 325.796 329.823L325.696 329.894C325.621 329.946 325.55 330.003 325.478 330.06C324.796 330.566 324.118 331.084 323.446 331.615L323.261 331.757L323.19 331.814C322.479 332.383 321.774 332.963 321.076 333.553L320.854 333.734L320.626 333.933C320.015 334.454 319.413 334.98 318.811 335.521L318.409 335.881L317.423 336.829C317.03 337.194 316.636 337.559 316.253 337.929L316.058 338.113C315.75 338.407 315.461 338.715 315.158 339.014C314.75 339.422 314.338 339.829 313.935 340.242L313.722 340.455C313.452 340.735 313.196 341.024 312.931 341.303C312.504 341.777 312.083 342.204 311.666 342.664L311.415 342.934C311.182 343.195 310.941 343.46 310.732 343.721C310.296 344.195 309.865 344.702 309.443 345.2L309.126 345.57C308.932 345.797 308.752 346.044 308.562 346.266C308.12 346.8 307.685 347.339 307.259 347.883C307.126 348.053 306.984 348.219 306.851 348.39C306.719 348.561 306.577 348.764 306.434 348.949C305.961 349.565 305.487 350.186 305.046 350.812C304.89 351.03 304.724 351.239 304.572 351.457L304.34 351.798C303.639 352.793 302.956 353.789 302.307 354.794C302.295 354.817 302.28 354.839 302.264 354.86V354.884C301.658 355.832 301.089 356.78 300.549 357.728C300.538 357.753 300.526 357.776 300.511 357.799C300.393 358.022 300.288 358.245 300.17 358.463C299.772 359.207 299.383 359.951 299.028 360.695C298.857 361.051 298.706 361.411 298.554 361.766C298.336 362.24 298.109 362.714 297.91 363.188C297.853 363.321 297.81 363.454 297.758 363.587C297.569 364.061 297.398 364.535 297.223 365.009C297.047 365.483 296.82 366.089 296.645 366.63C296.469 367.17 296.346 367.578 296.204 368.052C296.095 368.421 295.962 368.791 295.863 369.161C295.801 369.398 295.744 369.635 295.683 369.877L295.555 370.384C295.337 371.278 295.144 372.174 294.977 373.072C294.953 373.223 294.929 373.375 294.901 373.522C294.744 374.432 294.602 375.337 294.498 376.238V376.285C294.38 377.323 294.294 378.361 294.247 379.39C294.247 379.788 294.218 380.186 294.209 380.585C294.209 380.75 294.209 380.912 294.209 381.059C294.209 381.333 294.209 381.608 294.209 381.883C294.209 382.272 294.209 382.661 294.237 383.045C294.237 383.315 294.261 383.58 294.275 383.846C294.275 383.974 294.275 384.106 294.275 384.234C294.275 384.538 294.327 384.841 294.356 385.145C294.356 385.329 294.384 385.519 294.403 385.704C294.465 386.311 294.536 386.917 294.626 387.515C294.759 388.42 294.929 389.302 295.1 390.178C295.123 390.287 295.133 390.396 295.157 390.501C295.18 390.605 295.218 390.709 295.242 390.818C295.436 391.643 295.65 392.454 295.896 393.255C295.894 393.272 295.894 393.29 295.896 393.307C296.138 394.099 296.417 394.876 296.716 395.644C296.749 395.734 296.777 395.833 296.81 395.923C296.844 396.014 296.915 396.146 296.962 396.26C297.208 396.87 297.474 397.472 297.758 398.066C297.806 398.175 297.848 398.289 297.9 398.393L297.962 398.507C298.306 399.208 298.674 399.894 299.066 400.564C299.094 400.616 299.118 400.668 299.146 400.716C299.175 400.763 299.293 400.934 299.364 401.047C299.68 401.563 300.007 402.07 300.345 402.569C300.416 402.678 300.478 402.787 300.554 402.896C300.63 403.005 300.668 403.038 300.724 403.114C301.151 403.711 301.596 404.299 302.065 404.863C302.065 404.863 302.099 404.911 302.118 404.93C302.591 405.513 303.132 406.077 303.662 406.622C303.724 406.683 303.776 406.75 303.838 406.811C304.117 407.096 304.406 407.371 304.695 407.641L336.889 437.503C336.533 437.172 336.197 436.83 335.856 436.48C335.325 435.934 334.804 435.375 334.311 434.787L334.249 434.707C333.782 434.141 333.335 433.56 332.909 432.962L332.529 432.417C332.188 431.921 331.861 431.414 331.549 430.896C331.449 430.735 331.349 430.573 331.255 430.422C330.861 429.749 330.492 429.066 330.146 428.36C330.075 428.218 330.008 428.066 329.942 427.924C329.658 427.331 329.397 426.729 329.146 426.118C329.061 425.914 328.98 425.705 328.9 425.497C328.601 424.734 328.321 423.956 328.08 423.16C328.077 423.138 328.077 423.116 328.08 423.094C327.833 422.297 327.606 421.482 327.426 420.662L327.284 420.022C327.09 419.145 326.919 418.259 326.786 417.358C326.696 416.751 326.62 416.14 326.559 415.528C326.559 415.344 326.526 415.154 326.512 414.969C326.474 414.538 326.44 414.106 326.412 413.67C326.412 413.405 326.388 413.135 326.379 412.869C326.379 412.481 326.35 412.092 326.346 411.703C326.346 411.433 326.346 411.158 326.346 410.883C326.346 410.324 326.346 409.76 326.384 409.196C326.431 408.166 326.515 407.129 326.635 406.086C326.739 405.171 326.876 404.252 327.037 403.327C327.066 403.176 327.09 403.024 327.118 402.877C327.279 401.981 327.473 401.081 327.691 400.185L327.819 399.682C327.976 399.071 328.16 398.464 328.341 397.853C328.483 397.379 328.62 396.905 328.781 396.431C328.942 395.957 329.16 395.345 329.359 394.805C329.558 394.264 329.705 393.857 329.895 393.383C330.141 392.767 330.416 392.15 330.691 391.539C330.852 391.183 330.999 390.828 331.165 390.472C331.52 389.728 331.904 388.984 332.302 388.245C332.42 388.022 332.529 387.799 332.653 387.576C333.196 386.59 333.779 385.611 334.401 384.637L334.463 384.552C335.107 383.547 335.789 382.547 336.491 381.551L337.197 380.57C337.671 379.945 338.111 379.324 338.585 378.707C338.854 378.347 339.128 377.992 339.41 377.641C339.836 377.096 340.272 376.56 340.713 376.02C341.007 375.664 341.295 375.309 341.594 374.958C342.016 374.484 342.452 373.967 342.883 373.474C343.196 373.124 343.499 372.768 343.831 372.417C344.248 371.943 344.669 371.512 345.096 371.062C345.432 370.706 345.759 370.351 346.1 370C346.442 369.649 346.916 369.18 347.323 368.767C347.731 368.355 348.048 368.042 348.418 367.687C348.787 367.331 349.2 366.947 349.593 366.582C349.986 366.217 350.507 365.715 350.976 365.293C351.578 364.757 352.18 364.227 352.791 363.705L353.241 363.326C353.938 362.738 354.663 362.155 355.355 361.591L355.611 361.387C356.283 360.861 356.961 360.34 357.643 359.832L357.961 359.595C358.676 359.069 359.383 358.557 360.127 358.06L360.562 357.761C361.306 357.259 362.05 356.766 362.799 356.296L363.102 356.111C363.898 355.619 364.688 355.145 365.471 354.689L365.566 354.637C366.452 354.135 367.334 353.689 368.22 353.215L368.476 353.083C369.468 352.59 370.46 352.127 371.452 351.694L371.617 351.618C372.2 351.367 372.788 351.144 373.366 350.907L373.84 350.736C374.276 350.575 374.707 350.414 375.143 350.262C375.384 350.177 375.617 350.096 375.863 350.021L376.574 349.793L377.36 349.561L378.071 349.362L378.853 349.163C379.085 349.106 379.327 349.044 379.559 348.992C379.791 348.94 380.076 348.878 380.336 348.826C380.597 348.774 380.81 348.726 381.038 348.684L381.81 348.551L382.502 348.442L383.274 348.342L383.961 348.267L384.724 348.205C384.951 348.205 385.198 348.167 385.406 348.158C385.615 348.148 385.909 348.158 386.165 348.134H386.833C387.089 348.134 387.34 348.134 387.591 348.134H388.245C388.501 348.134 388.752 348.167 388.998 348.186L389.643 348.238L390.391 348.333C390.6 348.361 390.813 348.385 391.021 348.418C391.23 348.452 391.524 348.513 391.77 348.561C392.017 348.608 392.178 348.632 392.377 348.679C392.576 348.726 392.888 348.802 393.144 348.869C393.4 348.935 393.523 348.959 393.708 349.011C393.978 349.087 394.244 349.177 394.504 349.262C394.68 349.319 394.85 349.366 395.021 349.428C395.315 349.532 395.604 349.646 395.893 349.765L396.31 349.926C396.731 350.106 397.153 350.3 397.57 350.504C398.524 350.984 399.442 351.53 400.318 352.139C401.229 352.772 402.094 353.469 402.906 354.225L402.967 354.324Z" fill="#366BB3" style="touch-action: pan-y;"></path><path id="p_7" d="M511.725 279.981C511.772 279.213 511.805 278.45 511.824 277.687C511.824 277.64 511.824 277.597 511.824 277.549C511.824 277.27 511.824 276.995 511.824 276.715C511.824 276.436 511.824 276.056 511.824 275.729C511.824 275.402 511.801 275.07 511.787 274.743C511.772 274.416 511.763 274.089 511.744 273.767C511.744 273.715 511.744 273.667 511.744 273.615C511.711 273.141 511.668 272.667 511.621 272.193C511.621 272.108 511.621 272.023 511.621 271.937C511.559 271.364 511.488 270.8 511.403 270.236C511.403 270.207 511.403 270.183 511.403 270.16C511.265 269.254 511.095 268.358 510.901 267.472C510.877 267.373 510.867 267.268 510.844 267.169C510.82 267.069 510.787 266.97 510.763 266.87C510.564 266.017 510.341 265.168 510.085 264.329C510.085 264.329 510.085 264.329 510.085 264.301C510.085 264.272 510.057 264.23 510.047 264.192C509.806 263.415 509.531 262.647 509.237 261.883C509.195 261.779 509.166 261.665 509.124 261.561C509.081 261.457 509.034 261.372 508.996 261.272C508.678 260.485 508.342 259.703 507.967 258.935C507.877 258.755 507.787 258.58 507.688 258.409C507.588 258.238 507.489 258.087 507.38 257.935L507.328 257.864L507.271 257.788L507.048 257.499C506.93 257.357 506.807 257.224 506.683 257.096L506.498 256.921L474.305 227.058C474.589 227.322 474.848 227.613 475.077 227.926L475.129 227.997C475.376 228.336 475.594 228.696 475.779 229.073C476.153 229.845 476.489 230.627 476.807 231.414L477.049 232.026C477.342 232.789 477.617 233.557 477.859 234.329C477.859 234.377 477.892 234.424 477.906 234.472C478.162 235.311 478.38 236.154 478.584 237.008C478.631 237.211 478.674 237.41 478.721 237.61C478.916 238.501 479.086 239.397 479.219 240.297C479.309 240.89 479.385 241.482 479.451 242.079C479.451 242.155 479.451 242.236 479.451 242.316C479.503 242.843 479.546 243.369 479.579 243.9C479.579 244.222 479.612 244.544 479.626 244.848C479.641 245.151 479.655 245.511 479.664 245.843C479.674 246.175 479.664 246.492 479.664 246.82C479.664 247.147 479.664 247.474 479.664 247.801C479.664 248.559 479.612 249.327 479.565 250.095L479.522 250.569C479.475 251.179 479.418 251.79 479.351 252.403C479.323 252.683 479.285 252.963 479.252 253.242C479.195 253.716 479.134 254.152 479.063 254.612C479.02 254.906 478.972 255.195 478.925 255.489C478.849 255.963 478.764 256.413 478.679 256.878C478.622 257.162 478.57 257.447 478.513 257.731C478.409 258.234 478.299 258.741 478.181 259.248C478.129 259.485 478.077 259.722 478.02 259.968C477.84 260.713 477.65 261.462 477.442 262.211V262.239C477.237 262.975 477.02 263.712 476.793 264.448C476.717 264.694 476.636 264.922 476.556 265.183C476.395 265.69 476.234 266.192 476.082 266.695L475.779 267.562C475.613 268.036 475.447 268.51 475.276 268.951L474.93 269.861C474.754 270.316 474.573 270.771 474.39 271.226L474.049 272.06C473.689 272.928 473.319 273.795 472.931 274.663V274.705C472.538 275.587 472.12 276.469 471.694 277.35C471.58 277.592 471.457 277.824 471.339 278.08C470.983 278.801 470.623 279.502 470.249 280.237L469.979 280.768C469.521 281.64 469.047 282.511 468.557 283.38L468.273 283.892C467.643 285.01 466.998 286.129 466.33 287.243L466.273 287.333C465.61 288.442 464.918 289.547 464.217 290.651C464.117 290.798 464.027 290.95 463.932 291.097C463.443 291.855 462.948 292.609 462.449 293.358C461.634 294.574 460.799 295.786 459.943 296.993C459.383 297.785 458.805 298.572 458.232 299.363C458.047 299.61 457.872 299.837 457.687 300.108C456.919 301.136 456.142 302.165 455.351 303.184C454.019 304.9 452.645 306.592 451.252 308.26L450.593 309.057C449.248 310.656 447.88 312.236 446.49 313.797L445.713 314.66C444.301 316.214 442.879 317.745 441.448 319.253C440.879 319.845 440.301 320.433 439.728 321.016L438.904 321.86C438.008 322.756 437.112 323.647 436.212 324.519L435.904 324.813C435.103 325.585 434.307 326.349 433.506 327.098L432.559 327.956C431.962 328.51 431.369 329.06 430.772 329.596C430.426 329.913 430.08 330.217 429.73 330.544C429.174 331.043 428.616 331.534 428.057 332.018C427.697 332.335 427.337 332.648 426.972 332.966C426.422 333.44 425.873 333.914 425.323 334.388L424.29 335.251C423.715 335.725 423.143 336.199 422.575 336.673C422.262 336.929 421.945 337.189 421.627 337.44C420.883 338.028 420.144 338.611 419.409 339.175L419.04 339.464C418.181 340.125 417.327 340.757 416.481 341.36L415.794 341.858C415.184 342.304 414.578 342.738 413.974 343.162C413.69 343.366 413.406 343.56 413.121 343.759L411.396 344.934L410.691 345.408C409.899 345.93 409.113 346.442 408.321 346.925L408.179 347.011C407.463 347.485 406.758 347.888 406.051 348.3C405.834 348.433 405.616 348.556 405.398 348.684C404.815 349.02 404.241 349.348 403.673 349.66L403.175 349.935C402.469 350.314 401.754 350.679 401.09 351.021L400.645 351.239C400.095 351.509 399.55 351.765 399.02 352.002L398.47 352.253C397.901 352.504 397.347 352.727 396.802 352.95L396.499 353.073C395.873 353.32 395.262 353.547 394.665 353.732C394.499 353.789 394.338 353.832 394.191 353.884C393.76 354.021 393.333 354.144 392.921 354.249C392.736 354.301 392.556 354.348 392.371 354.391C391.959 354.486 391.556 354.571 391.163 354.637C391.03 354.661 390.888 354.694 390.755 354.713C390.248 354.794 389.756 354.846 389.287 354.874H389.007C388.65 354.894 388.293 354.894 387.936 354.874C387.794 354.874 387.661 354.874 387.529 354.837C387.241 354.806 386.954 354.761 386.671 354.699L386.325 354.618C385.968 354.524 385.62 354.396 385.287 354.235C385.083 354.133 384.887 354.018 384.7 353.888C384.515 353.76 384.339 353.619 384.174 353.467L416.367 383.329C416.7 383.636 417.075 383.893 417.481 384.092C417.813 384.256 418.16 384.384 418.519 384.476C418.632 384.509 418.751 384.533 418.864 384.557C419.148 384.62 419.434 384.667 419.722 384.699L420.13 384.737C420.471 384.761 420.831 384.761 421.2 384.737H421.48C421.954 384.709 422.428 384.652 422.954 384.576L423.357 384.5C423.75 384.429 424.153 384.348 424.57 384.249L425.115 384.111C425.527 384.002 425.953 383.879 426.389 383.746L426.863 383.59L427.062 383.528C427.593 383.353 428.142 383.149 428.701 382.936L428.995 382.812C429.412 382.647 429.834 382.481 430.265 382.296L430.668 382.111L431.218 381.864C431.753 381.623 432.293 381.39 432.843 381.097L433.288 380.879L433.468 380.793C434.1 380.477 434.732 380.144 435.364 379.793L435.838 379.518C436.169 379.333 436.501 379.158 436.837 378.964C437.079 378.831 437.311 378.684 437.563 378.542L438.216 378.163C438.918 377.745 439.638 377.319 440.344 376.873L440.486 376.783H440.519C441.282 376.309 442.055 375.802 442.836 375.29L443.543 374.816C443.87 374.598 444.192 374.389 444.519 374.162L445.272 373.64L446.116 373.048C446.722 372.621 447.332 372.185 447.945 371.74L448.627 371.266L448.84 371.109C449.617 370.534 450.407 369.945 451.209 369.341L451.555 369.071C452.187 368.578 452.828 368.079 453.479 367.573L453.797 367.312C454.109 367.066 454.422 366.81 454.744 366.559L456.474 365.137L457.497 364.279L458.35 363.568L459.156 362.866L460.236 361.918C460.796 361.428 461.353 360.935 461.909 360.439L462.952 359.491L463.35 359.136C463.823 358.714 464.297 358.278 464.743 357.847C465.051 357.562 465.363 357.282 465.69 356.993C466.505 356.225 467.32 355.448 468.135 354.661L468.391 354.415L468.42 354.391C469.311 353.525 470.2 352.645 471.088 351.751C471.362 351.476 471.632 351.191 471.907 350.912C472.419 350.395 472.931 349.883 473.433 349.357C473.504 349.286 473.566 349.21 473.632 349.144C475.076 347.643 476.497 346.113 477.897 344.555C478.034 344.399 478.181 344.252 478.318 344.081C478.456 343.911 478.555 343.802 478.674 343.669C480.061 342.12 481.429 340.54 482.777 338.929L483.047 338.621C483.18 338.46 483.303 338.294 483.436 338.147C484.829 336.475 486.195 334.783 487.535 333.07C487.55 333.046 487.567 333.024 487.587 333.004C488.361 332.005 489.122 331 489.871 329.989C490.056 329.743 490.231 329.515 490.411 329.25C490.932 328.539 491.454 327.828 491.965 327.117L492.126 326.88C492.986 325.676 493.821 324.465 494.633 323.249C495.135 322.495 495.628 321.746 496.112 320.988L496.23 320.807C496.292 320.717 496.344 320.627 496.401 320.537C497.102 319.438 497.794 318.333 498.457 317.219L498.514 317.124C499.182 316.011 499.827 314.892 500.457 313.773L500.632 313.465L500.741 313.261C501.225 312.392 501.698 311.523 502.163 310.654L502.433 310.128C502.807 309.403 503.172 308.706 503.527 307.957C503.646 307.72 503.764 307.483 503.878 307.237C504.304 306.355 504.722 305.473 505.115 304.592C505.117 304.577 505.117 304.563 505.115 304.549C505.503 303.682 505.873 302.814 506.233 301.947C506.28 301.838 506.332 301.729 506.375 301.615C506.418 301.501 506.508 301.278 506.574 301.108C506.761 300.653 506.941 300.198 507.114 299.743C507.228 299.439 507.347 299.136 507.46 298.837C507.631 298.363 507.797 297.889 507.963 297.444L508.266 296.576C508.436 296.074 508.598 295.571 508.74 295.069C508.82 294.822 508.901 294.595 508.977 294.329C509.21 293.59 509.427 292.852 509.626 292.116C509.834 291.367 510.024 290.618 510.204 289.874C510.261 289.632 510.313 289.4 510.365 289.148C510.484 288.641 510.592 288.134 510.697 287.632C510.754 287.347 510.806 287.068 510.863 286.783C510.948 286.309 511.033 285.835 511.109 285.394C511.156 285.1 511.204 284.807 511.246 284.513C511.318 284.039 511.379 283.598 511.436 283.143C511.436 282.967 511.488 282.787 511.507 282.612C511.507 282.512 511.507 282.413 511.535 282.308C511.606 281.692 511.659 281.076 511.706 280.465L511.725 279.981Z" fill="#366BB3" style="touch-action: pan-y;"></path><path id="p_8" d="M377.554 446.462C377.556 446.424 377.556 446.386 377.554 446.348C377.554 446.282 377.554 446.216 377.554 446.145C377.554 446.074 377.554 445.922 377.554 445.818C377.554 445.713 377.53 445.557 377.516 445.434C377.516 445.434 377.516 445.4 377.516 445.386C377.516 445.258 377.478 445.14 377.45 445.026C377.43 444.927 377.405 444.829 377.374 444.732V444.685V444.652C377.374 444.595 377.336 444.538 377.312 444.481C377.289 444.424 377.255 444.339 377.222 444.268C377.189 444.196 377.156 444.14 377.118 444.078C377.092 444.034 377.063 443.991 377.033 443.95C376.996 443.896 376.956 443.844 376.914 443.794C376.874 443.744 376.831 443.696 376.786 443.651L376.725 443.594L344.531 413.732C344.682 413.873 344.814 414.032 344.925 414.206C345.039 414.393 345.13 414.594 345.195 414.803C345.197 414.814 345.197 414.826 345.195 414.836C345.272 415.071 345.327 415.312 345.36 415.557C345.36 415.557 345.36 415.59 345.36 415.609C345.389 415.845 345.405 416.082 345.408 416.32C345.408 416.386 345.408 416.453 345.408 416.524C345.408 416.685 345.408 416.865 345.384 417.036C345.36 417.206 345.384 417.377 345.346 417.557C345.308 417.737 345.304 417.842 345.285 417.984C345.251 418.254 345.209 418.524 345.152 418.813C345.119 418.979 345.081 419.15 345.043 419.325C344.981 419.61 344.915 419.899 344.839 420.197C344.763 420.496 344.688 420.79 344.593 421.103C344.394 421.785 344.152 422.525 343.882 423.274C343.787 423.534 343.674 423.819 343.569 424.084C343.375 424.601 343.19 425.113 342.963 425.663C342.669 426.383 342.347 427.137 342.015 427.905C341.944 428.061 341.878 428.218 341.802 428.379C341.456 429.156 341.086 429.948 340.693 430.749C340.631 430.882 340.56 431.019 340.494 431.152C340.115 431.939 339.715 432.744 339.295 433.569L339.139 433.873C338.69 434.754 338.216 435.653 337.717 436.57C337.618 436.764 337.514 436.954 337.409 437.143C336.926 438.044 336.425 438.959 335.907 439.888C335.229 441.101 334.524 442.334 333.789 443.599L333.273 444.476C332.695 445.462 332.107 446.457 331.496 447.472L330.643 448.894C330.112 449.761 329.576 450.638 329.027 451.52C328.709 452.032 328.392 452.549 328.079 453.065L326.392 455.734L325.445 457.217C324.557 458.592 323.653 459.979 322.734 461.379L322.493 461.744C321.488 463.267 320.461 464.802 319.412 466.347C319.104 466.821 318.787 467.266 318.465 467.726C317.697 468.854 316.92 469.986 316.133 471.12L315.086 472.632C314.205 473.896 313.315 475.16 312.418 476.424L311.741 477.372C310.67 478.876 309.586 480.382 308.49 481.89L307.694 482.975C306.855 484.122 306.012 485.274 305.164 486.416L303.998 487.985L301.752 490.976C301.344 491.512 300.937 492.052 300.529 492.583C299.738 493.631 298.937 494.669 298.16 495.702L297.085 497.096L295.616 498.968L294.066 500.94L292.602 502.779C292.081 503.428 291.564 504.083 291.043 504.723C290.522 505.362 290.072 505.922 289.583 506.519C289.095 507.116 288.55 507.794 288.034 508.415C287.517 509.036 287.058 509.595 286.57 510.178L284.968 512.108L284.2 513.013C283.528 513.806 282.858 514.596 282.191 515.383C281.931 515.691 281.665 516.004 281.4 516.331C280.56 517.301 279.727 518.249 278.903 519.175L278.732 519.365C277.884 520.313 277.045 521.261 276.207 522.209C275.562 522.92 274.927 523.631 274.311 524.299C273.946 524.697 273.581 525.105 273.217 525.494C272.444 526.328 271.677 527.134 270.918 527.93C270.7 528.153 270.482 528.404 270.269 528.608C269.322 529.584 268.402 530.532 267.492 531.452C266.883 532.062 266.279 532.656 265.682 533.234L265.081 533.812C264.697 534.182 264.313 534.552 263.934 534.907L263.251 535.547L262.228 536.495L261.28 537.353L260.745 537.827C260.323 538.197 259.911 538.557 259.499 538.908L259.271 539.107L259.181 539.183C258.527 539.733 257.892 540.254 257.286 540.757L256.755 541.178C256.338 541.506 255.93 541.818 255.523 542.127L255.049 542.477C254.665 542.762 254.291 543.027 253.917 543.283L253.571 543.525C253.277 543.729 252.988 543.914 252.699 544.098L252.225 544.402L251.832 544.639C251.552 544.809 251.268 544.98 250.993 545.113C250.86 545.184 250.737 545.246 250.614 545.317C250.349 545.459 250.088 545.601 249.832 545.729C249.68 545.805 249.538 545.866 249.387 545.938C249.235 546.009 248.951 546.141 248.737 546.231C248.524 546.322 248.306 546.402 248.093 546.483C247.88 546.563 247.78 546.606 247.619 546.653C247.382 546.734 247.145 546.791 246.923 546.852C246.804 546.881 246.686 546.924 246.572 546.947C246.25 547.018 245.924 547.07 245.596 547.104C237.682 547.8 223.301 543.34 208.896 536.135C197.969 530.67 187.023 523.626 178.863 516.061L211.057 545.923C219.217 553.507 230.162 560.532 241.089 565.998C255.495 573.198 269.876 577.663 277.789 576.961C278.118 576.931 278.444 576.878 278.765 576.805C278.879 576.805 279.002 576.743 279.116 576.71C279.343 576.653 279.59 576.592 279.813 576.516H279.888C280.012 576.473 280.149 576.412 280.277 576.364C280.49 576.288 280.703 576.212 280.921 576.118L281.03 576.075C281.206 575.999 281.39 575.904 281.571 575.824L282.016 575.61L282.101 575.573C282.329 575.459 282.575 575.326 282.798 575.198L283.177 574.999H283.22C283.48 574.847 283.75 574.681 284.02 574.525C284.153 574.449 284.276 574.378 284.409 574.293L284.854 573.999C285.143 573.814 285.428 573.629 285.721 573.43L285.764 573.402L286.072 573.184C286.446 572.923 286.816 572.662 287.2 572.382L287.328 572.292L287.674 572.027C288.077 571.724 288.484 571.411 288.901 571.079C288.991 571.008 289.081 570.946 289.171 570.87L289.432 570.657C290.057 570.155 290.692 569.638 291.327 569.083L291.394 569.026H291.417L291.645 568.832C292.057 568.477 292.469 568.121 292.891 567.747C293.066 567.595 293.246 567.429 293.422 567.273C293.673 567.05 293.895 566.832 294.17 566.6L294.379 566.41C294.715 566.107 295.052 565.789 295.393 565.462L296.089 564.808C296.459 564.462 296.829 564.102 297.203 563.746L297.753 563.22L297.838 563.135C298.435 562.556 299.032 561.964 299.643 561.357C300.553 560.442 301.482 559.494 302.42 558.513L302.472 558.461L303.093 557.807C303.846 557.015 304.6 556.224 305.367 555.399L306.471 554.195C307.106 553.507 307.737 552.82 308.367 552.109L308.68 551.773L310.893 549.289L311.082 549.071C311.9 548.123 312.725 547.175 313.555 546.227L314.356 545.279C315.025 544.501 315.693 543.719 316.361 542.909L317.128 542.003L317.536 541.529C317.934 541.055 318.332 540.581 318.735 540.107L320.194 538.344C320.711 537.718 321.227 537.078 321.744 536.448L323.208 534.651L324.762 532.708L326.226 530.869C326.748 530.215 327.259 529.556 327.776 528.897C328.292 528.238 328.757 527.65 329.245 527.001L329.548 526.617L330.325 525.603C331.121 524.569 331.913 523.541 332.694 522.498C333.107 521.962 333.514 521.422 333.922 520.882C334.675 519.886 335.419 518.895 336.163 517.895C336.556 517.369 336.95 516.848 337.338 516.322C338.182 515.184 339.019 514.045 339.85 512.904C340.12 512.534 340.394 512.164 340.665 511.79C341.758 510.283 342.841 508.777 343.915 507.273C343.958 507.206 344.01 507.145 344.053 507.078C344.233 506.832 344.398 506.604 344.574 506.334C345.477 505.07 346.371 503.806 347.256 502.542L348.303 501.035C349.096 499.894 349.875 498.76 350.639 497.631L351.587 496.261C352.633 494.716 353.661 493.18 354.672 491.654C354.747 491.536 354.823 491.417 354.904 491.299C355.829 489.896 356.735 488.505 357.619 487.127L357.96 486.606C358.169 486.284 358.358 485.971 358.562 485.658C359.135 484.757 359.704 483.861 360.258 482.975L361.206 481.444C361.756 480.553 362.296 479.676 362.827 478.804C363.111 478.33 363.395 477.856 363.67 477.41C364.286 476.396 364.874 475.396 365.452 474.41C365.622 474.121 365.803 473.822 365.968 473.533C366.704 472.269 367.41 471.033 368.086 469.826L368.176 469.66C368.65 468.783 369.124 467.93 369.598 467.086L369.911 466.508C370.385 465.588 370.858 464.688 371.332 463.806C371.38 463.707 371.427 463.612 371.479 463.512C371.899 462.688 372.301 461.88 372.683 461.09C372.749 460.957 372.82 460.815 372.882 460.682C373.273 459.861 373.643 459.071 373.991 458.312L374.204 457.838C374.536 457.089 374.853 456.355 375.152 455.658C375.153 455.639 375.153 455.62 375.152 455.601C375.379 455.047 375.569 454.53 375.763 454.008C375.862 453.748 375.981 453.463 376.071 453.207C376.346 452.449 376.583 451.725 376.782 451.036C376.843 450.828 376.9 450.624 376.957 450.425C376.985 450.321 377 450.235 377.028 450.131C377.104 449.832 377.17 449.543 377.232 449.259C377.269 449.088 377.308 448.913 377.341 448.747C377.398 448.463 377.44 448.188 377.473 447.922C377.473 447.818 377.516 447.699 377.525 447.6C377.535 447.5 377.525 447.529 377.525 447.496C377.525 447.311 377.525 447.145 377.563 446.974C377.601 446.803 377.554 446.59 377.554 446.462Z" fill="#366BB3" style="touch-action: pan-y;"></path><path id="p_9" d="M460.924 58.88C477.585 67.2131 485.114 86.5337 468.89 119.188C440.458 176.472 371.414 176.761 391.14 215.056C395.078 222.712 400.086 227.499 405.692 230.305C417.107 235.993 431.01 233.514 443.486 230.305C455.963 227.096 467.023 223.143 472.709 225.987C474.032 226.639 475.093 227.722 475.718 229.058C484.911 247.967 476.893 271.667 462.374 293.381C438.345 329.316 396.485 359.818 385.212 354.182C383.791 353.462 382.843 352.158 382.492 350.196C379.649 333.852 373.371 324.694 365.434 320.722C351.962 313.987 333.648 322.144 318.835 335.497C312.487 341.187 306.918 347.692 302.274 354.841C297.488 362.183 294.721 370.657 294.252 379.409C293.617 393.663 299.857 406.565 311.524 412.4C319.006 416.14 328.715 416.974 340.281 413.396C340.88 413.202 341.498 413.074 342.125 413.016C342.743 412.943 343.371 413.038 343.94 413.291C345.669 414.159 345.755 416.903 344.542 421.046C338.168 442.723 296.067 502.67 267.394 531.376C258.149 540.615 250.297 546.625 245.497 547.052C237.584 547.748 223.202 543.288 208.797 536.083C179.703 521.536 150.485 495.792 174.111 478.795C202.817 458.133 223.681 436.328 233.082 417.173C242.559 397.9 240.451 381.296 223.131 371.195C222.411 370.773 221.686 370.384 220.947 370.014C220.208 369.645 219.397 369.27 218.611 368.934C183.28 354.045 133.791 395.303 122.466 455.502C119.026 473.784 91.3012 468.224 65.699 455.421C44.8496 444.993 25.4217 429.768 21.6309 418.704C22.2848 417.282 34.7234 390.667 57.1934 359.98C74.8586 335.848 98.3332 310.076 125.779 295.04C127.447 294.126 129.427 294.41 131.616 295.514C136.018 297.714 141.288 303.17 146.704 308.697C152.12 314.224 157.678 319.817 162.668 322.31C187.607 333.544 230.343 295.614 239.432 263.808C243.057 251.157 241.356 239.472 231.049 232.22C230.515 231.848 229.954 231.516 229.372 231.225C221.316 227.191 208.286 230.514 196.174 234.296C184.062 238.079 172.865 242.312 168.454 240.108C167.738 239.766 167.168 239.179 166.847 238.453C160.744 225.181 177.67 142.542 267.498 109.642C269.701 108.836 271.455 108.874 272.876 109.585C277.913 112.102 278.861 123.051 281.515 134.854C284.168 146.657 288.509 159.299 300.336 165.191C304.226 167.134 308.922 168.352 314.637 168.57C359.401 170.281 344.93 123.805 377.882 81.5234C397.054 56.9508 437.791 47.3142 460.924 58.88Z" fill="#D2DD26" style="touch-action: pan-y;"></path></g><g id="shading" filter="url(#globalPencil1Filter)" style="touch-action: pan-y;"><path id="p_10" d="M131.417 496.514L126.053 444.312" stroke="black" stroke-width="2" stroke-miterlimit="10" style="touch-action: pan-y;"></path><path id="p_11" d="M142.049 496.846L134.363 422.071" stroke="black" stroke-width="2" stroke-miterlimit="10" style="touch-action: pan-y;"></path><path id="p_12" d="M152.191 492.419L143.33 406.235" stroke="black" stroke-width="2" stroke-miterlimit="10" style="touch-action: pan-y;"></path><path id="p_13" d="M152.664 393.986L152.669 393.991L160.236 467.652" stroke="black" stroke-width="2" stroke-miterlimit="10" style="touch-action: pan-y;"></path><path id="p_14" d="M168.761 447.535L162.26 384.293" stroke="black" stroke-width="2" stroke-miterlimit="10" style="touch-action: pan-y;"></path><path id="p_15" d="M187.09 522.798L187.014 522.068" stroke="black" stroke-width="2" stroke-miterlimit="10" style="touch-action: pan-y;"></path><path id="p_16" d="M177.834 432.77L172.072 376.718" stroke="black" stroke-width="2" stroke-miterlimit="10" style="touch-action: pan-y;"></path><path id="p_17" d="M198.798 533.663L198.404 529.79V529.785" stroke="black" stroke-width="2" stroke-miterlimit="10" style="touch-action: pan-y;"></path><path id="p_18" d="M187.241 421.204L182.09 371.097" stroke="black" stroke-width="2" stroke-miterlimit="10" style="touch-action: pan-y;"></path><path id="p_19" d="M210.511 544.526L209.635 536.004" stroke="black" stroke-width="2" stroke-miterlimit="10" style="touch-action: pan-y;"></path><path id="p_20" d="M196.898 412.075L192.307 367.428" stroke="black" stroke-width="2" stroke-miterlimit="10" style="touch-action: pan-y;"></path><path id="p_21" d="M222.088 554.054L220.742 541.038V541.033" stroke="black" stroke-width="2" stroke-miterlimit="10" style="touch-action: pan-y;"></path><path id="p_22" d="M206.758 404.997L202.74 365.896" stroke="black" stroke-width="2" stroke-miterlimit="10" style="touch-action: pan-y;"></path><path id="p_23" d="M233.422 561.335L231.73 544.873" stroke="black" stroke-width="2" stroke-miterlimit="10" style="touch-action: pan-y;"></path><path id="p_24" d="M216.827 399.85L213.439 366.925" stroke="black" stroke-width="2" stroke-miterlimit="10" style="touch-action: pan-y;"></path><path id="p_25" d="M244.634 567.236L242.549 547.029V547.024" stroke="black" stroke-width="2" stroke-miterlimit="10" style="touch-action: pan-y;"></path><path id="p_26" d="M227.097 396.698L224.5 371.409" stroke="black" stroke-width="2" stroke-miterlimit="10" style="touch-action: pan-y;"></path><path id="p_27" d="M255.712 571.986L252.879 544.479V544.475" stroke="black" stroke-width="2" stroke-miterlimit="10" style="touch-action: pan-y;"></path><path id="p_28" d="M262.693 536.829V536.833L266.664 575.474" stroke="black" stroke-width="2" stroke-miterlimit="10" style="touch-action: pan-y;"></path><path id="p_29" d="M272.303 527.358L272.307 527.363L277.406 576.987" stroke="black" stroke-width="2" stroke-miterlimit="10" style="touch-action: pan-y;"></path><path id="p_30" d="M281.816 516.84V516.845L287.559 572.683" stroke="black" stroke-width="2" stroke-miterlimit="10" style="touch-action: pan-y;"></path><path id="p_31" d="M291.256 505.563V505.568L297.307 564.444" stroke="black" stroke-width="2" stroke-miterlimit="10" style="touch-action: pan-y;"></path><path id="p_32" d="M300.619 493.656L300.624 493.666L306.893 554.671" stroke="black" stroke-width="2" stroke-miterlimit="10" style="touch-action: pan-y;"></path><path id="p_33" d="M316.386 543.944L309.932 481.161" stroke="black" stroke-width="2" stroke-miterlimit="10" style="touch-action: pan-y;"></path><path id="p_34" d="M301.941 403.386V403.362L298.046 365.517L298.041 365.479" stroke="black" stroke-width="2" stroke-miterlimit="10" style="touch-action: pan-y;"></path><path id="p_35" d="M325.805 532.501L319.176 468.022V468.017" stroke="black" stroke-width="2" stroke-miterlimit="10" style="touch-action: pan-y;"></path><path id="p_36" d="M313.504 412.866L306.998 349.538V349.52" stroke="black" stroke-width="2" stroke-miterlimit="10" style="touch-action: pan-y;"></path><path id="p_37" d="M335.155 520.442L328.336 454.095V454.086" stroke="black" stroke-width="2" stroke-miterlimit="10" style="touch-action: pan-y;"></path><path id="p_38" d="M324.382 415.587L316.479 338.694V338.684" stroke="black" stroke-width="2" stroke-miterlimit="10" style="touch-action: pan-y;"></path><path id="p_39" d="M337.371 438.917V438.922L344.45 507.791" stroke="black" stroke-width="2" stroke-miterlimit="10" style="touch-action: pan-y;"></path><path id="p_40" d="M332.373 390.266L326.203 330.27V330.266" stroke="black" stroke-width="2" stroke-miterlimit="10" style="touch-action: pan-y;"></path><path id="p_41" d="M345.361 413.567L345.963 419.445V419.474L353.677 494.481" stroke="black" stroke-width="2" stroke-miterlimit="10" style="touch-action: pan-y;"></path><path id="p_42" d="M336.139 323.914L341.301 374.113" stroke="black" stroke-width="2" stroke-miterlimit="10" style="touch-action: pan-y;"></path><path id="p_43" d="M362.813 480.294L357.07 424.422" stroke="black" stroke-width="2" stroke-miterlimit="10" style="touch-action: pan-y;"></path><path id="p_44" d="M346.309 319.738V319.743L350.91 364.49" stroke="black" stroke-width="2" stroke-miterlimit="10" style="touch-action: pan-y;"></path><path id="p_45" d="M371.792 464.638L368.773 435.282" stroke="black" stroke-width="2" stroke-miterlimit="10" style="touch-action: pan-y;"></path><path id="p_46" d="M360.864 358.351L356.756 318.344" stroke="black" stroke-width="2" stroke-miterlimit="10" style="touch-action: pan-y;"></path><path id="p_47" d="M370.863 352.516L367.664 321.392" stroke="black" stroke-width="2" stroke-miterlimit="10" style="touch-action: pan-y;"></path><path id="p_48" d="M381.094 348.956L380.205 340.324" stroke="black" stroke-width="2" stroke-miterlimit="10" style="touch-action: pan-y;"></path><path id="p_49" d="M392.883 360.631L392.258 354.573" stroke="black" stroke-width="2" stroke-miterlimit="10" style="touch-action: pan-y;"></path><path id="p_50" d="M404.597 371.495L402.465 350.771" stroke="black" stroke-width="2" stroke-miterlimit="10" style="touch-action: pan-y;"></path><path id="p_51" d="M416.306 382.364L412.449 344.827" stroke="black" stroke-width="2" stroke-miterlimit="10" style="touch-action: pan-y;"></path><path id="p_52" d="M400.219 225.86L396.215 186.864" stroke="black" stroke-width="2" stroke-miterlimit="10" style="touch-action: pan-y;"></path><path id="p_53" d="M427.043 383.795L422.295 337.598" stroke="black" stroke-width="2" stroke-miterlimit="10" style="touch-action: pan-y;"></path><path id="p_54" d="M411.457 232.174L405.984 178.929" stroke="black" stroke-width="2" stroke-miterlimit="10" style="touch-action: pan-y;"></path><path id="p_55" d="M437.178 379.292L432.037 329.303" stroke="black" stroke-width="2" stroke-miterlimit="10" style="touch-action: pan-y;"></path><path id="p_56" d="M415.902 172.307L421.56 227.367" stroke="black" stroke-width="2" stroke-miterlimit="10" style="touch-action: pan-y;"></path><path id="p_57" d="M441.676 319.979V319.984L447.125 372.983" stroke="black" stroke-width="2" stroke-miterlimit="10" style="touch-action: pan-y;"></path><path id="p_58" d="M425.826 165.78V165.785L430.83 214.475" stroke="black" stroke-width="2" stroke-miterlimit="10" style="touch-action: pan-y;"></path><path id="p_59" d="M456.943 365.47L451.186 309.485" stroke="black" stroke-width="2" stroke-miterlimit="10" style="touch-action: pan-y;"></path><path id="p_60" d="M435.695 158.765L440.661 207.08" stroke="black" stroke-width="2" stroke-miterlimit="10" style="touch-action: pan-y;"></path><path id="p_61" d="M460.549 297.483V297.488L466.661 356.933" stroke="black" stroke-width="2" stroke-miterlimit="10" style="touch-action: pan-y;"></path><path id="p_62" d="M450.584 200.553L445.467 150.739" stroke="black" stroke-width="2" stroke-miterlimit="10" style="touch-action: pan-y;"></path><path id="p_63" d="M469.662 283.106V283.111L476.268 347.33" stroke="black" stroke-width="2" stroke-miterlimit="10" style="touch-action: pan-y;"></path><path id="p_64" d="M455.072 141.098V141.103L460.498 193.955" stroke="black" stroke-width="2" stroke-miterlimit="10" style="touch-action: pan-y;"></path><path id="p_65" d="M485.749 336.503L478.191 263.013" stroke="black" stroke-width="2" stroke-miterlimit="10" style="touch-action: pan-y;"></path><path id="p_66" d="M470.353 186.731L464.396 128.816" stroke="black" stroke-width="2" stroke-miterlimit="10" style="touch-action: pan-y;"></path><path id="p_67" d="M495.055 324.028L486.123 237.132" stroke="black" stroke-width="2" stroke-miterlimit="10" style="touch-action: pan-y;"></path><path id="p_68" d="M480.082 178.374L473.244 111.819" stroke="black" stroke-width="2" stroke-miterlimit="10" style="touch-action: pan-y;"></path><path id="p_69" d="M504.076 308.741L497.836 247.997" stroke="black" stroke-width="2" stroke-miterlimit="10" style="touch-action: pan-y;"></path><path id="p_70" d="M489.629 168.188L479.92 73.6895" stroke="black" stroke-width="2" stroke-miterlimit="10" style="touch-action: pan-y;"></path><path id="p_71" d="M498.869 154.977L491.629 84.5537" stroke="black" stroke-width="2" stroke-miterlimit="10" style="touch-action: pan-y;"></path><path id="p_72" d="M503.357 95.5557L507.523 136.136V136.14" stroke="black" stroke-width="2" stroke-miterlimit="10" style="touch-action: pan-y;"></path><path id="p_73" d="M272.875 108.875L307.15 140.321C307.391 140.548 307.715 140.795 307.895 141.074L307.956 141.16C310.864 144.721 311.557 149.95 312.472 154.271C312.505 154.451 312.543 154.626 312.581 154.802C313.287 158.334 313.975 161.871 314.756 165.386C315.016 166.529 315.277 167.605 315.547 168.662" stroke="black" stroke-width="2" style="touch-action: pan-y;"></path><path id="p_74" d="M167 238.625L199.947 270.005C200.23 270.265 200.549 270.484 200.895 270.654C201.973 271.133 203.147 271.357 204.325 271.308C208.903 271.308 215.849 269.076 223.625 266.544C225.383 265.98 227.174 265.407 228.994 264.838C233.694 263.368 235.715 262.768 239.032 262" stroke="black" stroke-width="2" style="touch-action: pan-y;"></path><path id="p_75" d="M400.02 352.454H397.793L399.826 351.549L400.181 351.378L400.489 351.217L400.736 351.463L400.494 351.71V351.985L400.617 352.222C400.489 352.288 400.357 352.345 400.229 352.402L400.087 352.122V352.099L400.03 351.985L400.02 352.454Z" fill="black" style="touch-action: pan-y;"></path><path id="p_76" d="M294.062 160.812C289.875 157.625 283.024 152.537 278.696 121.931C278.696 121.931 276.612 106.725 269.062 108.281C261.513 109.838 224.073 127.81 210.485 142.782C210.485 142.782 196.892 153.113 181.312 178.796C165.731 204.48 164.697 228.583 164.697 228.583C164.697 228.583 163.326 245.969 178.125 239.875C192.924 233.781 221.25 224.875 231.565 232.863C231.565 232.863 243.513 241.294 239.877 258.675C236.24 276.056 218.453 300.697 204.946 309.904C191.439 319.112 175.602 331.304 158.463 320.54C158.463 320.54 146.257 310.033 136.778 300.436C127.298 290.838 123.404 295.38 123.404 295.38C123.404 295.38 67.7237 324.596 21.25 418.5C21.25 418.5 31.25 447 95.0938 467.358C95.0938 467.358 116.5 471.875 121.375 458.375C126.25 444.875 126.788 428.963 138.922 410.225C151.057 391.488 170.793 369.046 199.098 366.323C211.95 365.086 220.842 369.278 226.72 374.224C235.083 381.261 240.569 392.973 237.274 403.394V403.394C235.192 409.983 227.018 438.542 186.897 468.891C186.897 468.891 167.833 481.745 165.86 487.457C163.887 493.17 163.134 502.244 176.898 515.859C190.663 529.475 227.147 547.118 237.904 547.756C237.904 547.756 245.053 549.584 250.295 546.208C255.538 542.833 279.988 518.92 296.464 498.083L315.681 471.9C343.514 434.329 345.23 416.948 345.23 416.948C345.75 411.678 339.816 413.829 339.816 413.829C329.373 416.567 313.469 417.981 302.555 406.269C285.025 387.465 299.958 358.025 299.958 358.025C299.958 358.025 326.171 316.65 357.87 318.597C372.816 319.511 379.498 334.117 382.386 349.289C382.386 349.289 382.591 358.087 391.89 354.912C401.188 351.736 410.93 345.357 410.93 345.357C445.722 322.877 466.164 289.205 473.942 273.947C481.72 258.69 481.568 234.677 475.848 227.588C470.129 220.5 459.229 226.893 429.618 232.601C400.006 238.309 386.857 211.85 387.724 199.4C388.592 186.951 405.311 177.706 430.314 161.182C455.316 144.658 465.63 125.211 471.864 113.28C478.098 101.35 481.992 81.1128 473.16 67.883C464.329 54.6532 442.129 47.8883 409.147 58.4188C376.166 68.9493 361.487 109.001 361.487 109.001C359.933 111.205 349.806 149.076 340.064 159.582C330.322 170.089 314.356 168.014 314.356 168.014" stroke="black" stroke-width="2" stroke-miterlimit="10" style="touch-action: pan-y;"></path><path id="p_77" d="M327 415.25C325.583 399.5 334.6 364.05 382 348.25" stroke="black" stroke-width="2" style="touch-action: pan-y;"></path><path id="p_78" d="M47.125 446.125C60.2083 460.583 93.825 490.6 123.625 495C156.75 499.891 152.625 489.625 156.75 477C160.875 464.375 184.875 393.625 237.125 395.75" stroke="black" stroke-width="2" style="touch-action: pan-y;"></path><path id="p_79" d="M470.124 64.0625L500.874 93.9992C501.158 94.2647 501.443 94.5349 501.718 94.8098L501.765 94.8667C504.378 97.5304 506.505 100.707 507.873 104.186C507.893 104.224 507.91 104.263 507.925 104.304V104.337C509.808 109.14 510.313 114.442 510.005 119.577C509.711 126.773 507.555 133.929 504.897 140.575C504.798 140.827 504.703 141.073 504.598 141.329C504.584 141.371 504.567 141.412 504.546 141.452C503.508 144.02 502.353 146.556 501.111 149.032C492.253 166.985 477.875 181.005 461.691 192.441L461.194 192.792C460.183 193.503 459.175 194.2 458.17 194.882L457.938 195.039C457.053 195.639 456.177 196.255 455.275 196.831C443.924 204.318 426.665 212.063 421.201 225.546C419.933 228.666 420.125 230.438 420.561 233.438" stroke="black" stroke-width="2" style="touch-action: pan-y;"></path><path id="p_80" d="M385.5 355L416.5 383.5C418.417 384.917 423.6 386.9 429 383.5C435.75 379.25 498.625 341.375 511.25 288.25C513.982 276.752 512.3 262.3 506.5 256.5C500.7 250.7 484.25 235.25 476.75 228.25" stroke="black" stroke-width="2" style="touch-action: pan-y;"></path><path id="p_81" d="M343.938 413.688L375.938 443.688C377.958 445.292 379.35 452.7 368.75 469.5C361.905 480.348 348.625 504.625 326.5 532.125C307.875 554 291 573.625 277.125 577.25C250.925 579.45 202.708 541.542 187.875 524.625" stroke="black" stroke-width="2" style="touch-action: pan-y;"></path></g><g id="lines" filter="url(#globalPencil2Filter)" style="opacity: 1; touch-action: pan-y;"><path id="p_82" d="M73.4707 549.798L499.705 11.8457" stroke="black" stroke-width="2" stroke-miterlimit="10" style="touch-action: pan-y; stroke-dashoffset: 0; stroke-dasharray: none;"></path><path id="p_83" d="M305.283 0V167.68" stroke="black" stroke-width="2" stroke-miterlimit="10" style="touch-action: pan-y; stroke-dashoffset: 0; stroke-dasharray: none;"></path><path id="p_84" d="M304.037 662L304.549 487.978" stroke="black" stroke-width="2" stroke-miterlimit="10" style="touch-action: pan-y; stroke-dashoffset: 0; stroke-dasharray: none;"></path><path id="p_85" d="M192.449 271.782L356.335 394.584" stroke="black" stroke-width="2" stroke-miterlimit="10" style="touch-action: pan-y; stroke-dashoffset: 0; stroke-dasharray: none;"></path><path id="p_86" d="M236.736 573.953L371.959 403.153" stroke="black" stroke-width="2" stroke-miterlimit="10" style="touch-action: pan-y; stroke-dashoffset: 0; stroke-dasharray: none;"></path><path id="p_87" d="M269.469 604.209L405.004 432.163" stroke="black" stroke-width="2" stroke-miterlimit="10" style="touch-action: pan-y; stroke-dashoffset: 0; stroke-dasharray: none;"></path><path id="p_88" d="M388.629 384.918L522.757 219.418" stroke="black" stroke-width="2" stroke-miterlimit="10" style="touch-action: pan-y; stroke-dashoffset: 0; stroke-dasharray: none;"></path><path id="p_89" d="M134.385 236.25L252.625 90.3838" stroke="black" stroke-width="2" stroke-miterlimit="10" style="touch-action: pan-y; stroke-dashoffset: 0; stroke-dasharray: none;"></path><path id="p_90" d="M430.223 403.623L547.998 257.756" stroke="black" stroke-width="2" stroke-miterlimit="10" style="touch-action: pan-y; stroke-dashoffset: 0; stroke-dasharray: none;"></path><path id="p_91" d="M372.893 244.664L510.295 72.3101" stroke="black" stroke-width="2" stroke-miterlimit="10" style="touch-action: pan-y; stroke-dashoffset: 0; stroke-dasharray: none;"></path><path id="p_92" d="M444.098 223.912L528.68 117.815" stroke="black" stroke-width="2" stroke-miterlimit="10" style="touch-action: pan-y; stroke-dashoffset: 0; stroke-dasharray: none;"></path><path id="p_93" d="M7.10742 422.323L124.883 276.456" stroke="black" stroke-width="2" stroke-miterlimit="10" style="touch-action: pan-y; stroke-dashoffset: 0; stroke-dasharray: none;"></path><path id="p_94" d="M345.162 509.592L371.333 529.851" stroke="black" stroke-width="2" stroke-miterlimit="10" style="touch-action: pan-y; stroke-dashoffset: 0; stroke-dasharray: none;"></path><path id="p_95" d="M206.357 511.147L275.995 575.664" stroke="black" stroke-width="2" stroke-miterlimit="10" style="touch-action: pan-y; stroke-dashoffset: 0; stroke-dasharray: none;"></path><path id="p_96" d="M492.848 331L519.018 351.259" stroke="black" stroke-width="2" stroke-miterlimit="10" style="touch-action: pan-y; stroke-dashoffset: 0; stroke-dasharray: none;"></path><path id="p_97" d="M497.832 167.06L524.008 187.319" stroke="black" stroke-width="2" stroke-miterlimit="10" style="touch-action: pan-y; stroke-dashoffset: 0; stroke-dasharray: none;"></path></g><g id="arrows" filter="url(#globalPencil1Filter)" style="opacity: 1; touch-action: pan-y;"><path id="p_98" d="M319.87 24.8614C324.523 26.1555 327.395 27.9283 327.395 29.8859C327.395 33.8439 315.643 37.0529 301.148 37.0529C286.653 37.0529 274.896 33.8439 274.896 29.8859C274.896 25.928 286.648 22.7189 301.143 22.7189C304.401 22.7125 307.656 22.8834 310.895 23.2309" stroke="black" stroke-width="2" stroke-miterlimit="10" style="touch-action: pan-y; stroke-dashoffset: 0; stroke-dasharray: none;"></path><path id="p_99" d="M325.624 21.4912L318.633 24.7099L322.655 29.8989" stroke="black" stroke-width="2" stroke-miterlimit="10" style="touch-action: pan-y; stroke-dashoffset: 0; stroke-dasharray: 15.2616px, 25.2616px;"></path><path id="p_100" d="M462.361 137.368L468.048 142.051L483.974 155.143L489.593 159.76" stroke="black" stroke-width="2" stroke-miterlimit="10" style="touch-action: pan-y; stroke-dashoffset: 0; stroke-dasharray: none;"></path><path id="p_101" d="M468.805 137.988L461.674 136.808L464.218 143.577" stroke="black" stroke-width="2" stroke-miterlimit="10" style="touch-action: pan-y; stroke-dashoffset: 0; stroke-dasharray: none;"></path><path id="p_102" d="M483.092 159.091L490.223 160.272L487.679 153.503" stroke="black" stroke-width="2" stroke-miterlimit="10" style="touch-action: pan-y; stroke-dashoffset: 0; stroke-dasharray: none;"></path><path id="p_103" d="M459.492 303.681L465.178 308.359L481.105 321.451L486.725 326.068" stroke="black" stroke-width="2" stroke-miterlimit="10" style="touch-action: pan-y; stroke-dashoffset: 0; stroke-dasharray: none;"></path><path id="p_104" d="M468.313 304.992L459.369 303.512L462.56 311.995" stroke="black" stroke-width="2" stroke-miterlimit="10" style="touch-action: pan-y; stroke-dashoffset: 0; stroke-dasharray: none;"></path><path id="p_105" d="M479.111 325.472L488.095 326.958L484.89 318.438" stroke="black" stroke-width="2" stroke-miterlimit="10" style="touch-action: pan-y; stroke-dashoffset: 0; stroke-dasharray: none;"></path><path id="p_106" d="M202.154 283.17C202.154 283.17 191.558 293.56 199.865 307.273" stroke="black" stroke-width="2" stroke-miterlimit="10" style="touch-action: pan-y; stroke-dashoffset: 0; stroke-dasharray: 27.1159px, 37.1159px;"></path><path id="p_107" d="M196.193 284.08L202.487 282.726L203.39 288.125" stroke="black" stroke-width="2" stroke-miterlimit="10" style="touch-action: pan-y; stroke-dashoffset: 0; stroke-dasharray: none;"></path><path id="p_108" d="M201.996 302.75L200.289 308.125L194.771 306.147" stroke="black" stroke-width="2" stroke-miterlimit="10" style="touch-action: pan-y; stroke-dashoffset: 0; stroke-dasharray: none;"></path><path id="p_109" d="M3.37891 435.841L9.06512 440.525L87.3975 504.9L93.0127 509.516" stroke="black" stroke-width="2" stroke-miterlimit="10" style="touch-action: pan-y; stroke-dashoffset: 0; stroke-dasharray: none;"></path><path id="p_110" d="M11.8477 436.573L2.23242 434.976L5.66326 444.102" stroke="black" stroke-width="2" stroke-miterlimit="10" style="touch-action: pan-y; stroke-dashoffset: 0; stroke-dasharray: none;"></path><path id="p_111" d="M83.7422 508.219L93.4293 509.829L89.977 500.629" stroke="black" stroke-width="2" stroke-miterlimit="10" style="touch-action: pan-y; stroke-dashoffset: 0; stroke-dasharray: none;"></path><path id="p_112" d="M119.473 467.206L125.159 471.889L140.441 484.451L146.06 489.067" stroke="black" stroke-width="2" stroke-miterlimit="10" style="touch-action: pan-y; stroke-dashoffset: 0; stroke-dasharray: none;"></path><path id="p_113" d="M127.874 468.432L119.057 466.972L122.203 475.336" stroke="black" stroke-width="2" stroke-miterlimit="10" style="touch-action: pan-y; stroke-dashoffset: 0; stroke-dasharray: none;"></path><path id="p_114" d="M138.416 488.438L147.312 489.917L144.138 481.473" stroke="black" stroke-width="2" stroke-miterlimit="10" style="touch-action: pan-y; stroke-dashoffset: 0; stroke-dasharray: none;"></path><path id="p_115" d="M313.307 483.487L318.993 488.171L334.919 501.258L340.539 505.875" stroke="black" stroke-width="2" stroke-miterlimit="10" style="touch-action: pan-y; stroke-dashoffset: 0; stroke-dasharray: none;"></path><path id="p_116" d="M322.062 484.695L313.186 483.226L316.353 491.645" stroke="black" stroke-width="2" stroke-miterlimit="10" style="touch-action: pan-y; stroke-dashoffset: 0; stroke-dasharray: none;"></path><path id="p_117" d="M332.646 505.233L341.687 506.735L338.461 498.154" stroke="black" stroke-width="2" stroke-miterlimit="10" style="touch-action: pan-y; stroke-dashoffset: 0; stroke-dasharray: none;"></path><path id="p_118" d="M313.852 143.161L310.818 135.681L318.69 132.817" stroke="black" stroke-width="2" stroke-miterlimit="10" style="touch-action: pan-y; stroke-dashoffset: 0; stroke-dasharray: none;"></path><path id="p_119" d="M335.316 158.333L329.771 163.214L324.924 157.281" stroke="black" stroke-width="2" stroke-miterlimit="10" style="touch-action: pan-y; stroke-dashoffset: 0; stroke-dasharray: none;"></path><path id="p_120" d="M311.514 135.502C316.896 137.48 321.541 141.064 324.822 145.767C328.103 150.471 329.862 156.069 329.861 161.805" stroke="black" stroke-width="2" stroke-miterlimit="10" style="touch-action: pan-y; stroke-dashoffset: 0; stroke-dasharray: none;"></path></g><g id="scribbles" filter="url(#globalPencil1Filter)" style="opacity: 1; touch-action: pan-y;"><path id="p_121" d="M328.348 130.983C329.796 130.859 331.159 130.244 332.21 129.238C332.582 132.161 332.868 135.097 333.067 138.045" stroke="black" stroke-miterlimit="10" style="touch-action: pan-y; stroke-dashoffset: 0; stroke-dasharray: 14.1701px, 24.1701px;"></path><path id="p_122" d="M330.143 134.505L334.601 131.803" stroke="black" stroke-miterlimit="10" style="touch-action: pan-y; stroke-dashoffset: 0; stroke-dasharray: none;"></path><path id="p_123" d="M337.725 128.205C337.792 128.138 337.842 128.057 337.873 127.968C337.904 127.879 337.915 127.784 337.905 127.691C337.894 127.597 337.863 127.507 337.813 127.427C337.763 127.347 337.696 127.279 337.616 127.228C337.449 127.133 337.259 127.083 337.067 127.083C336.874 127.083 336.684 127.133 336.517 127.228C336.261 127.386 336.045 127.601 335.886 127.856C335.728 128.111 335.63 128.4 335.602 128.699C335.574 128.998 335.616 129.3 335.725 129.58C335.833 129.861 336.006 130.112 336.228 130.314C336.362 130.426 336.518 130.511 336.686 130.562C336.853 130.613 337.03 130.631 337.204 130.613C337.489 130.537 337.742 130.37 337.924 130.137C338.106 129.904 338.208 129.619 338.213 129.324C338.205 128.734 338.068 128.153 337.81 127.622L339.232 133.808" stroke="black" stroke-miterlimit="10" style="touch-action: pan-y; stroke-dashoffset: 0; stroke-dasharray: none;"></path><path id="p_124" d="M340.387 126.034C340.276 125.931 340.136 125.863 339.986 125.839C339.836 125.814 339.683 125.834 339.544 125.897C339.467 126.034 339.427 126.188 339.428 126.346C339.429 126.503 339.472 126.657 339.551 126.793C339.63 126.929 339.743 127.042 339.88 127.12C340.016 127.198 340.171 127.239 340.328 127.239C340.485 127.239 340.64 127.198 340.776 127.12C340.913 127.042 341.026 126.929 341.105 126.793C341.185 126.657 341.227 126.503 341.229 126.346C341.23 126.188 341.19 126.034 341.112 125.897C340.932 125.925 340.776 125.787 340.639 125.697C340.501 125.607 340.241 125.579 340.165 125.745C340.089 125.911 340.477 125.977 340.402 125.811" stroke="black" stroke-miterlimit="10" style="touch-action: pan-y; stroke-dashoffset: 0; stroke-dasharray: none;"></path><path id="p_125" d="M165.318 300.635C167.141 299.288 168.672 297.586 169.818 295.63C170.964 293.675 171.701 291.507 171.986 289.259C172.316 286.816 172.233 284.336 171.739 281.921C171.559 281.115 171.265 280.224 170.493 279.883C170.12 279.749 169.715 279.736 169.334 279.845C168.953 279.954 168.616 280.179 168.37 280.489C167.889 281.118 167.575 281.858 167.46 282.641C166.538 287.145 167.425 291.831 169.929 295.686C170.394 296.474 171.03 297.146 171.791 297.653C173.426 298.601 175.686 298.094 176.971 296.705C178.255 295.316 179.378 292.354 178.321 290.486C177.985 289.894 177.108 289.538 176.596 290.012C176.354 290.258 176.216 290.587 176.212 290.932C176.08 292.705 177.743 294.212 179.491 294.506C182.567 295.023 185.49 292.866 188.438 292.335" stroke="black" stroke-miterlimit="10" style="touch-action: pan-y; stroke-dashoffset: 0; stroke-dasharray: none;"></path><path id="p_126" d="M372.898 500.206C374.32 498.941 394.051 479.568 385.347 478.715C384.238 478.611 383.328 479.554 382.674 480.459C379.731 484.512 372.567 502.23 382.2 503.425C388.303 504.179 391.056 494.646 392.957 490.627C392.118 493.096 391.27 495.656 391.535 498.254C391.8 500.851 393.53 503.468 396.093 503.942C398.387 504.34 400.68 502.885 401.969 500.946C403.171 499.032 403.893 496.856 404.073 494.604C400.415 495.884 401.642 500.657 405.774 500.875C409.788 501.088 412.745 497.377 416.398 496.267C421.7 494.651 427.974 494.845 432.623 498.111" stroke="black" stroke-miterlimit="10" style="touch-action: pan-y; stroke-dashoffset: 0; stroke-dasharray: none;"></path><path id="p_127" d="M426.018 489.551C430.197 491.077 434.258 485.986 431.481 482.313C429.841 484.161 430.832 487.479 433.092 488.475C439.598 491.319 440.328 483.261 439.963 479.383C440.527 485.413 435.973 489.627 441.451 495.552" stroke="black" stroke-miterlimit="10" style="touch-action: pan-y; stroke-dashoffset: 0; stroke-dasharray: none;"></path><path id="p_128" d="M406.201 512.858C408.049 511.251 418.133 503.231 417.237 512.232C424.968 509.336 433.316 508.49 441.47 509.777" stroke="black" stroke-miterlimit="10" style="touch-action: pan-y; stroke-dashoffset: 0; stroke-dasharray: none;"></path><path id="p_129" d="M453.354 522.679C456.363 533.733 429.761 531.984 424.425 529.149C423.269 528.538 422.288 527.604 421.07 527.102C416.758 525.338 410.546 537.321 406.793 531.226C405.794 529.609 406.177 527.514 406.793 525.718C407.596 523.429 408.74 521.275 410.186 519.328C410.684 518.655 411.428 517.906 412.238 518.157C413.418 518.489 413.224 520.219 412.712 521.333C409.224 528.827 400.913 537.392 392.568 539.014" stroke="black" stroke-miterlimit="10" style="touch-action: pan-y; stroke-dashoffset: 0; stroke-dasharray: none;"></path><path id="p_130" d="M378.6 553.201C379.737 551.954 380.936 550.665 382.523 550.091C384.111 549.518 386.186 549.94 386.935 551.447C386.12 553.51 384.728 555.293 382.926 556.585C383.792 556.126 384.76 555.893 385.74 555.908C386.72 555.923 387.68 556.185 388.532 556.671C386.598 561.543 379.87 563.752 375.43 560.965" stroke="black" stroke-miterlimit="10" style="touch-action: pan-y; stroke-dashoffset: 0; stroke-dasharray: none;"></path><path id="p_131" d="M394.724 553.296C395.232 552.97 395.664 552.54 395.991 552.033C396.318 551.526 396.532 550.954 396.619 550.357C394.42 550.66 391.881 552.661 392.108 555.182C392.107 555.445 392.173 555.703 392.299 555.934C392.425 556.164 392.607 556.359 392.828 556.5C393.482 556.822 394.25 556.372 394.785 555.889C395.846 554.94 396.717 553.8 397.353 552.528C397.353 557.562 396.382 562.757 395.884 567.777" stroke="black" stroke-miterlimit="10" style="touch-action: pan-y; stroke-dashoffset: 0; stroke-dasharray: none;"></path><path id="p_132" d="M405.538 546.589C403.419 547.864 404.116 551.006 406.755 549.433C410.02 547.484 406.016 546.115 404.329 545.38" stroke="black" stroke-miterlimit="10" style="touch-action: pan-y; stroke-dashoffset: 0; stroke-dasharray: none;"></path></g></svg>
