<svg viewBox="0 0 689 435" fill="none" xmlns="http://www.w3.org/2000/svg" data-svg-name="handGod"><defs><filter id="handGodWatercolorFilter"><feTurbulence result="noise-lg" type="fractalNoise" baseFrequency=".012" numOctaves="2" seed="42"></feTurbulence><feTurbulence result="noise-md" type="fractalNoise" baseFrequency=".24" numOctaves="3" seed="505"></feTurbulence><feComposite result="BaseGraphic" in="SourceGraphic" in2="noise-lg" operator="arithmetic" k1="0.5" k2="0.6" k4="-.07"></feComposite><feDisplacementMap result="layer-2" inx="BaseGraphic" in="SourceGraphic" in2="noise-lg" xChannelSelector="G" yChannelSelector="R" scale="4"></feDisplacementMap><feDisplacementMap result="layer-2" in="layer-2" in2="noise-md" xChannelSelector="A" yChannelSelector="G" scale="2"></feDisplacementMap><feDisplacementMap result="glow" in="BaseGraphic" in2="noise-lg" xChannelSelector="R" yChannelSelector="A" scale="16"></feDisplacementMap><feMorphology result="glow-diff" in="glow" operator="erode" radius="1"></feMorphology><feComposite result="glow" in="glow" in2="glow-diff" operator="out"></feComposite><feGaussianBlur result="glow" in="glow" stdDeviation="1.2"></feGaussianBlur><feComposite id="color" result="layer-2" in="layer-2" in2="glow" operator="arithmetic" k1="1.5" k2="0" k3=".3"></feComposite><feComposite class="js-watercolor-anim" in="SourceGraphic" in2="layer-2" operator="arithmetic" k1="-0.8" k2="0.8" k3="2"></feComposite></filter></defs><g id="base" filter="url(#handGodWatercolorFilter)" style="opacity: 1;"><path id="p" d="M153.94 320.23C153.94 320.23 165.01 332.17 181.34 325.6C197.67 319.03 224.95 300.94 237.88 283.3C250.81 265.66 275.8 260.06 283.47 257.65C291.14 255.24 322.6 249.65 325.47 233.43C328.34 217.21 324.81 199.24 323.38 197.16C323.38 197.16 332.92 200.77 336.21 208.99C339.5 217.21 341.69 239.13 360.32 231.68C360.32 231.68 365.69 228.88 365.69 218.86C366.328 220.038 367.099 221.139 367.99 222.14C369.14 223.3 367.99 232.14 375.71 231.14C378.5 230.78 383.05 228.94 387.82 225.48C394.536 220.515 399.664 213.706 402.581 205.88C405.498 198.054 406.078 189.549 404.25 181.4C401.25 167.65 397.25 142.78 404.8 131.21C404.45 132.36 391.18 176.21 430.12 171.21C430.12 171.21 427.72 195.87 446.12 196.41C468.7 197.07 509.68 138.77 532.04 140.08C532.04 140.08 507.38 150.08 494.89 176.36C494.89 176.36 500.15 182.6 510.01 178.99C519.87 175.38 506.4 181.99 531.01 181.29C555.62 180.59 530.36 197.07 542.19 199.37C554.02 201.67 537.26 206.93 541.19 208.58C545.12 210.23 569.9 208.58 566.94 209.89C563.98 211.2 549.52 211.32 544.47 214.82C539.42 218.32 560.47 216.3 576.91 217.89C580.31 218.22 535.27 222.38 538.23 226.33C541.19 230.28 640.59 236.42 658.88 234.22C664 233.6 664.57 236.95 663.29 241.37C661.706 246.561 658.426 251.069 653.974 254.174C649.523 257.278 644.158 258.798 638.74 258.49C609.07 257.03 543.07 252.49 508.74 239.81C508.74 239.81 489.89 237.62 478.49 245.07C478.49 245.07 460.49 272.25 434.22 275.31C434.22 275.31 408.1 308.83 397.07 304.73C397.034 304.713 396.995 304.704 396.955 304.704C396.915 304.704 396.876 304.713 396.84 304.73C395.778 305.27 394.562 305.422 393.4 305.16C393.348 305.146 393.293 305.144 393.241 305.156C393.188 305.169 393.14 305.194 393.1 305.23C373.04 322.49 354.81 326.56 342.38 326.68V326.15C341.826 323.83 341.491 321.463 341.38 319.08C341.197 313.732 339.201 308.604 335.72 304.54C330.4 298.29 324.5 289.86 326.8 285.39C328.17 282.73 336.02 290.32 345.7 301.39C348.199 304.314 351.447 306.502 355.096 307.719C358.744 308.936 362.656 309.137 366.41 308.3C369.555 307.663 372.396 305.99 374.48 303.55C375.119 302.673 375.584 301.682 375.85 300.63C376.04 300.02 376.93 299.46 380.28 300.53C385.76 302.28 390.58 298.34 382.03 292.86C373.48 287.38 353.53 270.94 320.44 270.72C291.07 268.97 266.09 293.08 266.09 293.08C253.69 306.49 234.24 315.86 216.85 322.08C208.002 325.219 198.989 327.87 189.85 330.02C187.98 330.46 186.31 330.83 184.85 331.14C179.743 332.271 174.441 332.171 169.38 330.85C168.314 330.58 167.265 330.246 166.24 329.85C161.261 327.934 156.93 324.643 153.75 320.36L153.94 320.23Z" fill="#EEC72D"></path><path id="p_2" d="M2.56104 231.6C5.04104 232.88 33.361 246.47 60.561 218.42C60.561 218.42 80.0711 234.2 104.831 216.67C104.831 216.67 111.411 208.56 122.151 214.04C132.891 219.52 145.601 219.51 159.411 210.75C165.671 206.75 170.761 205.28 174.411 204.83C174.411 204.83 174.111 224.77 193.341 226.58C212.571 228.39 206.991 219.35 213.891 204.72C213.891 204.72 213.401 221.65 219.811 223.46C226.221 225.27 238.051 220.01 235.261 216.06C232.471 212.11 225.261 206.2 232.261 194.36C232.261 194.36 236.861 212.77 247.381 207.68C257.901 202.59 271.881 186.68 271.551 179.41C271.551 179.41 283.381 204.88 252.481 228.23C221.581 251.58 221.741 249.43 202.671 259.13C198.301 261.36 192.121 264.57 188.771 266.31C190.044 265.564 191.017 264.397 191.521 263.01C195.461 251.77 208.251 243.46 206.451 242.86C204.451 242.2 177.191 229.05 177.191 229.05C154.191 233.65 144.321 228.39 144.321 228.39C136.751 231.39 107.821 228.39 107.821 228.39C104.211 228.39 89.411 236.94 44.041 241.54C14.931 244.54 5.4907 237.21 2.4707 231.6" fill="#EEC72D"></path><path id="p_3" d="M222.961 330.01C228.301 330.15 256.671 330.01 257.061 311.13C257.061 311.13 262.761 307.13 267.601 303.55C268.158 303.13 268.825 302.882 269.521 302.834C270.217 302.787 270.912 302.942 271.521 303.282C272.13 303.622 272.627 304.132 272.952 304.749C273.277 305.367 273.416 306.065 273.351 306.76L272.461 316.49C272 321.94 270.617 327.273 268.371 332.26C267.193 335.039 265.557 337.602 263.531 339.84C258.531 344.9 249.611 356.72 249.611 356.72C249.281 377.72 240.241 382.72 240.241 382.72C245.591 398.46 241.521 410.72 237.581 417.87C234.81 422.922 230.511 426.969 225.301 429.43C216.301 433.61 210.841 430.43 208.301 428.02C210.561 426.73 231.301 414.11 227.381 391.1C225.691 381.21 222.081 374.79 218.381 370.67C221.363 370.703 224.304 369.977 226.928 368.56C229.552 367.143 231.773 365.081 233.381 362.57C235.135 359.935 236.291 356.949 236.768 353.82C237.244 350.691 237.03 347.495 236.14 344.458C235.25 341.42 233.705 338.615 231.615 336.238C229.525 333.861 226.94 331.971 224.041 330.7C223.701 330.54 223.341 330.39 222.981 330.25C222.959 330.239 222.94 330.223 222.927 330.203C222.913 330.183 222.904 330.16 222.902 330.136C222.9 330.111 222.905 330.087 222.915 330.065C222.925 330.043 222.941 330.024 222.961 330.01V330.01Z" fill="#EEC72D"></path><path id="p_4" d="M217.081 322.6C219.001 343.04 208.341 351.68 211.361 377.76C213.701 397.93 212.44 410.2 210.66 417.36C209.958 420.323 208.659 423.112 206.843 425.556C205.028 428.001 202.734 430.05 200.101 431.58C189.871 437.36 184.84 429.58 184.84 429.58C206.72 411.86 191.13 380.13 184.66 369.07C184.106 368.118 183.851 367.022 183.927 365.924C184.004 364.825 184.409 363.775 185.09 362.91C191.49 354.78 189.941 330.12 189.941 330.12C199.079 327.97 208.093 325.319 216.941 322.18L217.081 322.6Z" fill="#EEC72D"></path><path id="p_5" d="M322.57 322.17C323.652 322.928 324.781 323.616 325.95 324.23C323.54 327.74 311.71 363.02 311.71 363.02C316.31 400.65 305.031 411.68 297.041 413.18C297.331 412.18 303.04 393.18 296.8 381.65C296.8 381.65 304.91 363.46 296.15 352.28C296.15 352.28 297.24 340.12 311.38 323.68L312.061 322.99C313.431 321.63 315.24 320.802 317.165 320.652C319.09 320.501 321.005 321.039 322.57 322.17V322.17Z" fill="#EEC72D"></path></g><g id="shading" filter="url(#globalPencil2Filter)"><path id="p_6" d="M7.18148 234.01L6.02148 236.62" stroke="black" stroke-width="2" stroke-miterlimit="10" style="stroke-dashoffset: 0; stroke-dasharray: none;"></path><path id="p_7" d="M22.9524 236.25L20.4824 241.8" stroke="black" stroke-width="2" stroke-miterlimit="10" style="stroke-dashoffset: 0; stroke-dasharray: none;"></path><path id="p_8" d="M41.6717 231.85V231.86L37.0117 242.31" stroke="black" stroke-width="2" stroke-miterlimit="10" style="stroke-dashoffset: 0; stroke-dasharray: none;"></path><path id="p_9" d="M63.322 220.91L54.582 240.51" stroke="black" stroke-width="2" stroke-miterlimit="10" style="stroke-dashoffset: 0; stroke-dasharray: none;"></path><path id="p_10" d="M78.2111 225.14L72.6211 237.68" stroke="black" stroke-width="2" stroke-miterlimit="10" style="stroke-dashoffset: 0; stroke-dasharray: 14.7295px, 24.7295px;"></path><path id="p_11" d="M96.691 221.29L91.291 233.39" stroke="black" stroke-width="2" stroke-miterlimit="10" style="stroke-dashoffset: 0; stroke-dasharray: none;"></path><path id="p_12" d="M117.261 212.77L110.051 228.92" stroke="black" stroke-width="2" stroke-miterlimit="10" style="stroke-dashoffset: 0; stroke-dasharray: none;"></path><path id="p_13" d="M131.831 217.69L126.391 229.9" stroke="black" stroke-width="2" stroke-miterlimit="10" style="stroke-dashoffset: 0; stroke-dasharray: none;"></path><path id="p_14" d="M149.531 215.61L143.701 228.68" stroke="black" stroke-width="2" stroke-miterlimit="10" style="stroke-dashoffset: 0; stroke-dasharray: none;"></path><path id="p_15" d="M170.742 205.62L159.342 231.2" stroke="black" stroke-width="2" stroke-miterlimit="10" style="stroke-dashoffset: 0; stroke-dasharray: none;"></path><path id="p_16" d="M180.371 221.65L176.871 229.49" stroke="black" stroke-width="2" stroke-miterlimit="10" style="stroke-dashoffset: 0; stroke-dasharray: none;"></path><path id="p_17" d="M194.751 227L190.691 236.11" stroke="black" stroke-width="2" stroke-miterlimit="10" style="stroke-dashoffset: 0; stroke-dasharray: none;"></path><path id="p_18" d="M166.711 327.47L165.531 330.11" stroke="black" stroke-width="2" stroke-miterlimit="10" style="stroke-dashoffset: 0; stroke-dasharray: none;"></path><path id="p_19" d="M204.551 242.61L215.061 219.07V219.06" stroke="black" stroke-width="2" stroke-miterlimit="10" style="stroke-dashoffset: 0; stroke-dasharray: 26.7897px, 36.7897px;"></path><path id="p_20" d="M195.611 262.67L202.551 247.11" stroke="black" stroke-width="2" stroke-miterlimit="10" style="stroke-dashoffset: 0; stroke-dasharray: none;"></path><path id="p_21" d="M181.482 331.94L185.072 323.89V323.88" stroke="black" stroke-width="2" stroke-miterlimit="10" style="stroke-dashoffset: 0; stroke-dasharray: 9.8242px, 19.8242px;"></path><path id="p_22" d="M233.592 215.08L237.552 206.22" stroke="black" stroke-width="2" stroke-miterlimit="10" style="stroke-dashoffset: 0; stroke-dasharray: none;"></path><path id="p_23" d="M217.162 251.93L230.472 222.08" stroke="black" stroke-width="2" stroke-miterlimit="10" style="stroke-dashoffset: 0; stroke-dasharray: none;"></path><path id="p_24" d="M183.232 365.62L184.292 363.24V363.23L187.362 356.34L187.372 356.32L200.242 327.47L207.822 310.48" stroke="black" stroke-width="2" stroke-miterlimit="10" style="stroke-dashoffset: 0; stroke-dasharray: none;"></path><path id="p_25" d="M240.682 236.78V236.77L240.692 236.76L256.692 200.9" stroke="black" stroke-width="2" stroke-miterlimit="10" style="stroke-dashoffset: 0; stroke-dasharray: none;"></path><path id="p_26" d="M216.532 328.55L191.332 385.05" stroke="black" stroke-width="2" stroke-miterlimit="10" style="stroke-dashoffset: 0; stroke-dasharray: none;"></path><path id="p_27" d="M219.881 321.04L235.861 285.22V285.21" stroke="black" stroke-width="2" stroke-miterlimit="10" style="stroke-dashoffset: 0; stroke-dasharray: none;"></path><path id="p_28" d="M186.932 432.5L210.722 379.18V379.17V379.16" stroke="black" stroke-width="2" stroke-miterlimit="10" style="stroke-dashoffset: 0; stroke-dasharray: none;"></path><path id="p_29" d="M261.562 265.17L240.852 311.59" stroke="black" stroke-width="2" stroke-miterlimit="10" style="stroke-dashoffset: 0; stroke-dasharray: none;"></path><path id="p_30" d="M232.772 329.7V329.71L230.072 335.77" stroke="black" stroke-width="2" stroke-miterlimit="10" style="stroke-dashoffset: 0; stroke-dasharray: none;"></path><path id="p_31" d="M225.021 384.7L254.821 317.86L255.111 317.22L258.351 309.95H258.361V309.94" stroke="black" stroke-width="2" stroke-miterlimit="10" style="stroke-dashoffset: 0; stroke-dasharray: none;"></path><path id="p_32" d="M265.961 292.9V292.89L281.391 258.31V258.3" stroke="black" stroke-width="2" stroke-miterlimit="10" style="stroke-dashoffset: 0; stroke-dasharray: none;"></path><path id="p_33" d="M300.612 252.8L289.662 277.35" stroke="black" stroke-width="2" stroke-miterlimit="10" style="stroke-dashoffset: 0; stroke-dasharray: 27.8813px, 37.8813px;"></path><path id="p_34" d="M240.691 387.16L221.131 431.02" stroke="black" stroke-width="2" stroke-miterlimit="10" style="stroke-dashoffset: 0; stroke-dasharray: none;"></path><path id="p_35" d="M271.572 317.92L260.672 342.36" stroke="black" stroke-width="2" stroke-miterlimit="10" style="stroke-dashoffset: 0; stroke-dasharray: none;"></path><path id="p_36" d="M324.842 198.48L323.752 200.92" stroke="black" stroke-width="2" stroke-miterlimit="10" style="stroke-dashoffset: 0; stroke-dasharray: none;"></path><path id="p_37" d="M336.031 210.97L309.041 271.51" stroke="black" stroke-width="2" stroke-miterlimit="10" style="stroke-dashoffset: 0; stroke-dasharray: none;"></path><path id="p_38" d="M344.332 229.96L325.902 271.29" stroke="black" stroke-width="2" stroke-miterlimit="10" style="stroke-dashoffset: 0; stroke-dasharray: none;"></path><path id="p_39" d="M330.352 298.9L334.222 290.24V290.23" stroke="black" stroke-width="2" stroke-miterlimit="10" style="stroke-dashoffset: 0; stroke-dasharray: none;"></path><path id="p_40" d="M341.592 273.71L360.552 231.19L360.562 231.18" stroke="black" stroke-width="2" stroke-miterlimit="10" style="stroke-dashoffset: 0; stroke-dasharray: none;"></path><path id="p_41" d="M320.242 321.56L299.352 368.42" stroke="black" stroke-width="2" stroke-miterlimit="10" style="stroke-dashoffset: 0; stroke-dasharray: none;"></path><path id="p_42" d="M400.422 141.82V141.81V141.8V141.79L402.802 136.46" stroke="black" stroke-width="2" stroke-miterlimit="10" style="stroke-dashoffset: 0; stroke-dasharray: none;"></path><path id="p_43" d="M345.581 302.36L340.041 314.75V314.76" stroke="black" stroke-width="2" stroke-miterlimit="10" style="stroke-dashoffset: 0; stroke-dasharray: none;"></path><path id="p_44" d="M377.471 230.85L356.191 278.57" stroke="black" stroke-width="2" stroke-miterlimit="10" style="stroke-dashoffset: 0; stroke-dasharray: none;"></path><path id="p_45" d="M311.992 377.66L296.672 412.01" stroke="black" stroke-width="2" stroke-miterlimit="10" style="stroke-dashoffset: 0; stroke-dasharray: none;"></path><path id="p_46" d="M406.671 165.37L402.191 175.43" stroke="black" stroke-width="2" stroke-miterlimit="10" style="stroke-dashoffset: 0; stroke-dasharray: none;"></path><path id="p_47" d="M359.342 309.1L351.752 326.1" stroke="black" stroke-width="2" stroke-miterlimit="10" style="stroke-dashoffset: 0; stroke-dasharray: none;"></path><path id="p_48" d="M420.561 171.83L369.811 285.61" stroke="black" stroke-width="2" stroke-miterlimit="10" style="stroke-dashoffset: 0.0001; stroke-dasharray: 125.585px, 135.585px;"></path><path id="p_49" d="M431.052 185.9L382.752 294.2L379.752 300.92L371.412 319.63" stroke="black" stroke-width="2" stroke-miterlimit="10" style="stroke-dashoffset: 0; stroke-dasharray: none;"></path><path id="p_50" d="M443.072 196.56L394.432 305.6" stroke="black" stroke-width="2" stroke-miterlimit="10" style="stroke-dashoffset: 0; stroke-dasharray: 120.397px, 130.397px;"></path><path id="p_51" d="M462.922 189.62L415.982 294.86" stroke="black" stroke-width="2" stroke-miterlimit="10" style="stroke-dashoffset: 0; stroke-dasharray: none;"></path><path id="p_52" d="M489.722 167.13V167.14L442.172 273.74" stroke="black" stroke-width="2" stroke-miterlimit="10" style="stroke-dashoffset: 0; stroke-dasharray: none;"></path><path id="p_53" d="M500.662 180.21L465.242 259.62V259.63" stroke="black" stroke-width="2" stroke-miterlimit="10" style="stroke-dashoffset: 0; stroke-dasharray: none;"></path><path id="p_54" d="M516.022 145.77V145.78L513.242 152" stroke="black" stroke-width="2" stroke-miterlimit="10" style="stroke-dashoffset: 0; stroke-dasharray: none;"></path><path id="p_55" d="M517.132 180.86L490.402 240.8" stroke="black" stroke-width="2" stroke-miterlimit="10" style="stroke-dashoffset: 0; stroke-dasharray: none;"></path><path id="p_56" d="M533.542 181.66L507.482 240.1" stroke="black" stroke-width="2" stroke-miterlimit="10" style="stroke-dashoffset: 0; stroke-dasharray: none;"></path><path id="p_57" d="M542.192 199.88L522.262 244.55" stroke="black" stroke-width="2" stroke-miterlimit="10" style="stroke-dashoffset: 0; stroke-dasharray: none;"></path><path id="p_58" d="M546.072 228.77L537.502 247.99" stroke="black" stroke-width="2" stroke-miterlimit="10" style="stroke-dashoffset: 0; stroke-dasharray: none;"></path><path id="p_59" d="M554.571 209.71L553.451 212.23" stroke="black" stroke-width="2" stroke-miterlimit="10" style="stroke-dashoffset: 0; stroke-dasharray: none;"></path><path id="p_60" d="M551.121 217.45L548.891 222.44" stroke="black" stroke-width="2" stroke-miterlimit="10" style="stroke-dashoffset: 0; stroke-dasharray: none;"></path><path id="p_61" d="M562.021 230.6L553.041 250.73" stroke="black" stroke-width="2" stroke-miterlimit="10" style="stroke-dashoffset: 0; stroke-dasharray: none;"></path><path id="p_62" d="M567.761 217.71L566.871 219.71" stroke="black" stroke-width="2" stroke-miterlimit="10" style="stroke-dashoffset: 0; stroke-dasharray: none;"></path><path id="p_63" d="M578.181 231.96L568.811 252.96" stroke="black" stroke-width="2" stroke-miterlimit="10" style="stroke-dashoffset: 0; stroke-dasharray: 23.9956px, 33.9956px;"></path><path id="p_64" d="M594.452 233.08L584.752 254.82" stroke="black" stroke-width="2" stroke-miterlimit="10" style="stroke-dashoffset: 0; stroke-dasharray: none;"></path><path id="p_65" d="M610.812 233.99L600.842 256.34" stroke="black" stroke-width="2" stroke-miterlimit="10" style="stroke-dashoffset: 0; stroke-dasharray: 25.4729px, 35.4729px;"></path><path id="p_66" d="M627.271 234.67L617.041 257.6" stroke="black" stroke-width="2" stroke-miterlimit="10" style="stroke-dashoffset: 0; stroke-dasharray: none;"></path><path id="p_67" d="M643.881 235.02L633.371 258.6" stroke="black" stroke-width="2" stroke-miterlimit="10" style="stroke-dashoffset: 0; stroke-dasharray: 26.8162px, 36.8162px;"></path><path id="p_68" d="M660.801 234.68L651.461 255.64" stroke="black" stroke-width="2" stroke-miterlimit="10" style="stroke-dashoffset: 0; stroke-dasharray: none;"></path></g><g id="lines" filter="url(#globalPencil1Filter)"><path id="p_69" d="M9.25 209.58L84.64 167.06" stroke="black" stroke-width="2" stroke-miterlimit="10" style="stroke-dashoffset: 0; stroke-dasharray: none;"></path><path id="p_70" d="M124.971 308.21L172.311 275" stroke="black" stroke-width="2" stroke-miterlimit="10" style="stroke-dashoffset: 0; stroke-dasharray: 58.8272px, 68.8272px;"></path><path id="p_71" d="M197.51 328.5L133.52 343.71" stroke="black" stroke-width="2" stroke-miterlimit="10" style="stroke-dashoffset: 0; stroke-dasharray: none;"></path><path id="p_72" d="M169.301 330.821C169.301 330.821 165.031 352.82 168.641 366C172.251 379.18 170.641 410.06 184.751 429.45C184.751 429.45 189.751 437.22 200.011 431.45C202.645 429.925 204.94 427.877 206.756 425.434C208.572 422.991 209.87 420.203 210.571 417.24C212.351 410.08 213.571 397.811 211.271 377.641C208.271 351.561 218.911 342.92 216.991 322.48" stroke="black" stroke-width="2" stroke-miterlimit="10" style="stroke-dashoffset: 0; stroke-dasharray: none;"></path><path id="p_73" d="M206.451 425.84C206.451 425.84 212.091 435.43 225.211 429.32C230.422 426.859 234.72 422.812 237.491 417.76C241.431 410.63 245.491 398.35 240.151 382.61C240.151 382.61 249.151 377.61 249.521 356.61C249.521 356.61 258.521 344.79 263.441 339.73C265.467 337.492 267.103 334.929 268.281 332.15C270.526 327.162 271.909 321.83 272.371 316.38L273.261 306.65C273.326 305.955 273.188 305.257 272.863 304.64C272.538 304.022 272.041 303.512 271.432 303.172C270.823 302.832 270.128 302.677 269.432 302.724C268.736 302.772 268.069 303.02 267.511 303.44C262.671 307.07 256.971 311.02 256.971 311.02C256.581 329.88 228.211 330.02 222.871 329.9C222.842 329.908 222.815 329.926 222.797 329.95C222.778 329.974 222.769 330.004 222.769 330.035C222.769 330.066 222.778 330.095 222.797 330.12C222.815 330.144 222.842 330.162 222.871 330.17C223.231 330.31 223.591 330.46 223.931 330.62C226.83 331.891 229.415 333.781 231.505 336.158C233.596 338.535 235.14 341.341 236.03 344.378C236.92 347.415 237.134 350.611 236.658 353.74C236.181 356.869 235.026 359.855 233.271 362.49C231.664 365.001 229.443 367.061 226.818 368.477C224.194 369.892 221.253 370.616 218.271 370.58C221.971 374.71 225.581 381.13 227.271 391.02C231.441 415.35 207.991 428.02 207.991 428.02" stroke="black" stroke-width="2" stroke-miterlimit="10" style="stroke-dashoffset: 0; stroke-dasharray: none;"></path><path id="p_74" d="M157.822 303.18C162.302 299.85 174.341 291.09 178.911 289.79C178.911 289.79 188.662 295.51 179.982 307.79C177.215 311.947 173.245 315.16 168.602 317C167.675 317.339 166.662 317.356 165.724 317.05C164.787 316.743 163.979 316.13 163.431 315.31L157.302 306.2C156.988 305.725 156.868 305.148 156.964 304.587C157.061 304.026 157.367 303.523 157.822 303.18V303.18Z" stroke="black" stroke-width="2" stroke-miterlimit="10" style="stroke-dashoffset: 0; stroke-dasharray: none;"></path><path id="p_75" d="M271.99 293.67C271.99 293.67 280.32 313.4 312.75 316.03" stroke="black" stroke-width="2" stroke-miterlimit="10" style="stroke-dashoffset: 0; stroke-dasharray: none;"></path><path id="p_76" d="M2.29102 231.37C2.29102 231.37 31.991 247.65 60.481 218.28C60.481 218.28 79.991 234.06 104.751 216.52C104.751 216.52 111.331 208.41 122.071 213.89C132.811 219.37 145.521 219.37 159.331 210.61C165.591 206.61 170.681 205.13 174.331 204.69C174.331 204.69 174.031 224.63 193.261 226.44C212.491 228.25 206.911 219.21 213.811 204.58C213.811 204.58 213.321 221.51 219.731 223.32C226.141 225.13 237.971 219.87 235.181 215.92C232.391 211.97 225.181 206.06 232.181 194.22C232.181 194.22 236.781 212.63 247.301 207.54C257.821 202.45 271.801 186.54 271.471 179.26C271.471 179.26 283.301 204.74 252.401 228.09C221.501 251.44 221.661 249.29 202.591 258.99C197.961 261.35 191.301 264.8 188.131 266.46" stroke="black" stroke-width="2" stroke-miterlimit="10" style="stroke-dashoffset: 0; stroke-dasharray: none;"></path><path id="p_77" d="M189.851 330C189.851 330 191.401 354.66 185.001 362.79C184.319 363.655 183.914 364.705 183.838 365.804C183.761 366.902 184.016 367.998 184.57 368.95C191.04 380.01 206.631 411.74 184.751 429.45" stroke="black" stroke-width="2" stroke-miterlimit="10" style="stroke-dashoffset: 0; stroke-dasharray: none;"></path><path id="p_78" d="M404.7 131.1C404.35 132.25 391.08 176.1 430.02 171.1C430.02 171.1 427.62 195.77 446.02 196.31C468.6 196.97 509.58 138.67 531.94 139.98C531.94 139.98 507.28 149.98 494.79 176.25C494.79 176.25 500.05 182.5 509.91 178.88C519.77 175.26 506.3 181.88 530.91 181.19C555.52 180.5 530.26 196.97 542.09 199.27C553.92 201.57 537.16 206.83 541.09 208.47C545.02 210.11 569.8 208.47 566.84 209.79C563.88 211.11 549.42 211.21 544.37 214.72C539.32 218.23 560.37 216.2 576.81 217.79C580.21 218.12 535.17 222.28 538.13 226.23C541.09 230.18 640.49 236.32 658.78 234.12C663.9 233.5 664.47 236.85 663.19 241.27C661.607 246.461 658.327 250.969 653.875 254.072C649.423 257.175 644.057 258.692 638.64 258.38C608.97 256.93 542.97 252.38 508.64 239.71C508.64 239.71 489.79 237.51 478.39 244.97C478.39 244.97 460.39 272.14 434.12 275.21C434.12 275.21 408 308.73 396.97 304.63C396.934 304.613 396.895 304.604 396.855 304.604C396.815 304.604 396.776 304.613 396.74 304.63C395.678 305.17 394.462 305.322 393.3 305.06C393.248 305.044 393.193 305.041 393.14 305.054C393.087 305.066 393.039 305.092 393 305.13C356.24 336.76 325.62 324.13 325.62 324.13C323.21 327.64 311.38 362.92 311.38 362.92C315.98 400.55 304.7 411.58 296.71 413.08C293.49 413.68 290.8 412.73 289.9 411.36C276.97 391.64 275.43 353.94 275.43 350.21C275.43 346.48 286.83 308.57 286.83 308.57" stroke="black" stroke-width="2" stroke-miterlimit="10" style="stroke-dashoffset: 0; stroke-dasharray: none;"></path><path id="p_79" d="M153.852 320.09C153.852 320.09 164.921 332.03 181.251 325.45C197.581 318.87 224.862 300.8 237.792 283.15C250.722 265.5 275.711 259.92 283.381 257.51C291.051 255.1 322.511 249.51 325.381 233.29C328.251 217.07 324.722 199.1 323.292 197.02C323.292 197.02 332.831 200.63 336.121 208.85C339.411 217.07 341.601 238.99 360.231 231.54C360.231 231.54 365.602 228.74 365.602 218.72C366.239 219.898 367.011 220.999 367.901 222C369.051 223.15 367.901 232 375.621 231C378.411 230.65 382.961 228.81 387.731 225.35C394.447 220.383 399.575 213.572 402.492 205.744C405.409 197.917 405.988 189.411 404.161 181.26C401.161 167.52 397.211 142.65 404.711 131.08" stroke="black" stroke-width="2" stroke-miterlimit="10" style="stroke-dashoffset: 0; stroke-dasharray: none;"></path><path id="p_80" d="M296.751 413.13C297.041 412.13 302.751 393.13 296.511 381.6C296.511 381.6 304.621 363.41 295.861 352.23C295.861 352.23 296.951 340.07 311.091 323.63L311.771 322.94C313.142 321.581 314.951 320.752 316.876 320.602C318.801 320.452 320.716 320.99 322.281 322.12C323.363 322.878 324.492 323.566 325.661 324.18" stroke="black" stroke-width="2" stroke-miterlimit="10" style="stroke-dashoffset: 0; stroke-dasharray: none;"></path><path id="p_81" d="M194.621 270.88C194.621 270.88 190.892 289.95 207.332 302.22" stroke="black" stroke-width="2" stroke-miterlimit="10" style="stroke-dashoffset: 0; stroke-dasharray: none;"></path><path id="p_82" d="M213.471 263.87C213.471 263.87 222.671 262.331 228.591 277.021" stroke="black" stroke-width="2" stroke-miterlimit="10" style="stroke-dashoffset: 0; stroke-dasharray: 22.4147px, 32.4147px;"></path><path id="p_83" d="M203.822 278.22C203.822 278.22 202.341 281.35 206.621 284.14" stroke="black" stroke-width="2" stroke-miterlimit="10" style="stroke-dashoffset: 0; stroke-dasharray: none;"></path><path id="p_84" d="M342.341 326.11C341.787 323.79 341.452 321.423 341.341 319.04C341.157 313.689 339.161 308.559 335.681 304.49C330.361 298.25 324.461 289.82 326.761 285.35C328.131 282.69 335.981 290.27 345.661 301.35C348.161 304.272 351.41 306.459 355.058 307.676C358.706 308.893 362.617 309.095 366.371 308.26C369.516 307.623 372.357 305.951 374.441 303.51C375.082 302.631 375.547 301.636 375.811 300.58C376.001 299.98 376.891 299.42 380.241 300.49C385.721 302.24 390.541 298.3 381.991 292.82C373.441 287.34 353.491 270.9 320.401 270.68C291.031 268.93 266.051 293.04 266.051 293.04C244.271 316.59 200.751 327.69 184.831 331.04C178.609 332.43 172.114 331.953 166.161 329.67C160.221 327.389 155.232 323.158 152.011 317.67C150.62 315.279 149.786 312.605 149.572 309.847C149.357 307.089 149.767 304.318 150.771 301.74C154.181 292.89 163.411 278.08 188.191 266.43C188.953 266.08 189.638 265.583 190.206 264.967C190.774 264.35 191.214 263.628 191.501 262.84C195.441 251.6 208.231 243.29 206.431 242.69C204.431 242.03 177.171 228.88 177.171 228.88C154.171 233.48 144.301 228.22 144.301 228.22C136.731 231.22 107.801 228.22 107.801 228.22C104.191 228.22 89.3912 236.77 44.0212 241.37C-1.34879 245.97 1.02121 225.7 1.02121 225.7C1.32121 199.86 38.7212 203.34 73.7912 190.19C108.861 177.04 125.951 179.19 136.041 180.55C146.131 181.91 196.091 170.47 207.041 169.15C217.991 167.83 247.371 159.07 247.371 159.07C280.681 140.66 284.631 144.6 290.371 140.66C296.111 136.72 313.371 130.58 313.371 130.58C351.951 116.58 381.971 118.08 415.731 104.06C449.491 90.0402 492.881 86.0602 492.881 86.0602C508.221 62.8302 607.731 49.9002 636.881 43.3202C655.077 39.0353 672.416 31.698 688.161 21.6201" stroke="black" stroke-width="2" stroke-miterlimit="10" style="stroke-dashoffset: 0; stroke-dasharray: none;"></path><path id="p_85" d="M38.6202 199.48V199.58C39.2242 201.528 39.0817 203.631 38.2203 205.48C37.3589 207.328 35.8405 208.79 33.9605 209.58L13.7706 217.84C9.23057 219.06 3.31055 215.66 6.50055 212.22C6.53171 212.173 6.56852 212.129 6.61041 212.09" stroke="black" stroke-width="2" stroke-miterlimit="10" style="stroke-dashoffset: 0; stroke-dasharray: none;"></path></g><g id="arrows" filter="url(#globalPencil1Filter)"><path id="p_86" d="M246.15 384.51C249.15 383.36 266.21 379.58 276.65 377.66" stroke="black" stroke-width="2" stroke-miterlimit="10" style="stroke-dashoffset: 0; stroke-dasharray: none;"></path><path id="p_87" d="M273.541 381.74L276.631 377.67L272.271 374.72" stroke="black" stroke-width="2" stroke-miterlimit="10" style="stroke-dashoffset: 0; stroke-dasharray: 11.3743px, 21.3743px;"></path><path id="p_88" d="M247.812 380.28L245.602 384.67L250.232 386.7" stroke="black" stroke-width="2" stroke-miterlimit="10" style="stroke-dashoffset: 0; stroke-dasharray: 10.9704px, 20.9704px;"></path><path id="p_89" d="M177.74 160.29C180.74 159.14 421.85 106.54 658.67 2.3501" stroke="black" stroke-width="2" stroke-miterlimit="10" style="stroke-dashoffset: 0; stroke-dasharray: none;"></path><path id="p_90" d="M657.1 7.21L658.67 2.35L653.59 1" stroke="black" stroke-width="2" stroke-miterlimit="10" style="stroke-dashoffset: 0; stroke-dasharray: 11.3636px, 21.3636px;"></path><path id="p_91" d="M179.431 156.06L177.211 160.45L181.851 162.48" stroke="black" stroke-width="2" stroke-miterlimit="10" style="stroke-dashoffset: 0; stroke-dasharray: 10.984px, 20.984px;"></path><path id="p_92" d="M168.97 267.4C163.84 266.23 155.97 250.6 154.84 239.51" stroke="black" stroke-width="2" stroke-miterlimit="10" style="stroke-dashoffset: 0; stroke-dasharray: none;"></path><path id="p_93" d="M158.591 242.7L155.041 239.03L151.471 242.9" stroke="black" stroke-width="2" stroke-miterlimit="10" style="stroke-dashoffset: 0; stroke-dasharray: 11.3712px, 21.3712px;"></path><path id="p_94" d="M164.311 268.43L169.161 267.65L168.091 262.7" stroke="black" stroke-width="2" stroke-miterlimit="10" style="stroke-dashoffset: 0; stroke-dasharray: 10.9766px, 20.9766px;"></path></g><g id="scribbles" filter="url(#globalPencil1Filter)"><path id="p_95" d="M293.973 97.2701C299.923 90.5401 302.443 81.54 304.973 73.11C308.014 63.1253 310.39 52.9496 312.083 42.6501C312.633 39.1201 313.083 35.3301 311.453 32.1401C310.873 30.9601 309.793 29.81 308.453 29.96C307.613 30.1607 306.874 30.6579 306.373 31.36C304.553 33.6369 303.114 36.1933 302.112 38.93C295.932 54.33 294.462 72.57 302.542 87.48C302.782 87.94 303.103 88.48 303.623 88.48C309.483 89.38 313.623 76.8401 314.953 72.7601C314.313 74.6901 315.653 79.76 316.553 81.41C318.313 84.75 318.873 82.41 321.053 81.47C332.003 76.89 344.193 75.15 355.723 72.62" stroke="black" stroke-miterlimit="10" style="stroke: rgb(71, 71, 71); stroke-dashoffset: 0; stroke-dasharray: none;"></path><path id="p_96" d="M363.783 66.3902C365.483 64.8002 368.263 63.8801 370.123 65.2801C371.753 66.5001 371.933 68.8402 371.863 70.8802C371.67 76.2353 370.714 81.5354 369.023 86.6202" stroke="black" stroke-miterlimit="10" style="stroke: rgb(71, 71, 71); stroke-dashoffset: 0; stroke-dasharray: 30.1084px, 40.1084px;"></path><path id="p_97" d="M366.412 78.4199L368.092 87.0299C368.182 87.4599 368.312 87.95 368.712 88.11C371.021 85.6054 373.504 83.2663 376.142 81.11" stroke="black" stroke-miterlimit="10" style="stroke: rgb(71, 71, 71); stroke-dashoffset: 0; stroke-dasharray: none;"></path></g></svg>
