<svg width="674" height="672" viewBox="0 0 674 672" fill="none" xmlns="http://www.w3.org/2000/svg" data-svg-name="inoutArt" style="touch-action: pan-y;"><feComposite class="js-watercolor-anim" in="SourceGraphic" in2="layer-2" operator="arithmetic" k1="-0.8" k2="0.8" k3="2" style="touch-action: pan-y;"></feComposite>--&gt;<g id="base" style="touch-action: pan-y;"><path id="p" d="M56.293 464.525C56.293 457.526 61.11 448.999 67.1041 445.48L100.708 425.753L256.795 334.116C259.815 332.347 262.553 332.165 264.523 333.349L264.881 333.577L265.195 333.824C265.653 334.21 266.051 334.667 266.372 335.177C266.448 335.307 266.532 335.437 266.602 335.573C266.672 335.71 266.749 335.86 266.819 336.009C266.958 336.311 267.078 336.622 267.178 336.939C267.178 336.998 267.216 337.05 267.229 337.102C267.299 337.343 267.363 337.596 267.421 337.856C267.421 337.934 267.421 338.019 267.466 338.097L267.542 338.539V338.656L267.6 339.157C267.6 339.352 267.6 339.547 267.638 339.749C267.677 339.951 267.638 340.172 267.638 340.4L267.862 421.116C267.862 421.318 267.862 421.519 267.862 421.721V422.137C267.862 422.332 267.862 422.527 267.811 422.722C267.76 422.918 267.753 423.249 267.715 423.516C267.677 423.783 267.619 424.101 267.568 424.394L267.453 424.986C267.408 425.168 267.363 425.357 267.312 425.539C267.261 425.721 267.184 426.059 267.107 426.326C267.063 426.504 267.009 426.68 266.947 426.853C266.864 427.119 266.775 427.392 266.679 427.659C266.351 428.612 265.962 429.542 265.514 430.443L265.348 430.775C264.922 431.628 264.448 432.455 263.928 433.253L263.819 433.409C263.647 433.675 263.467 433.936 263.282 434.196L262.981 434.612L262.495 435.262L262.073 435.783C261.939 435.945 261.798 436.101 261.657 436.258C261.42 436.524 261.177 436.791 260.934 437.045L260.474 437.513L260.109 437.858L259.469 438.404L259.098 438.716C258.868 438.898 258.644 439.067 258.414 439.236C258.305 439.321 258.196 439.406 258.081 439.484L257.569 439.828C257.397 439.945 257.224 440.049 257.051 440.154L214.882 464.869L109.504 526.73L67.3471 551.479C67.136 551.602 66.9313 551.713 66.7074 551.817C66.5986 551.882 66.4835 551.934 66.3747 551.986L65.9205 552.194C65.6583 552.311 65.396 552.415 65.1401 552.5C64.8842 552.584 64.801 552.617 64.6283 552.669L64.4492 552.714L64.0334 552.812C63.7476 552.881 63.4565 552.927 63.1634 552.948H62.8435C62.7971 552.958 62.7492 552.958 62.7028 552.948C62.4898 552.962 62.2761 552.962 62.0631 552.948H61.9544C61.7881 552.948 61.6217 552.948 61.4618 552.89H61.3147L61.0525 552.838L60.7709 552.766H60.675C60.5427 552.728 60.4124 552.682 60.2847 552.63V552.63L60.144 552.565C60.0195 552.513 59.8977 552.454 59.7793 552.389H59.7475L59.6194 552.317C57.6683 551.173 56.4593 548.721 56.4529 545.241L56.293 464.525Z" fill="#FFFF00" style="touch-action: pan-y;"></path><path id="p_2" d="M205.23 638.322L59.8379 552.408C60.002 552.498 60.1707 552.578 60.3433 552.649C60.471 552.701 60.6013 552.747 60.7336 552.786H60.8038L61.0853 552.857C61.4171 552.938 61.7554 552.988 62.0961 553.007C62.3091 553.02 62.5227 553.02 62.7358 553.007C62.7822 553.017 62.83 553.017 62.8765 553.007C62.9829 553.016 63.0899 553.016 63.1963 553.007C63.4895 552.985 63.7805 552.94 64.0664 552.87C64.2068 552.846 64.3456 552.814 64.4821 552.773L64.6613 552.727C64.8276 552.682 65.0004 552.623 65.1731 552.558C65.3458 552.493 65.6912 552.369 65.9535 552.252C66.1006 552.194 66.2541 552.122 66.4077 552.044C66.5612 551.966 66.6316 551.94 66.7403 551.875C66.945 551.771 67.1497 551.661 67.38 551.537L109.536 526.789L214.94 464.947L257.11 440.232C257.282 440.127 257.455 440.023 257.628 439.906C258.158 439.566 258.669 439.195 259.157 438.794C259.286 438.698 259.41 438.593 259.528 438.482C259.75 438.311 259.964 438.129 260.167 437.936C260.289 437.831 260.411 437.714 260.532 437.591C261.256 436.889 261.932 436.137 262.554 435.34C262.726 435.132 262.886 434.918 263.04 434.69C263.148 434.557 263.248 434.418 263.34 434.274C263.571 433.968 263.782 433.623 263.98 433.331C264.5 432.533 264.974 431.706 265.4 430.853C265.464 430.742 265.515 430.631 265.567 430.521C266.014 429.62 266.403 428.69 266.731 427.737C266.833 427.47 266.923 427.197 267 426.931C267.062 426.758 267.115 426.582 267.159 426.404C267.294 425.955 267.409 425.506 267.505 425.064C267.676 424.319 267.795 423.562 267.863 422.8C267.863 422.605 267.901 422.41 267.914 422.215C267.927 422.02 267.914 421.935 267.914 421.799C267.914 421.662 267.914 421.396 267.914 421.194L267.69 340.478C267.69 340.256 267.69 340.04 267.69 339.827C267.69 339.625 267.69 339.43 267.652 339.235L267.594 338.734V338.617C267.594 338.468 267.55 338.318 267.518 338.175C267.486 338.032 267.518 338.012 267.473 337.934C267.415 337.674 267.358 337.421 267.281 337.18C267.281 337.128 267.249 337.076 267.23 337.017C267.133 336.699 267.013 336.388 266.872 336.087C266.807 335.938 266.734 335.793 266.654 335.651C266.585 335.515 266.508 335.382 266.424 335.255C266.103 334.745 265.706 334.288 265.247 333.902C265.144 333.811 265.036 333.733 264.933 333.655L264.735 333.518L386.982 405.753L410.127 419.412C412.078 420.563 413.281 423.009 413.325 426.482L413.549 507.198C413.549 507.601 413.549 508.011 413.504 508.421L413.466 508.811C413.466 508.993 413.466 509.175 413.415 509.358C413.415 509.442 413.415 509.52 413.37 509.605C413.332 509.891 413.28 510.19 413.223 510.483C413.223 510.619 413.185 510.749 413.153 510.886C413.121 511.023 413.121 511.023 413.108 511.088C413.063 511.27 413.018 511.458 412.967 511.647C412.916 511.836 412.897 511.985 412.846 512.154L412.762 512.434L412.628 512.889L412.513 513.28L412.334 513.774C412.295 513.897 412.251 514.015 412.206 514.138C412.161 514.262 412.167 514.255 412.142 514.32C412.02 514.652 411.886 514.971 411.745 515.309V515.348L411.681 515.491C411.573 515.751 411.457 516.011 411.336 516.265C411.285 516.363 411.233 516.46 411.189 516.558C411.144 516.655 411.08 516.779 411.022 516.889L410.869 517.202C410.747 517.436 410.619 517.657 410.491 517.852L410.389 518.041L410.357 518.099C410.178 518.418 409.986 518.75 409.794 519.036C409.766 519.081 409.736 519.124 409.705 519.166C409.641 519.276 409.564 519.38 409.494 519.491C409.423 519.602 409.282 519.823 409.167 519.985C409.052 520.148 409.026 520.18 408.956 520.278L408.655 520.694C408.585 520.785 408.521 520.889 408.444 520.987C408.368 521.085 408.259 521.215 408.169 521.325L407.747 521.852L407.562 522.073C407.491 522.164 407.408 522.242 407.331 522.327C407.095 522.593 406.858 522.854 406.608 523.107L406.378 523.361L406.148 523.576L405.783 523.927C405.579 524.115 405.374 524.291 405.144 524.473L404.772 524.785C404.542 524.967 404.318 525.137 404.088 525.306L403.762 525.546C403.416 525.787 403.071 526.015 402.725 526.197L360.556 550.952L255.127 612.806L212.97 637.554L212.279 637.925C212.215 637.961 212.149 637.994 212.081 638.022C211.908 638.114 211.735 638.192 211.563 638.263L211.448 638.322H211.384L210.904 638.504L210.789 638.549C210.59 638.621 210.392 638.679 210.2 638.731H210.168H210.117C209.82 638.814 209.519 638.879 209.215 638.927V638.927C208.973 638.963 208.73 638.987 208.486 638.998H208.345C208.134 638.998 207.923 638.998 207.705 638.998H207.597C207.43 638.998 207.27 638.966 207.104 638.94H207.021H206.957C206.774 638.908 206.592 638.867 206.413 638.816V638.816C206.248 638.767 206.086 638.709 205.927 638.64H205.863L205.786 638.601C205.652 638.543 205.518 638.478 205.39 638.406L205.319 638.367L205.23 638.322Z" fill="#E61D1D" style="touch-action: pan-y;"></path><path id="p_3" d="M78.1714 412.433C74.5955 410.332 73.6296 403.899 77.1352 396.387L152.851 234.135C155.013 229.497 158.25 225.913 161.499 224.014C164.551 222.219 167.602 221.913 169.764 223.611C169.904 223.721 170.039 223.838 170.167 223.962V223.962L246.542 296.945C246.65 297.049 246.753 297.153 246.849 297.264L246.912 297.342C246.99 297.429 247.063 297.52 247.13 297.615L247.207 297.712L247.277 297.81C247.354 297.914 247.418 298.018 247.488 298.122C247.558 298.227 247.622 298.335 247.68 298.447C247.68 298.493 247.738 298.539 247.763 298.591C247.789 298.643 247.872 298.799 247.917 298.909C247.962 299.02 248.032 299.163 248.083 299.293L248.217 299.651C248.301 299.891 248.371 300.139 248.435 300.392C248.435 300.47 248.48 300.548 248.493 300.626L248.569 300.978C248.614 301.244 248.652 301.511 248.684 301.791C248.716 302.07 248.742 302.376 248.755 302.675C248.758 302.727 248.758 302.779 248.755 302.831C248.772 303.432 248.755 304.034 248.704 304.633L248.646 305.179C248.646 305.387 248.589 305.596 248.557 305.83C248.525 306.064 248.493 306.252 248.454 306.48C248.454 306.565 248.454 306.656 248.403 306.74L248.345 307.013V307.085C248.345 307.215 248.288 307.352 248.256 307.482V307.579V307.657C248.256 307.794 248.186 307.93 248.147 308.067C248.109 308.204 248.115 308.191 248.102 308.249C248.09 308.308 248.07 308.366 248.051 308.425C248.032 308.483 247.981 308.665 247.949 308.783L247.834 309.147C247.813 309.202 247.796 309.258 247.783 309.316V309.387L247.699 309.628C247.635 309.817 247.571 309.999 247.501 310.187L247.386 310.513C247.29 310.76 247.188 311.007 247.092 311.248L246.842 311.833L246.573 312.418L246.51 312.555C246.407 312.776 246.298 312.997 246.183 313.205C246.164 313.255 246.14 313.303 246.113 313.348C246.079 313.413 246.047 313.472 246.017 313.524L245.934 313.674C245.851 313.83 245.767 313.986 245.678 314.142L245.499 314.461C245.465 314.506 245.435 314.554 245.409 314.604V314.656C245.326 314.805 245.236 314.948 245.147 315.098L245.083 315.196C245.025 315.293 244.955 315.391 244.897 315.488C244.763 315.696 244.629 315.905 244.488 316.106L244.264 316.418L244.066 316.698L243.861 316.978L243.823 317.023L243.58 317.335C243.407 317.563 243.228 317.784 243.049 317.986C242.966 318.077 242.889 318.175 242.812 318.266L242.319 318.818L241.808 319.352L241.539 319.618L241.021 320.113L240.701 320.392C240.526 320.549 240.347 320.698 240.164 320.841C240.061 320.932 239.953 321.017 239.844 321.101L239.249 321.537L238.961 321.745C238.667 321.947 238.36 322.142 238.053 322.324L85.8543 411.613L85.5154 411.815L85.1507 412.003L84.9459 412.107L84.8565 412.146L84.4149 412.355L84.2296 412.433L83.7498 412.621L83.6281 412.667H83.577L83.4235 412.725L83.27 412.771L83.0396 412.836H83.0012H82.963L82.7518 412.888H82.6686C82.4639 412.933 82.272 412.979 82.0801 413.005H82.0417L81.6515 413.057H81.5875H81.3509H81.2038C80.9948 413.057 80.7816 413.057 80.5641 413.057H80.4744C80.3081 413.057 80.1418 413.057 79.9818 412.998H79.8283L79.5789 412.946L79.3293 412.881H79.2973C79.1274 412.831 78.9609 412.771 78.7985 412.699L78.664 412.641C78.5373 412.587 78.4136 412.526 78.2931 412.459L78.1652 412.387L78.1714 412.433Z" fill="#FFFF00" style="touch-action: pan-y;"></path><path id="p_4" d="M100.708 425.753L78.459 412.595C79.4529 413.081 80.5631 413.266 81.6575 413.129C82.09 413.083 82.5179 413 82.9369 412.882H82.9752C83.1159 412.882 83.2567 412.803 83.3975 412.758L83.6022 412.686L83.7237 412.641C83.9412 412.563 84.1651 412.478 84.3634 412.374C84.5617 412.27 84.7152 412.218 84.8943 412.127L85.099 412.023L85.4637 411.834L85.8028 411.639L237.886 322.363C238.193 322.181 238.526 321.986 238.794 321.785C239.52 321.293 240.208 320.748 240.854 320.152C241.123 319.913 241.385 319.66 241.641 319.391C241.82 319.222 241.986 319.04 242.153 318.858C242.319 318.676 242.492 318.493 242.645 318.305C242.799 318.116 242.805 318.123 242.882 318.025C243.151 317.713 243.413 317.375 243.656 317.049L243.694 317.004L243.899 316.724L244.097 316.445L244.321 316.132C244.462 315.931 244.596 315.723 244.731 315.515C244.788 315.417 244.859 315.319 244.916 315.222L244.98 315.124L245.242 314.682V314.63C245.269 314.58 245.298 314.532 245.332 314.487C245.332 314.428 245.396 314.37 245.434 314.311C245.462 314.265 245.488 314.217 245.511 314.168V314.168C245.601 314.012 245.684 313.856 245.767 313.7L245.85 313.55L245.908 313.453C245.908 313.453 245.908 313.453 245.908 313.401C245.908 313.349 245.908 313.401 245.908 313.401C245.935 313.355 245.958 313.307 245.978 313.258C246.093 313.043 246.196 312.822 246.304 312.607C246.304 312.607 246.304 312.536 246.356 312.503L246.624 311.918L246.771 311.586C246.771 311.501 246.835 311.417 246.874 311.332C246.97 311.092 247.072 310.845 247.168 310.597L247.283 310.272C247.353 310.084 247.417 309.901 247.481 309.713C247.499 309.673 247.514 309.631 247.526 309.589L247.565 309.472V309.401C247.622 309.225 247.68 309.049 247.731 308.867C247.782 308.685 247.801 308.633 247.833 308.51C247.865 308.386 247.833 308.392 247.884 308.334C247.936 308.275 247.884 308.217 247.929 308.152C247.974 308.087 248.006 307.879 248.038 307.742V307.664V307.566C248.076 307.41 248.115 307.254 248.147 307.098V307.02C248.147 307.02 248.147 307.02 248.147 306.975C248.149 306.925 248.149 306.875 248.147 306.825C248.147 306.74 248.185 306.649 248.198 306.565C248.211 306.48 248.23 306.389 248.243 306.305C248.245 306.283 248.245 306.261 248.243 306.24C248.246 306.212 248.246 306.183 248.243 306.155C248.243 306.077 248.243 305.999 248.243 305.927C248.265 305.813 248.283 305.698 248.294 305.583L248.332 305.303C248.332 305.114 248.377 304.939 248.39 304.757C248.396 304.64 248.396 304.522 248.39 304.405C248.39 304.405 248.39 304.405 248.39 304.366C248.39 304.327 248.39 304.249 248.39 304.191C248.39 303.827 248.39 303.475 248.39 303.124C248.39 303.079 248.39 303.033 248.39 302.988C248.393 302.936 248.393 302.883 248.39 302.831C248.39 302.532 248.358 302.233 248.319 301.947C248.316 301.917 248.316 301.886 248.319 301.856C248.319 301.856 248.319 301.797 248.319 301.771C248.319 301.745 248.319 301.648 248.319 301.589C248.319 301.531 248.319 301.368 248.268 301.257C248.271 301.242 248.271 301.227 248.268 301.212C248.268 301.212 248.268 301.166 248.268 301.14L248.191 300.789C248.191 300.711 248.153 300.633 248.134 300.555C248.07 300.301 248 300.054 247.916 299.814L247.84 299.592L247.782 299.456C247.744 299.358 247.705 299.261 247.661 299.163C247.65 299.131 247.634 299.1 247.616 299.072C247.601 299.032 247.584 298.993 247.565 298.955L247.462 298.753C247.462 298.701 247.405 298.656 247.379 298.61C247.321 298.498 247.257 298.39 247.187 298.285C247.123 298.181 247.053 298.077 246.976 297.973L246.906 297.875C246.815 297.746 246.716 297.622 246.611 297.505L246.547 297.426C246.452 297.316 246.349 297.212 246.24 297.108L170.173 223.962C170.047 223.836 169.912 223.719 169.77 223.611V223.611C169.668 223.533 169.572 223.461 169.463 223.39L169.31 223.292L169.233 223.24L314.785 309.245C314.957 309.347 315.124 309.46 315.284 309.583C315.449 309.708 315.607 309.842 315.757 309.986L392.125 382.962C392.337 383.165 392.536 383.383 392.72 383.613L392.86 383.808C393.007 384.017 393.142 384.234 393.263 384.458C393.263 384.51 393.321 384.556 393.347 384.602C393.488 384.876 393.614 385.158 393.724 385.447L393.801 385.668C393.884 385.909 393.954 386.156 394.018 386.403C394.018 386.488 394.063 386.559 394.076 386.644C394.153 386.968 394.212 387.296 394.255 387.626V387.808C394.287 388.094 394.306 388.387 394.319 388.693C394.319 388.79 394.319 388.881 394.319 388.985C394.319 389.337 394.319 389.688 394.319 390.052C394.319 390.429 394.261 390.806 394.217 391.19C394.217 391.236 394.217 391.281 394.217 391.327C394.217 391.372 394.217 391.424 394.217 391.47C394.159 391.932 394.082 392.394 393.986 392.862C393.983 392.877 393.983 392.892 393.986 392.907C393.986 392.959 393.954 393.011 393.942 393.07C393.873 393.386 393.796 393.712 393.711 394.046C393.693 394.103 393.678 394.162 393.666 394.221L393.609 394.403C393.545 394.644 393.468 394.885 393.391 395.125C393.391 395.203 393.347 395.288 393.321 395.372L393.283 395.476C393.206 395.704 393.123 395.932 393.04 396.127C393.008 396.218 392.982 396.309 392.944 396.407V396.459C392.848 396.706 392.752 396.946 392.649 397.187L392.553 397.421C392.419 397.733 392.278 398.072 392.138 398.345C391.984 398.657 391.83 398.995 391.671 399.281C391.619 399.385 391.562 399.476 391.511 399.574C391.395 399.782 391.287 399.99 391.172 400.192C391.172 400.192 391.05 400.394 390.986 400.498L390.641 401.077V401.116L390.468 401.376C390.334 401.584 390.206 401.792 390.065 402.026C390.046 402.049 390.029 402.073 390.014 402.098C389.963 402.176 389.899 402.254 389.841 402.338C389.7 402.538 389.553 402.739 389.4 402.943L389.31 403.067L389.157 403.255C388.984 403.483 388.805 403.698 388.626 403.906L388.478 404.088L388.389 404.179C388.063 404.556 387.749 404.92 387.385 405.272L387.314 405.343L387.116 405.532L264.721 333.44L264.561 333.349C262.591 332.178 259.853 332.347 256.834 334.116L100.708 425.753Z" fill="#FF0000" style="touch-action: pan-y;"></path><path id="p_5" d="M282.889 165.451C282.889 158.446 287.712 149.919 293.706 146.4L335.875 121.646L441.279 59.7912L483.436 35.0429C486.5 33.2413 489.276 33.0917 491.253 34.3274L491.522 34.4966L491.701 34.6332L491.848 34.7502L492.008 34.8933L492.232 35.1079C492.302 35.1795 492.379 35.2575 492.443 35.3356C492.529 35.4272 492.608 35.525 492.68 35.6283L492.808 35.8039C492.872 35.8885 492.929 35.9795 492.993 36.0705C493.057 36.1616 493.153 36.3307 493.223 36.4673C493.223 36.4673 493.223 36.4998 493.223 36.5193C493.223 36.5388 493.332 36.7275 493.383 36.838L493.415 36.9031C493.416 36.9248 493.416 36.9465 493.415 36.9681C493.466 37.0917 493.524 37.2218 493.575 37.3584C493.626 37.495 493.69 37.6641 493.741 37.8267C493.761 37.8821 493.779 37.9385 493.793 37.9958C493.831 38.1129 493.863 38.2364 493.895 38.36C493.927 38.4836 493.933 38.5226 493.953 38.6072C493.985 38.7314 494.011 38.8574 494.029 38.9844C494.061 39.1275 494.087 39.2706 494.106 39.4202V39.5373C494.106 39.6999 494.151 39.869 494.164 40.0381C494.176 40.2072 494.164 40.2722 494.164 40.3958C494.17 40.5193 494.17 40.6431 494.164 40.7666C494.164 40.9422 494.164 41.1113 494.164 41.2934L494.388 122.003C494.388 122.205 494.388 122.407 494.388 122.615C494.388 122.693 494.388 122.771 494.388 122.855V122.92C494.384 122.953 494.384 122.985 494.388 123.018C494.388 123.089 494.388 123.155 494.388 123.226L494.349 123.616C494.349 123.876 494.292 124.143 494.253 124.41C494.253 124.559 494.208 124.702 494.189 124.846C494.17 124.989 494.132 125.145 494.106 125.288C494.081 125.431 494.042 125.646 494.004 125.821C494.007 125.845 494.007 125.869 494.004 125.893C494.004 125.893 494.004 125.925 494.004 125.938C493.965 126.107 493.921 126.277 493.876 126.452C493.831 126.628 493.748 126.979 493.671 127.239L493.537 127.694C493.447 127.994 493.351 128.286 493.243 128.579C493.204 128.703 493.159 128.82 493.115 128.943C492.97 129.346 492.81 129.75 492.635 130.153L492.571 130.296C492.417 130.654 492.251 131.005 492.078 131.363C492.027 131.473 491.969 131.584 491.912 131.694C491.746 132.026 491.567 132.345 491.381 132.69L491.279 132.878C491.061 133.262 490.831 133.633 490.601 134.003C490.537 134.114 490.46 134.212 490.389 134.322C490.217 134.589 490.038 134.849 489.852 135.109L489.551 135.525C489.391 135.74 489.232 135.948 489.065 136.176L488.643 136.703C488.509 136.865 488.368 137.021 488.227 137.177C487.99 137.444 487.754 137.704 487.504 137.958C487.255 138.212 487.197 138.277 487.044 138.426L486.679 138.777L486.039 139.324L485.668 139.636L485.617 139.675C485.413 139.84 485.199 139.996 484.978 140.143L484.651 140.384C484.306 140.625 483.96 140.852 483.615 141.034L294.007 252.47L293.316 252.841L293.124 252.938L292.862 253.062L292.606 253.179L292.516 253.218C292.487 253.236 292.454 253.25 292.42 253.257L292.184 253.354L291.941 253.446L291.825 253.491L291.531 253.589L291.237 253.673H291.154H291.122L290.93 253.725L290.744 253.764H290.661L290.488 253.803H290.322H290.258H290.13L289.81 253.842H289.67H289.03H288.736H288.627L288.256 253.797H288.141H287.987L287.75 253.745L287.469 253.673H287.405C287.271 253.634 287.13 253.589 287.002 253.537L286.861 253.478C286.727 253.419 286.593 253.348 286.465 253.276H286.42C284.501 252.132 283.26 249.686 283.253 246.2L282.889 165.451Z" fill="#FFFF00" style="touch-action: pan-y;"></path><path id="p_6" d="M309.417 266.909L286.471 253.335C287.375 253.815 288.389 254.039 289.407 253.985H289.676C289.722 253.992 289.77 253.992 289.816 253.985V253.985L290.136 253.946L290.501 253.888C290.718 253.852 290.932 253.8 291.141 253.731H291.224C291.323 253.708 291.421 253.68 291.518 253.647L291.812 253.549L291.927 253.504C292.011 253.481 292.092 253.451 292.17 253.413L292.407 253.315C292.441 253.308 292.474 253.295 292.503 253.276L292.593 253.237C292.68 253.204 292.766 253.164 292.849 253.12L293.111 252.996L293.303 252.899L293.994 252.528L483.711 141.106C484.056 140.904 484.401 140.676 484.747 140.455C485.092 140.234 485.386 140 485.687 139.746L485.738 139.707L486.109 139.395C486.314 139.226 486.527 139.044 486.749 138.849C486.871 138.738 486.992 138.628 487.114 138.498C487.679 137.955 488.213 137.379 488.713 136.774C489.026 136.403 489.353 136.013 489.621 135.616C489.73 135.48 489.826 135.343 489.922 135.2C490.184 134.842 490.434 134.471 490.67 134.094C490.901 133.723 491.131 133.353 491.349 132.969L491.451 132.78C491.636 132.449 491.816 132.13 491.982 131.785C492.046 131.675 492.097 131.564 492.148 131.454C492.321 131.096 492.487 130.745 492.641 130.387L492.705 130.244C492.88 129.841 493.039 129.437 493.184 129.034C493.229 128.91 493.274 128.793 493.312 128.67C493.421 128.377 493.517 128.084 493.607 127.785C493.658 127.636 493.703 127.486 493.741 127.33C493.869 126.894 493.984 126.458 494.074 126.029C494.074 126.029 494.074 125.997 494.074 125.984C494.077 125.96 494.077 125.936 494.074 125.912C494.237 125.186 494.353 124.449 494.419 123.707L494.457 123.317C494.457 123.245 494.457 123.18 494.457 123.109C494.454 123.076 494.454 123.044 494.457 123.011V122.946C494.457 122.868 494.457 122.79 494.457 122.705C494.457 122.497 494.457 122.296 494.457 122.094L494.234 41.3842C494.234 41.2086 494.234 41.0329 494.234 40.8573C494.24 40.7338 494.24 40.6101 494.234 40.4866C494.234 40.3631 494.234 40.2459 494.234 40.1289C494.234 40.0118 494.202 39.7907 494.176 39.6281V39.511C494.176 39.3614 494.131 39.2183 494.099 39.0752C494.081 38.9481 494.055 38.8222 494.022 38.698C494.022 38.6134 493.991 38.5289 493.965 38.4508C493.939 38.3728 493.927 38.2882 493.901 38.2102L493.863 38.0866C493.848 38.0294 493.831 37.9729 493.811 37.9175V37.9175C493.76 37.7549 493.703 37.5988 493.645 37.4492C493.588 37.2996 493.536 37.1825 493.485 37.0589C493.486 37.0373 493.486 37.0156 493.485 36.9939L493.453 36.9288C493.402 36.8183 493.351 36.7142 493.293 36.6101C493.236 36.5061 493.293 36.5776 493.293 36.5581C493.223 36.4215 493.146 36.2914 493.063 36.1614C493.007 36.0684 492.945 35.9794 492.877 35.8947L492.749 35.7191C492.678 35.6158 492.599 35.518 492.513 35.4264V35.4264C492.448 35.3458 492.377 35.2698 492.302 35.1988C492.263 35.1532 492.225 35.1207 492.187 35.0817L492.078 34.9841L491.918 34.841L491.771 34.7239L491.604 34.5939L491.336 34.4248L491.246 34.3662L491.406 34.4573L636.798 120.364C638.749 121.515 639.958 123.967 639.964 127.447L640.188 208.157C640.188 208.56 640.188 208.963 640.144 209.38L640.105 209.763C640.105 209.946 640.073 210.128 640.054 210.316C640.054 210.394 640.022 210.479 640.009 210.557C639.971 210.85 639.92 211.142 639.862 211.441C639.862 211.572 639.824 211.708 639.792 211.845C639.76 211.981 639.792 211.975 639.747 212.04L639.613 212.606C639.568 212.775 639.536 212.944 639.491 213.113C639.446 213.282 639.433 213.295 639.402 213.393C639.37 213.49 639.312 213.698 639.267 213.848L639.152 214.232C639.094 214.401 639.037 214.563 638.973 214.733C638.909 214.902 638.89 214.973 638.845 215.09C638.827 215.152 638.806 215.213 638.781 215.272C638.66 215.604 638.525 215.923 638.384 216.268V216.307L638.32 216.45C638.212 216.71 638.097 216.963 637.975 217.224C637.93 217.321 637.879 217.419 637.828 217.51C637.777 217.601 637.719 217.731 637.662 217.842L637.508 218.16L637.137 218.811C637.099 218.876 637.067 218.941 637.028 218.999C637.022 219.023 637.011 219.045 636.996 219.064C636.817 219.377 636.631 219.715 636.433 219.994L636.35 220.131L636.139 220.45C636.024 220.619 635.921 220.788 635.806 220.951C635.691 221.113 635.666 221.139 635.602 221.237L635.295 221.653C635.224 221.751 635.16 221.855 635.084 221.946L634.808 222.29L634.386 222.811L634.207 223.038L633.971 223.286C633.734 223.559 633.497 223.819 633.247 224.073L633.017 224.326L632.787 224.541L632.422 224.892L631.783 225.432L631.412 225.744C631.188 225.926 630.957 226.102 630.727 226.271L630.401 226.512C630.056 226.752 629.71 226.973 629.365 227.162L595.767 246.883L472.733 174.212L472.65 174.16C470.731 173.035 468.083 173.132 464.974 174.966L312.878 264.236C311.622 264.982 310.46 265.879 309.417 266.909V266.909Z" fill="#FF0000" style="touch-action: pan-y;"></path><path id="p_7" d="M304.274 289.641C299.598 285.179 302.726 273.433 309.392 266.877C310.435 265.847 311.597 264.949 312.853 264.203L464.948 174.96C468.07 173.126 470.706 173.009 472.625 174.153L472.708 174.206L472.913 174.342L473.194 174.55L473.328 174.661C473.499 174.801 473.659 174.953 473.808 175.116C473.867 175.176 473.923 175.239 473.975 175.305L474.077 175.422C474.154 175.513 474.224 175.61 474.294 175.708L474.403 175.864C474.525 176.046 474.64 176.235 474.749 176.436L474.793 176.514C474.793 176.547 474.825 176.58 474.845 176.619L474.96 176.859C475.011 176.963 475.056 177.067 475.1 177.178V177.223C475.1 177.282 475.145 177.347 475.171 177.412C475.196 177.477 475.254 177.64 475.292 177.757C475.331 177.874 475.363 177.978 475.395 178.089C475.395 178.167 475.439 178.251 475.465 178.329C475.491 178.407 475.516 178.537 475.535 178.641L475.612 179.025C475.612 179.09 475.612 179.168 475.651 179.24C475.689 179.487 475.727 179.747 475.753 180.007V180.176V180.463V180.892C475.753 180.97 475.753 181.048 475.753 181.126V181.38C475.753 181.64 475.753 181.906 475.753 182.18V182.212C475.753 182.277 475.753 182.349 475.753 182.42C475.753 182.492 475.753 182.466 475.753 182.485L475.715 182.915C475.715 183.084 475.683 183.259 475.657 183.428C475.593 183.884 475.523 184.352 475.42 184.833C475.42 184.872 475.42 184.918 475.42 184.957C475.356 185.269 475.273 185.607 475.19 185.913C475.19 185.972 475.19 186.03 475.145 186.089C475.094 186.29 475.03 186.498 474.966 186.739C474.902 186.98 474.838 187.155 474.768 187.389L474.653 187.708C474.546 188.02 474.431 188.333 474.307 188.645L474.154 189.028C473.994 189.425 473.821 189.822 473.636 190.225L397.92 352.484C397.856 352.621 397.786 352.757 397.715 352.9C397.645 353.043 397.53 353.284 397.428 353.479C397.325 353.674 397.306 353.713 397.242 353.83C397.178 353.948 397.05 354.188 396.948 354.364L396.75 354.715L396.423 355.255L396.225 355.58L395.803 356.23L395.656 356.445L395.016 357.323L394.875 357.499C394.677 357.752 394.479 358.006 394.274 358.247L394.197 358.344C394.152 358.39 394.114 358.442 394.076 358.487C393.896 358.695 393.711 358.897 393.526 359.099C393.34 359.3 393.199 359.45 393.027 359.619L392.975 359.678L392.86 359.795C392.726 359.931 392.598 360.055 392.47 360.172L392.118 360.497L391.926 360.666L391.549 360.992L391.171 361.297L391.107 361.356C390.839 361.564 390.564 361.766 390.295 361.954L390.097 362.091C389.822 362.273 389.546 362.455 389.265 362.618C388.984 362.78 388.811 362.871 388.581 362.988L388.401 363.079L387.979 363.281L387.423 363.515H387.384C387.244 363.574 387.096 363.626 386.956 363.671H386.917L386.585 363.775H386.54H386.502H386.374L385.951 363.879L385.536 363.957H385.401C385.175 363.997 384.946 364.021 384.717 364.029V364.029C384.664 364.035 384.61 364.035 384.557 364.029H384.077H383.911L383.431 363.97H383.329L383.028 363.905L382.804 363.847L382.67 363.801C382.542 363.762 382.414 363.717 382.286 363.665L382.132 363.6C382.005 363.545 381.881 363.482 381.761 363.411H381.716C381.325 363.196 380.964 362.929 380.642 362.618L304.274 289.641Z" fill="#FFFF00" style="touch-action: pan-y;"></path><path id="p_8" d="M381.613 363.365L381.716 363.417H381.76C381.878 363.492 382.002 363.555 382.131 363.606L382.285 363.671C382.409 363.728 382.537 363.774 382.669 363.808L382.803 363.853C382.876 363.879 382.951 363.898 383.027 363.912L383.328 363.977H383.43C383.641 364.017 383.855 364.041 384.07 364.048C384.211 364.048 384.358 364.048 384.511 364.048H384.735C385.151 364.032 385.564 363.976 385.97 363.879C386.156 363.846 386.34 363.8 386.52 363.743H386.558H386.603L386.936 363.639H386.974L387.147 363.58L387.403 363.482H387.441L387.735 363.365H387.78L387.998 363.268L388.42 363.066L388.599 362.975C388.823 362.865 389.053 362.741 389.283 362.604C389.514 362.468 389.84 362.26 390.115 362.078L390.313 361.941C390.582 361.752 390.857 361.551 391.126 361.343C391.273 361.225 391.42 361.108 391.567 360.978L391.944 360.653L392.136 360.484C392.258 360.38 392.373 360.276 392.488 360.159C392.603 360.042 392.744 359.918 392.879 359.782L392.923 359.743L392.994 359.665L393.045 359.606C393.224 359.437 393.39 359.261 393.544 359.086C393.697 358.91 393.915 358.682 394.094 358.474C394.132 358.429 394.171 358.377 394.215 358.331L394.292 358.234C394.503 357.993 394.702 357.739 394.894 357.486L395.034 357.31L395.674 356.432L395.821 356.217L396.243 355.567L396.442 355.242L396.768 354.702L396.966 354.351C397.069 354.175 397.164 353.999 397.26 353.817C397.356 353.635 397.388 353.583 397.446 353.466C397.504 353.349 397.644 353.082 397.734 352.887C397.823 352.692 397.875 352.607 397.939 352.471L473.654 190.212C473.839 189.809 474.012 189.412 474.172 189.015L474.325 188.632C474.498 188.209 474.652 187.793 474.786 187.376C474.856 187.162 474.92 186.954 474.984 186.726C475.048 186.498 475.112 186.31 475.164 186.075C475.164 186.017 475.164 185.958 475.208 185.9C475.298 185.575 475.375 185.256 475.439 184.944C475.439 184.905 475.439 184.859 475.439 184.82C475.541 184.339 475.611 183.871 475.675 183.415C475.675 183.24 475.72 183.071 475.733 182.901C475.746 182.732 475.733 182.609 475.771 182.472C475.771 182.472 475.771 182.427 475.771 182.407C475.771 182.388 475.771 182.264 475.771 182.199V182.166C475.771 181.893 475.771 181.627 475.771 181.366V181.113C475.771 181.035 475.771 180.957 475.771 180.879C475.771 180.801 475.771 180.586 475.771 180.449V180.163V179.994C475.771 179.734 475.707 179.474 475.669 179.227C475.669 179.155 475.669 179.077 475.63 179.012C475.612 178.883 475.586 178.755 475.554 178.628C475.554 178.524 475.509 178.414 475.483 178.316L475.445 178.173L475.413 178.075C475.381 177.965 475.349 177.854 475.311 177.744C475.272 177.633 475.234 177.51 475.189 177.399C475.144 177.288 475.138 177.269 475.119 177.21V177.165C475.074 177.054 475.029 176.95 474.978 176.846L474.863 176.605C474.863 176.566 474.831 176.534 474.812 176.501L474.767 176.423C474.658 176.222 474.543 176.033 474.422 175.851L474.313 175.695C474.242 175.597 474.172 175.5 474.095 175.409L473.993 175.292L473.865 175.135L473.826 175.103C473.677 174.94 473.517 174.788 473.347 174.648L473.212 174.537L472.931 174.329C472.867 174.277 472.798 174.232 472.726 174.192L595.652 246.824L618.195 260.145C618.394 260.263 618.584 260.395 618.764 260.541L618.905 260.652C619.072 260.791 619.23 260.941 619.378 261.101L619.417 261.14C619.579 261.315 619.729 261.502 619.864 261.699C619.903 261.751 619.935 261.803 619.973 261.849C620.095 262.037 620.21 262.226 620.319 262.428L620.364 262.499C620.485 262.727 620.587 262.967 620.69 263.208C620.69 263.273 620.734 263.338 620.76 263.397C620.843 263.618 620.92 263.845 620.984 264.08L621.022 264.197C621.093 264.47 621.157 264.75 621.208 265.036L621.246 265.25C621.291 265.504 621.323 265.758 621.349 266.024V266.187C621.349 266.499 621.387 266.837 621.393 267.137V267.377C621.393 267.65 621.393 267.937 621.393 268.223C621.393 268.294 621.393 268.359 621.393 268.431C621.393 268.73 621.342 269.036 621.304 269.342C621.307 269.374 621.307 269.407 621.304 269.439C621.246 269.901 621.169 270.369 621.067 270.844C620.997 271.195 620.907 271.546 620.818 271.904C620.818 271.963 620.818 272.021 620.773 272.08C620.67 272.45 620.555 272.828 620.434 273.211L620.395 273.316L620.28 273.641C620.21 273.849 620.14 274.057 620.057 274.291C620.018 274.395 619.973 274.493 619.935 274.597C619.896 274.701 619.839 274.85 619.781 274.974C619.724 275.098 619.698 275.202 619.647 275.312C619.525 275.598 619.397 275.885 619.263 276.177L543.548 438.43L543.477 438.586C543.433 438.677 543.388 438.761 543.35 438.846C543.254 439.041 543.158 439.236 543.055 439.425L542.998 439.542C542.959 439.626 542.915 439.698 542.87 439.783C542.825 439.867 542.678 440.14 542.576 440.316L542.492 440.478L542.377 440.661L542.051 441.207C542.012 441.272 541.974 441.337 541.929 441.402L541.853 441.526L541.43 442.176L541.315 442.352L541.283 442.397C541.079 442.696 540.868 442.989 540.644 443.269L540.599 443.334L540.503 443.451C540.279 443.737 540.055 444.017 539.825 444.29C539.793 444.329 539.767 444.368 539.735 444.401L539.703 444.439C539.345 444.856 538.974 445.253 538.603 445.63L538.558 445.682L537.771 446.423L537.579 446.592C537.33 446.814 537.081 447.022 536.831 447.243L536.76 447.295C536.492 447.509 536.217 447.705 535.948 447.9L535.75 448.03C535.473 448.216 535.198 448.392 534.925 448.557C534.694 448.693 534.464 448.817 534.234 448.934L534.055 449.025C533.843 449.129 533.626 449.233 533.415 449.318H533.377L532.788 449.545L532.615 449.597C532.475 449.649 532.334 449.688 532.199 449.727H532.104H532.033C531.757 449.803 531.477 449.864 531.195 449.91H531.144H531.061C530.824 449.91 530.587 449.968 530.351 449.981C530.138 449.995 529.924 449.995 529.711 449.981H529.545L529.065 449.923H528.988C528.807 449.888 528.628 449.845 528.451 449.792H528.412H528.317L527.933 449.649H527.85L527.779 449.61C527.648 449.555 527.52 449.492 527.395 449.422L527.312 449.376H527.248L381.613 363.365Z" fill="#E61D1D" style="touch-action: pan-y;"></path></g><g id="shading" filter="url(#globalPencil1Filter)" style="touch-action: pan-y;"><path id="p_9" d="M86.7432 412.16C77.7874 417.415 72.6697 408.439 78.024 396.92L153.739 234.662C155.902 230.031 159.145 226.447 162.388 224.541C165.631 222.635 168.881 222.414 171.063 224.496L247.45 297.479C252.874 302.682 247.801 317.641 238.846 322.884L86.7432 412.16Z" stroke="black" stroke-width="3" stroke-miterlimit="10" style="touch-action: pan-y;"></path><path id="p_10" d="M387.839 406.202L388.038 406.013L388.108 405.941C388.453 405.59 388.786 405.226 389.112 404.849L389.202 404.758C393.215 399.79 396.709 392.629 394.524 386.305L394.448 386.084C394.337 385.796 394.211 385.513 394.07 385.239C394.07 385.193 394.013 385.148 393.987 385.096C393.865 384.871 393.731 384.654 393.584 384.445L393.443 384.25C393.26 384.02 393.061 383.802 392.848 383.6L316.615 310.5C316.465 310.356 316.307 310.221 316.141 310.096C315.982 309.974 315.815 309.861 315.643 309.758L170.091 223.754L170.167 223.806C170.219 223.806 170.27 223.871 170.321 223.903C170.372 223.936 170.526 224.047 170.628 224.125C170.77 224.234 170.907 224.352 171.037 224.476L247.45 297.478C247.559 297.582 247.661 297.686 247.757 297.797C247.853 297.908 247.949 298.025 248.039 298.148C254.026 305.235 245.474 318.264 239.882 322.305C239.588 322.506 239.281 322.701 238.974 322.884L86.8908 412.153C86.6542 412.296 86.4174 412.426 86.1871 412.543L85.9825 412.647L85.8929 412.686L85.4515 412.894C83.8829 413.554 82.0671 413.856 80.3979 413.421C80.228 413.371 80.0613 413.31 79.8989 413.239L79.7646 413.181C79.6379 413.126 79.514 413.066 79.3935 412.998L79.2656 412.927" stroke="black" stroke-width="3" stroke-miterlimit="10" style="touch-action: pan-y;"></path><path id="p_11" d="M79.0801 412.973L101.598 426.287" stroke="black" stroke-width="3" stroke-miterlimit="10" style="touch-action: pan-y;"></path><path id="p_12" d="M206.124 638.855H206.182H206.259C206.387 638.927 206.521 638.998 206.655 639.057L206.732 639.096H206.796C209.045 640.048 211.797 639.192 213.801 638.003L255.964 613.287L361.336 551.433L403.505 526.678C408.731 523.587 412.675 517.546 413.894 511.556C413.894 511.491 413.926 511.426 413.945 511.361C413.964 511.296 413.983 511.088 414.009 510.951C414.069 510.661 414.12 510.368 414.163 510.073C414.163 509.995 414.162 509.91 414.201 509.832C414.201 509.65 414.233 509.468 414.252 509.28C414.271 509.091 414.252 509.019 414.29 508.889C414.29 508.479 414.342 508.076 414.342 507.673L414.111 426.957C414.111 423.483 412.896 421.031 410.951 419.88L265.431 333.882C267.351 335.034 268.585 337.479 268.592 340.952L268.822 421.669C268.822 422.072 268.822 422.482 268.771 422.891L268.732 423.282C268.732 428.892 264.591 435.628 260.391 438.996L260.019 439.308C259.796 439.49 259.565 439.659 259.335 439.828C259.226 439.906 259.118 439.997 259.009 440.069C258.67 440.31 258.324 440.537 257.972 440.719L215.803 465.474L110.425 527.335L68.2683 552.051L67.5775 552.422L67.3856 552.519C67.2129 552.61 67.0401 552.688 66.8674 552.76L66.6819 552.844C64.9975 553.484 62.9575 553.896 61.2316 553.163L61.0973 553.104C60.9565 553.046 60.8287 552.981 60.6943 552.909L60.5664 552.838L206.124 638.855Z" stroke="black" stroke-width="3" stroke-miterlimit="10" style="touch-action: pan-y;"></path><path id="p_13" d="M68.2941 552.083C62.3001 555.602 57.4191 552.772 57.4191 545.774L57.1953 465.058C57.1953 458.059 62.0122 449.532 68.0126 446.007L257.685 334.649C263.679 331.131 268.56 333.954 268.56 340.952L268.79 421.668C268.79 428.673 263.96 437.2 257.966 440.719L215.797 465.474L110.419 527.335L68.2941 552.083Z" stroke="black" stroke-width="3" stroke-miterlimit="10" style="touch-action: pan-y;"></path><path id="p_14" d="M294.896 253.003C288.902 256.515 284.021 253.693 284.021 246.694L283.797 165.984C283.797 158.979 288.62 150.446 294.614 146.934L336.777 122.179L442.156 60.318L484.312 35.6023C490.312 32.0835 495.187 34.9063 495.187 41.9178L495.411 122.621C495.411 129.626 490.587 138.153 484.593 141.672L294.896 253.003Z" stroke="black" stroke-width="3" stroke-miterlimit="10" style="touch-action: pan-y;"></path><path id="p_15" d="M596.555 247.364L630.152 227.644C630.498 227.435 630.843 227.214 631.189 226.993C636.2 223.295 639.939 217.333 640.765 211.039C640.765 210.96 640.797 210.876 640.81 210.798C640.81 210.609 640.842 210.427 640.861 210.245L640.899 209.861C640.931 209.445 640.95 209.042 640.944 208.639L640.72 127.929C640.72 124.449 639.505 121.997 637.522 120.846L492.187 34.8933L492.027 34.8022L492.386 35.0299C492.494 35.108 492.597 35.1925 492.699 35.2771M495.072 41.3389C495.072 41.5145 495.072 41.6901 495.072 41.8722L495.296 122.582C495.296 122.784 495.296 122.985 495.296 123.194C495.296 123.291 495.296 123.395 495.296 123.499C495.293 123.532 495.293 123.564 495.296 123.597C495.296 123.668 495.296 123.733 495.296 123.805L495.258 124.195C495.258 130.332 490.631 137.332 485.88 140.742L485.554 140.982C485.208 141.223 484.863 141.451 484.517 141.633L294.896 253.003L294.205 253.374C292.299 254.343 289.802 254.891 287.751 254.037C287.616 253.979 287.482 253.907 287.354 253.836H287.322" stroke="black" stroke-width="3" stroke-miterlimit="10" style="touch-action: pan-y;"></path><path id="p_16" d="M287.176 253.771H287.22L310.307 267.429" stroke="black" stroke-width="3" stroke-miterlimit="10" style="touch-action: pan-y;"></path><path id="p_17" d="M390.212 363.105C386.969 365.011 383.719 365.239 381.538 363.157L305.17 290.174C299.745 284.971 304.812 270.012 313.768 264.769L465.857 175.493C474.813 170.232 479.931 179.207 474.57 190.733L398.861 352.985C396.699 357.622 393.456 361.206 390.212 363.105Z" stroke="black" stroke-width="3" stroke-miterlimit="10" style="touch-action: pan-y;"></path><path id="p_18" d="M528.061 449.897L528.119 449.929L528.202 449.975L528.586 450.163H528.656L528.746 450.196C528.871 450.249 528.999 450.295 529.13 450.333L529.226 450.372H529.264C534.608 451.937 540.196 446.238 542.647 442.085L542.73 441.962L542.845 441.767C542.96 441.584 543.069 441.402 543.171 441.22L543.286 441.032L543.376 440.876L543.67 440.336C543.709 440.258 543.753 440.18 543.798 440.102L543.856 439.984L544.143 439.406C544.188 439.321 544.233 439.236 544.271 439.145L544.348 438.989L620.057 276.737C620.192 276.444 620.326 276.158 620.447 275.872C620.668 275.317 620.89 274.767 621.081 274.2C621.119 274.09 621.158 273.979 621.19 273.875C621.205 273.842 621.218 273.807 621.228 273.771C622.454 270.093 623.023 264.848 620.198 261.719H620.166C620.016 261.559 619.855 261.409 619.686 261.27C619.46 261.082 619.229 260.905 618.976 260.756L473.539 174.687C473.738 174.806 473.928 174.938 474.109 175.084L474.25 175.194C478.087 178.474 476.693 185.19 475.203 189.087L475.049 189.464C474.883 189.861 474.716 190.264 474.525 190.668L398.816 352.92C398.745 353.063 398.675 353.2 398.611 353.336L398.323 353.915L398.131 354.273L397.843 354.806C397.773 354.923 397.709 355.04 397.639 355.151C394.769 359.66 390.136 365.973 384.307 364.491H384.198C384.019 364.458 383.842 364.414 383.667 364.361L383.533 364.322C383.399 364.276 383.271 364.231 383.149 364.179L382.989 364.114C382.861 364.055 382.734 363.997 382.606 363.925L382.465 363.847L528.061 449.897Z" stroke="black" stroke-width="3" stroke-miterlimit="10" style="touch-action: pan-y;"></path><path id="p_19" d="M624.535 231.24V231.233L641.737 194.342" stroke="black" stroke-width="3" stroke-miterlimit="10" style="touch-action: pan-y;"></path><path id="p_20" d="M524.025 446.859L612.842 256.339" stroke="black" stroke-width="3" stroke-miterlimit="10" style="touch-action: pan-y;"></path><path id="p_21" d="M495.795 430.189V430.182L584.618 239.67V239.663L639.632 121.652" stroke="black" stroke-width="3" stroke-miterlimit="10" style="touch-action: pan-y;"></path><path id="p_22" d="M467.578 413.512L556.395 222.993L611.518 104.748" stroke="black" stroke-width="3" stroke-miterlimit="10" style="touch-action: pan-y;"></path><path id="p_23" d="M439.354 396.835L528.17 206.316L583.293 88.0708" stroke="black" stroke-width="3" stroke-miterlimit="10" style="touch-action: pan-y;"></path><path id="p_24" d="M369.293 547.133V547.127L415.019 449.064V449.057" stroke="black" stroke-width="3" stroke-miterlimit="10" style="touch-action: pan-y;"></path><path id="p_25" d="M411.131 380.159L499.947 189.639L555.077 71.394" stroke="black" stroke-width="3" stroke-miterlimit="10" style="touch-action: pan-y;"></path><path id="p_26" d="M319.736 576.226L396.821 410.865" stroke="black" stroke-width="3" stroke-miterlimit="10" style="touch-action: pan-y;"></path><path id="p_27" d="M486.884 140.468V140.475L486.878 140.481V140.488L471.346 173.782" stroke="black" stroke-width="3" stroke-miterlimit="10" style="touch-action: pan-y;"></path><path id="p_28" d="M526.86 54.7241L496.225 120.429" stroke="black" stroke-width="3" stroke-miterlimit="10" style="touch-action: pan-y;"></path><path id="p_29" d="M379.874 370.006L368.596 394.195L270.178 605.313V605.319" stroke="black" stroke-width="3" stroke-miterlimit="10" style="touch-action: pan-y;"></path><path id="p_30" d="M496.014 43.6799L498.636 38.0474" stroke="black" stroke-width="3" stroke-miterlimit="10" style="touch-action: pan-y;"></path><path id="p_31" d="M220.627 634.406L340.379 377.518L354.971 346.207" stroke="black" stroke-width="3" stroke-miterlimit="10" style="touch-action: pan-y;"></path><path id="p_32" d="M422.582 201.197V201.191L437.244 169.743V169.737" stroke="black" stroke-width="3" stroke-miterlimit="10" style="touch-action: pan-y;"></path><path id="p_33" d="M187.887 627.427L312.156 360.841L330.08 322.415" stroke="black" stroke-width="3" stroke-miterlimit="10" style="touch-action: pan-y;"></path><path id="p_34" d="M373.029 230.284L387.691 198.83" stroke="black" stroke-width="3" stroke-miterlimit="10" style="touch-action: pan-y;"></path><path id="p_35" d="M303.603 301.992L283.945 344.172L269.494 375.157" stroke="black" stroke-width="3" stroke-miterlimit="10" style="touch-action: pan-y;"></path><path id="p_36" d="M159.67 610.75L231.56 456.543" stroke="black" stroke-width="3" stroke-miterlimit="10" style="touch-action: pan-y;"></path><path id="p_37" d="M323.465 259.377V259.371L338.133 227.923V227.917" stroke="black" stroke-width="3" stroke-miterlimit="10" style="touch-action: pan-y;"></path><path id="p_38" d="M131.445 594.073L182.001 485.636V485.63" stroke="black" stroke-width="3" stroke-miterlimit="10" style="touch-action: pan-y;"></path><path id="p_39" d="M250.188 339.358V339.352L275.385 285.315" stroke="black" stroke-width="3" stroke-miterlimit="10" style="touch-action: pan-y;"></path><path id="p_40" d="M247.161 268.639L238.25 287.754V287.761" stroke="black" stroke-width="3" stroke-miterlimit="10" style="touch-action: pan-y;"></path><path id="p_41" d="M103.229 577.397L132.45 514.723" stroke="black" stroke-width="3" stroke-miterlimit="10" style="touch-action: pan-y;"></path><path id="p_42" d="M200.637 368.451V368.445L215.292 336.997" stroke="black" stroke-width="3" stroke-miterlimit="10" style="touch-action: pan-y;"></path><path id="p_43" d="M218.945 251.962L213.354 263.956L213.348 263.962" stroke="black" stroke-width="3" stroke-miterlimit="10" style="touch-action: pan-y;"></path><path id="p_44" d="M75.0039 560.72L82.8851 543.816" stroke="black" stroke-width="3" stroke-miterlimit="10" style="touch-action: pan-y;"></path><path id="p_45" d="M151.078 397.544V397.538L165.734 366.09V366.084" stroke="black" stroke-width="3" stroke-miterlimit="10" style="touch-action: pan-y;"></path></g><g id="lines" filter="url(#globalPencil2Filter)" style="opacity: 1; touch-action: pan-y;"><path id="p_46" d="M640.783 74.0547V417.038" stroke="black" stroke-width="3" stroke-miterlimit="10" style="touch-action: pan-y; stroke-dashoffset: 0; stroke-dasharray: none;"></path><path id="p_47" d="M494.932 1.2085V338.338" stroke="black" stroke-width="3" stroke-miterlimit="10" style="touch-action: pan-y; stroke-dashoffset: 0; stroke-dasharray: none;"></path><path id="p_48" d="M568.498 81.2095V418.339" stroke="black" stroke-width="3" stroke-miterlimit="10" style="touch-action: pan-y; stroke-dashoffset: 0; stroke-dasharray: none;"></path><path id="p_49" d="M56.7344 262.024V601.319" stroke="black" stroke-width="3" stroke-miterlimit="10" style="touch-action: pan-y; stroke-dashoffset: 0; stroke-dasharray: none;"></path><path id="p_50" d="M209.943 640.345V672" stroke="black" stroke-width="3" stroke-miterlimit="10" style="touch-action: pan-y; stroke-dashoffset: 0; stroke-dasharray: none;"></path><path id="p_51" d="M29.1953 575.108L527.985 283.053" stroke="black" stroke-width="3" stroke-miterlimit="10" style="touch-action: pan-y; stroke-dashoffset: 0; stroke-dasharray: none;"></path><path id="p_52" d="M109.58 613.482L608.376 321.427" stroke="black" stroke-width="3" stroke-miterlimit="10" style="touch-action: pan-y; stroke-dashoffset: 0; stroke-dasharray: none;"></path><path id="p_53" d="M568.414 81.9443L597.073 65.1636" stroke="black" stroke-width="3" stroke-miterlimit="10" style="touch-action: pan-y; stroke-dashoffset: 0; stroke-dasharray: none;"></path><path id="p_54" d="M640.061 122.706L668.719 105.925" stroke="black" stroke-width="3" stroke-miterlimit="10" style="touch-action: pan-y; stroke-dashoffset: 0; stroke-dasharray: none;"></path><path id="p_55" d="M37.332 296.932L523.2 12.8574" stroke="black" stroke-width="3" stroke-miterlimit="10" style="touch-action: pan-y; stroke-dashoffset: 0; stroke-dasharray: none;"></path><path id="p_56" d="M181.445 657.925L667.332 373.031" stroke="black" stroke-width="3" stroke-miterlimit="10" style="touch-action: pan-y; stroke-dashoffset: 0; stroke-dasharray: none;"></path><path id="p_57" d="M648.089 393.59L479.994 294.168" stroke="black" stroke-width="3" stroke-miterlimit="10" style="touch-action: pan-y; stroke-dashoffset: 0; stroke-dasharray: none;"></path><path id="p_58" d="M114.065 320.12L36.4688 274.227" stroke="black" stroke-width="3" stroke-miterlimit="10" style="touch-action: pan-y; stroke-dashoffset: 0; stroke-dasharray: none;"></path></g><g id="arrows" filter="url(#globalPencil1Filter)" style="opacity: 1; touch-action: pan-y;"><path id="p_59" d="M635.514 105.723L626.935 100.598L600.119 84.5784L591.662 79.5117" stroke="black" stroke-width="2" stroke-miterlimit="10" style="touch-action: pan-y; stroke-dashoffset: 0; stroke-dasharray: none;"></path><path id="p_60" d="M626.787 106.263L636.543 106.341L631.726 97.71" stroke="black" stroke-width="2" stroke-miterlimit="10" style="touch-action: pan-y; stroke-dashoffset: 0; stroke-dasharray: none;"></path><path id="p_61" d="M600.476 79.0434L590.721 78.9653L595.531 87.5898" stroke="black" stroke-width="2" stroke-miterlimit="10" style="touch-action: pan-y; stroke-dashoffset: 0; stroke-dasharray: none;"></path><path id="p_62" d="M573.73 67.1537L565.145 62.0219L521.569 36.0053L513.105 30.9517" stroke="black" stroke-width="2" stroke-miterlimit="10" style="touch-action: pan-y; stroke-dashoffset: 0; stroke-dasharray: none;"></path><path id="p_63" d="M565.006 67.7131L574.761 67.7847L569.944 59.1602" stroke="black" stroke-width="2" stroke-miterlimit="10" style="touch-action: pan-y; stroke-dashoffset: 0; stroke-dasharray: none;"></path><path id="p_64" d="M521.927 30.477L512.172 30.3989L516.982 39.0234" stroke="black" stroke-width="2" stroke-miterlimit="10" style="touch-action: pan-y; stroke-dashoffset: 0; stroke-dasharray: none;"></path><path id="p_65" d="M217.582 650.035L226.263 645.079L617 421.987L625.553 417.103" stroke="black" stroke-width="2" stroke-miterlimit="10" style="touch-action: pan-y; stroke-dashoffset: 0; stroke-dasharray: none;"></path><path id="p_66" d="M221.516 642.1L216.539 650.627L226.295 650.744" stroke="black" stroke-width="2" stroke-miterlimit="10" style="touch-action: pan-y; stroke-dashoffset: 0; stroke-dasharray: none;"></path><path id="p_67" d="M621.522 425.083L626.499 416.55L616.75 416.433" stroke="black" stroke-width="2" stroke-miterlimit="10" style="touch-action: pan-y; stroke-dashoffset: 0; stroke-dasharray: none;"></path><path id="p_68" d="M67.7578 256.925L76.4386 251.969L467.176 28.8768L475.729 23.9922" stroke="black" stroke-width="2" stroke-miterlimit="10" style="touch-action: pan-y; stroke-dashoffset: 0; stroke-dasharray: none;"></path><path id="p_69" d="M71.6981 248.99L66.7148 257.517L76.4703 257.634" stroke="black" stroke-width="2" stroke-miterlimit="10" style="touch-action: pan-y; stroke-dashoffset: 0; stroke-dasharray: none;"></path><path id="p_70" d="M471.698 31.9663L476.675 23.4393L466.926 23.3223" stroke="black" stroke-width="2" stroke-miterlimit="10" style="touch-action: pan-y; stroke-dashoffset: 0; stroke-dasharray: none;"></path><path id="p_71" d="M653.674 366.195L653.642 356.068L652.964 138.095L652.932 128.117" stroke="black" stroke-width="2" stroke-miterlimit="10" style="touch-action: pan-y; stroke-dashoffset: 0; stroke-dasharray: none;"></path><path id="p_72" d="M647.377 356.938L653.391 367.315L659.334 356.899" stroke="black" stroke-width="2" stroke-miterlimit="10" style="touch-action: pan-y; stroke-dashoffset: 0; stroke-dasharray: none;"></path><path id="p_73" d="M657.832 135.584L652.932 127.011L648.076 135.616" stroke="black" stroke-width="2" stroke-miterlimit="10" style="touch-action: pan-y; stroke-dashoffset: 0; stroke-dasharray: none;"></path><path id="p_74" d="M43.8259 548.304L43.7939 538.184L43.1094 320.21V310.233" stroke="black" stroke-width="2" stroke-miterlimit="10" style="touch-action: pan-y; stroke-dashoffset: 0; stroke-dasharray: none;"></path><path id="p_75" d="M38.9258 540.948L43.8323 549.521L48.6813 540.916" stroke="black" stroke-width="2" stroke-miterlimit="10" style="touch-action: pan-y; stroke-dashoffset: 0; stroke-dasharray: none;"></path><path id="p_76" d="M47.984 317.7L43.0775 309.127L38.2285 317.732" stroke="black" stroke-width="2" stroke-miterlimit="10" style="touch-action: pan-y; stroke-dashoffset: 0; stroke-dasharray: none;"></path></g><g id="scribbles" filter="url(#globalPencil1Filter)" style="opacity: 1; touch-action: pan-y;"><path id="p_77" d="M183.941 157.873L184.171 159.089C183.045 153.164 182.655 137.626 182.444 131.622C182.284 127.018 181.165 105.925 190.184 110.491C198.565 114.731 195.302 129.561 200.081 136.728C200.398 137.272 200.836 137.733 201.36 138.075C202.256 138.569 203.919 138.14 203.721 136.741" stroke="black" stroke-miterlimit="10" style="touch-action: pan-y; stroke-dashoffset: 0; stroke-dasharray: none;"></path><path id="p_78" d="M217.098 128.644C223.99 118.876 228.124 107.379 229.054 95.3946C229.175 93.7621 229.316 91.4336 228.165 90.0873C223.783 84.975 222.337 100.071 222.055 102.634C221.416 108.398 221.747 114.231 223.034 119.883C223.444 121.658 223.987 123.493 225.235 124.8C227.595 127.271 231.715 126.992 234.664 125.294C239.839 122.309 241.841 115.733 240.607 110.035C240.965 111.701 241.246 113.678 242.487 114.946C244.893 117.457 247.253 114.608 248.354 112.344C249.166 110.692 249.716 108.774 251.021 107.479C250.081 108.409 256.913 114.972 257.898 115.57C255.742 114.27 257.751 109.112 259.094 107.85C262.862 104.325 262.772 113.112 263.291 115.772C262.984 114.192 263.508 111.317 264.724 110.185C266.259 108.767 268.696 108.533 270.666 108.761" stroke="black" stroke-miterlimit="10" style="touch-action: pan-y; stroke-dashoffset: 0; stroke-dasharray: none;"></path><path id="p_79" d="M222.968 134.914L222.578 134.718C222.808 136.39 223.077 138.133 224.069 139.486C225.06 140.839 227.043 141.593 228.431 140.676C230.197 139.505 229.851 136.774 230.952 134.927C231.112 134.621 231.341 134.357 231.62 134.158C231.899 133.96 232.22 133.83 232.557 133.782C234.515 133.665 234.841 137.034 236.684 137.684C237.682 138.055 238.788 137.496 239.575 136.774C240.425 136.052 240.969 135.025 241.091 133.905C241.136 133.351 240.997 132.796 240.695 132.332C240.394 131.867 239.947 131.519 239.428 131.343C239.278 132.257 239.419 133.196 239.831 134.022C243.285 135.083 246.912 133.372 250.117 131.655" stroke="black" stroke-miterlimit="10" style="touch-action: pan-y; stroke-dashoffset: 0; stroke-dasharray: none;"></path><path id="p_80" d="M186.046 149.067C186.046 148.839 185.233 159.721 185.041 164.677C183.212 159.907 181.506 155.088 179.924 150.218L186.046 149.067Z" fill="black" style="touch-action: pan-y; stroke-dashoffset: 0; stroke-dasharray: none;"></path><path id="p_81" d="M216.386 209.595C216.361 208.861 216.139 208.148 215.746 207.533C215.538 207.229 215.234 207.008 214.884 206.908C214.534 206.807 214.161 206.832 213.827 206.98C212.26 207.858 212.548 210.791 213.136 212.183C213.59 213.172 214.857 213.868 215.785 213.308C216.118 213.077 216.394 212.769 216.591 212.411C217.667 210.709 218.355 208.785 218.606 206.778C218.726 212.07 218.467 217.363 217.832 222.616C217.64 224.06 217.365 225.569 216.431 226.668C215.107 225.881 214.729 224.118 214.691 222.557C214.606 218.857 215.652 215.221 217.684 212.151C218.836 210.427 220.359 208.71 220.327 206.622C220.327 208.664 218.529 212.847 220.506 214.349C221.401 215 222.098 213.373 222.495 212.847C223.299 211.625 223.966 210.316 224.485 208.944C224.005 210.011 224.677 211.357 225.495 212.034C225.719 212.222 226.775 209.569 226.775 209.477C226.846 210.004 227.056 210.501 227.384 210.915C227.712 211.328 228.145 211.643 228.636 211.825C229.877 212.268 230.958 207.214 231.195 206.395C230.882 207.487 231.048 209.647 232.008 210.46C233.415 211.598 235.001 209.23 235.539 208.105C235.775 208.364 236.062 208.57 236.382 208.709C236.701 208.848 237.046 208.917 237.394 208.912" stroke="black" stroke-miterlimit="10" style="touch-action: pan-y; stroke-dashoffset: 0; stroke-dasharray: none;"></path><path id="p_82" d="M235.296 200.189H234.612C234.153 201.406 234.175 202.756 234.676 203.955L235.527 203.897C235.897 203.385 236.106 202.771 236.126 202.136C236.147 201.501 235.978 200.875 235.642 200.339L234.733 200.918" stroke="black" stroke-miterlimit="10" style="touch-action: pan-y; stroke-dashoffset: 0; stroke-dasharray: none;"></path><path id="p_83" d="M238.117 205.828C240.06 205.317 241.899 204.461 243.548 203.298" stroke="black" stroke-miterlimit="10" style="touch-action: pan-y; stroke-dashoffset: 0; stroke-dasharray: none;"></path><path id="p_84" d="M197.016 210.251C198.583 210.57 199.485 212.203 200.054 213.744C202.047 219.062 202.591 224.828 201.628 230.434" stroke="black" stroke-miterlimit="10" style="touch-action: pan-y; stroke-dashoffset: 0; stroke-dasharray: none;"></path><path id="p_85" d="M200.068 227.143C200.544 228.873 200.898 230.636 201.13 232.417L204.591 227.702" stroke="black" stroke-miterlimit="10" style="touch-action: pan-y; stroke-dashoffset: 0; stroke-dasharray: none;"></path><path id="p_86" d="M35.3251 407.457C35.3251 407.457 14.8225 432.446 38.741 457.097" stroke="black" stroke-miterlimit="10" style="touch-action: pan-y; stroke-dashoffset: 0; stroke-dasharray: 55.653px, 65.653px;"></path><path id="p_87" d="M30.873 454.221L38.7478 457.096L39.5666 449.805" stroke="black" stroke-miterlimit="10" style="touch-action: pan-y; stroke-dashoffset: 0; stroke-dasharray: none;"></path><path id="p_88" d="M29.543 409.46L35.3323 407.457L35.7161 413.239" stroke="black" stroke-miterlimit="10" style="touch-action: pan-y; stroke-dashoffset: 0; stroke-dasharray: none;"></path><path id="p_89" d="M555.115 31.7516C556.126 33.0134 558.135 33.0069 559.491 32.1483C560.847 31.2898 561.698 29.8133 562.433 28.3629C565.838 21.663 567.946 14.3613 568.645 6.85373C568.837 4.74639 568.773 2.30083 567.142 1C565.472 2.46994 564.992 4.86995 564.615 7.08136C563.898 11.2635 563.182 15.4847 563.335 19.7319C563.489 23.9791 564.653 28.2979 567.295 31.5825C567.652 32.1054 568.162 32.4994 568.754 32.7077C569.337 32.803 569.936 32.6855 570.443 32.376C572.777 31.1532 573.705 28.6036 574.684 26.3011C574.962 26.7583 575.274 27.1932 575.618 27.6019C576.663 27.2605 577.732 26.9996 578.816 26.8214C580.774 26.7239 579.878 27.9792 580.991 26.171C581.98 24.6128 582.82 22.9619 583.499 21.2409C582.168 24.7726 585.226 27.745 586.358 30.8735C587.055 29.6871 587.528 28.3791 587.753 27.0165C593.843 26.958 599.907 26.6653 605.991 26.0865C609.279 25.7743 612.708 26.6328 616.015 26.5873C617.793 26.5873 619.923 26.5873 621.561 25.7353C622.101 25.4485 622.544 25.0029 622.832 24.4564C623.12 23.9099 623.238 23.288 623.173 22.6718" stroke="black" stroke-miterlimit="10" style="touch-action: pan-y; stroke-dashoffset: 0; stroke-dasharray: none;"></path><path id="p_90" d="M585.752 38.8868C585.949 41.0767 586.295 43.2499 586.788 45.391C586.852 45.6316 586.955 45.9048 587.191 45.9699C587.338 45.9949 587.489 45.9698 587.62 45.8983C590.032 44.8056 590.332 41.1633 591.554 39.095L594.113 42.7828C594.51 41.9178 594.714 41.0983 595.476 40.5844C596.07 41.1308 596.608 41.7617 597.171 42.3341C597.331 42.5032 599.026 39.7324 599.179 39.4852C601.041 41.7877 605.167 40.5389 607.604 40.3568C610.995 40.1009 614.392 39.9535 617.795 39.9145C619.599 39.9145 623.623 40.1161 624.416 38.0088" stroke="black" stroke-miterlimit="10" style="touch-action: pan-y; stroke-dashoffset: 0; stroke-dasharray: none;"></path><path id="p_91" d="M617.486 69.5014L653.22 41.4556" stroke="black" stroke-miterlimit="10" style="touch-action: pan-y; stroke-dashoffset: 0; stroke-dasharray: none;"></path><path id="p_92" d="M622.233 61.5015C620.443 64.6477 618.422 67.6525 616.188 70.4902C619.284 68.9942 622.314 67.3704 625.278 65.6186" stroke="black" stroke-miterlimit="10" style="touch-action: pan-y; stroke-dashoffset: 0; stroke-dasharray: none;"></path><path id="p_93" d="M653.605 12.792C653.874 16.0896 653.605 19.8035 655.128 22.8279C655.671 21.236 656.544 19.7811 657.687 18.5612C658.672 19.6018 659.478 20.8571 660.463 21.8132C661.103 20.3953 661.634 18.9644 662.785 17.8067C663.041 18.6132 663.777 19.2701 663.968 20.0701" stroke="black" stroke-miterlimit="10" style="touch-action: pan-y; stroke-dashoffset: 0; stroke-dasharray: none;"></path><path id="p_94" d="M672.412 26.275L673 25.6636L672.847 38.2556C668.157 38.2425 663.478 38.6978 658.876 39.6149C658.53 39.6865 658.102 39.8621 658.114 40.2198L656.195 30.1254L672.412 26.275Z" stroke="black" stroke-miterlimit="10" style="touch-action: pan-y; stroke-dashoffset: 0; stroke-dasharray: 56.5002px, 66.5002px;"></path><path id="p_95" d="M671.976 40.3828C667.392 40.8748 662.839 41.6283 658.338 42.6397C661.473 45.4506 664.118 48.7799 666.161 52.487C666.705 49.4089 667.768 46.4494 669.303 43.7389C669.834 42.6289 670.655 41.6885 671.676 41.0202C671.804 40.9486 671.951 40.8511 671.944 40.708C671.938 40.5649 671.9 40.2592 671.976 40.3828Z" stroke="black" stroke-miterlimit="10" style="touch-action: pan-y; stroke-dashoffset: 0; stroke-dasharray: none;"></path><path id="p_96" d="M277.377 652.793C277.562 652.936 277.825 652.793 278.017 652.65C280.153 651.05 282.447 649.679 284.861 648.559C284.702 648.63 282.085 646.172 281.753 645.957C280.94 645.365 280.032 644.617 278.983 645.118C277.076 646.009 277.575 650.991 277.377 652.793Z" stroke="black" stroke-miterlimit="10" style="touch-action: pan-y; stroke-dashoffset: 0; stroke-dasharray: none;"></path><path id="p_97" d="M286.383 658.152L280.939 661.405C279.954 661.99 278.176 657.313 278.956 656.162C279.737 655.011 283.127 654.029 284.4 653.639C284.669 654.029 286.722 657.931 286.383 658.152Z" stroke="black" stroke-miterlimit="10" style="touch-action: pan-y; stroke-dashoffset: 0; stroke-dasharray: none;"></path><path id="p_98" d="M290.785 649.899C291.078 651.298 291.528 652.657 292.128 653.951L288.488 656.221C288.047 656.494 286.262 653.424 286.505 652.735C286.908 651.583 289.787 650.504 290.785 649.899Z" stroke="black" stroke-miterlimit="10" style="touch-action: pan-y; stroke-dashoffset: 0; stroke-dasharray: none;"></path><path id="p_99" d="M283.217 641.671C283.272 641.595 283.351 641.54 283.441 641.515C283.49 641.516 283.539 641.526 283.584 641.546C283.629 641.567 283.67 641.596 283.703 641.632C285.427 643.032 286.847 644.779 287.874 646.764L286.345 647.369C286.225 647.426 286.094 647.453 285.961 647.447C285.792 647.408 285.641 647.311 285.533 647.174C284.48 646.256 283.499 645.258 282.596 644.188C281.758 642.972 282.155 642.725 283.217 641.671Z" stroke="black" stroke-miterlimit="10" style="touch-action: pan-y; stroke-dashoffset: 0; stroke-dasharray: none;"></path><path id="p_100" d="M267.128 637.977L266.488 636.617C266.933 638.028 267.503 639.395 268.19 640.702C268.715 641.83 269.498 642.813 270.474 643.57C270.964 643.943 271.548 644.17 272.158 644.224C272.768 644.278 273.381 644.157 273.928 643.876" stroke="black" stroke-miterlimit="10" style="touch-action: pan-y; stroke-dashoffset: 0; stroke-dasharray: none;"></path><path id="p_101" d="M299.465 637.808C299.567 637.58 299.318 637.32 299.074 637.339C298.954 637.362 298.841 637.412 298.742 637.485C298.644 637.558 298.563 637.653 298.505 637.762C298.311 638.103 298.191 638.481 298.152 638.873C298.114 639.264 298.158 639.659 298.281 640.032C298.533 640.779 298.944 641.461 299.484 642.029C300.06 642.679 300.93 643.33 301.774 642.679C302.232 642.265 302.544 641.71 302.663 641.099C303.159 638.957 303.133 636.724 302.586 634.595C302.657 636.507 302.9 638.64 304.358 639.843C304.25 639.759 305.734 637.73 305.907 637.561C306.157 637.833 306.478 638.026 306.833 638.118C307.188 638.21 307.561 638.197 307.909 638.081C308.453 637.76 308.925 637.326 309.293 636.807C309.661 636.288 309.917 635.696 310.046 635.069C309.559 636.969 313.039 636.67 313.794 635.765C314.305 635.057 314.638 634.234 314.766 633.365C315.055 632.243 315.18 631.084 315.138 629.925C315.084 628.757 314.619 627.649 313.826 626.803C313.826 626.803 313.142 629.795 313.142 630.139C313.131 631.377 313.37 632.603 313.845 633.743C314.275 634.942 315.112 635.945 316.205 636.571C317.299 637.197 318.576 637.405 319.807 637.157C319.956 637.14 320.099 637.086 320.223 637.001C320.333 636.891 320.4 636.744 320.412 636.587C320.424 636.431 320.379 636.275 320.287 636.149C320.081 635.883 319.824 635.662 319.532 635.499" stroke="black" stroke-miterlimit="10" style="touch-action: pan-y; stroke-dashoffset: 0; stroke-dasharray: none;"></path><path id="p_102" d="M310.98 631.407C313.661 630.425 316.38 629.528 319.117 628.721" stroke="black" stroke-miterlimit="10" style="touch-action: pan-y; stroke-dashoffset: 0; stroke-dasharray: none;"></path><path id="p_103" d="M304.756 645.261C304.909 646.185 304.641 647.115 304.909 648.038C306.01 651.804 309.509 647.733 309.285 645.359C309.234 646.256 309.138 648.468 310.046 649.021C310.232 649.115 310.442 649.15 310.648 649.12C310.854 649.09 311.046 648.996 311.198 648.851C311.958 648.105 312.442 647.115 312.567 646.048C312.588 646.456 312.714 646.851 312.933 647.194C313.152 647.536 313.456 647.814 313.814 647.999C314.652 647.785 314.985 646.764 315.093 645.886C315.163 645.535 315.122 645.171 314.978 644.845C314.938 644.768 314.882 644.701 314.815 644.647C314.749 644.592 314.672 644.552 314.59 644.528C314.507 644.505 314.421 644.498 314.336 644.509C314.251 644.52 314.17 644.548 314.096 644.591C311.818 646.542 316.865 647.98 316.462 646.159C319.143 646.718 322.073 647.726 324.695 646.425" stroke="black" stroke-miterlimit="10" style="touch-action: pan-y; stroke-dashoffset: 0; stroke-dasharray: none;"></path><path id="p_104" d="M266.424 643.252V643.629C266.155 641.166 266.001 638.692 265.963 636.208C267.811 637.225 269.517 638.49 271.036 639.967" stroke="black" stroke-miterlimit="10" style="touch-action: pan-y; stroke-dashoffset: 0; stroke-dasharray: none;"></path><path id="p_105" d="M496.072 512.18C497.473 518.509 498.669 524.902 499.559 531.335C500.198 536.037 500.525 541.676 504.548 544.837C508.47 547.907 510.99 538.899 511.675 536.551C512.909 532.297 513.856 528.213 516.345 524.505C517.835 522.288 520.298 521.501 522.614 523.205C525.121 525.045 525.537 528.48 528.256 530.138" stroke="black" stroke-miterlimit="10" style="touch-action: pan-y; stroke-dashoffset: 0; stroke-dasharray: none;"></path><path id="p_106" d="M495.885 523.016C496.033 519.583 496.007 516.144 495.809 512.713C497.828 515.389 499.482 518.329 500.728 521.455" stroke="black" stroke-miterlimit="10" style="touch-action: pan-y; stroke-dashoffset: 0; stroke-dasharray: none;"></path><path id="p_107" d="M531.307 512.583L537.23 509.026C538.566 513.198 539.605 517.463 540.339 521.787C539.764 519.276 538.81 516.343 536.367 515.673L540.589 511.862C541.012 511.377 541.594 511.065 542.227 510.983C543.129 510.983 543.794 511.953 543.813 512.863C543.757 513.79 543.466 514.686 542.968 515.465C543.558 515.332 544.17 515.345 544.754 515.501C545.339 515.657 545.877 515.952 546.327 516.362C546.341 517.173 546.086 517.966 545.601 518.61C545.117 519.255 544.433 519.714 543.659 519.914C543.359 519.985 544.197 513.962 544.369 513.409C544.542 512.857 547.056 508.057 545.406 507.991C544.485 508.87 545.233 510.775 546.532 510.366C547.83 509.956 547.939 507.829 547.248 506.925C547.064 507.567 547.07 508.25 547.266 508.889C547.461 509.527 547.838 510.093 548.348 510.515C549.628 511.679 551.393 511.9 553.031 512.219C552.547 513.302 552.218 514.45 552.052 515.627C551.918 516.278 551.886 517.852 552.986 517.65C553.346 517.547 553.657 517.317 553.863 517C554.277 516.452 554.573 515.821 554.73 515.148C554.886 514.475 554.9 513.776 554.771 513.097C554.345 513.321 553.986 513.658 553.735 514.073C553.612 514.282 553.552 514.523 553.561 514.767C553.57 515.01 553.648 515.246 553.786 515.445C554.012 515.687 554.304 515.855 554.624 515.927C556.082 516.356 560.132 516.115 560.209 513.865C560.208 513.667 560.164 513.473 560.079 513.295C559.994 513.118 559.87 512.963 559.717 512.841C559.564 512.72 559.387 512.635 559.197 512.594C559.007 512.552 558.81 512.556 558.622 512.603C559.439 514.248 559.877 516.061 559.901 517.904C559.932 515.815 560.487 513.769 561.514 511.959C561.821 513.065 563.042 516.382 564.52 516.271C564.936 516.207 565.324 516.021 565.639 515.738C566.259 515.278 566.735 514.646 567.008 513.917C567.277 513.097 566.74 510.437 565.454 511.686C565.306 511.864 565.195 512.072 565.129 512.296C565.063 512.52 565.043 512.755 565.07 512.987C565.11 513.72 565.33 514.431 565.71 515.055L566.727 514.073C565.934 514.84 570.565 517.169 571.026 517.325" stroke="black" stroke-miterlimit="10" style="touch-action: pan-y; stroke-dashoffset: 0; stroke-dasharray: none;"></path><path id="p_108" d="M541.824 527.497C541.808 527.357 541.763 527.221 541.692 527.1C541.62 526.979 541.523 526.875 541.409 526.795C541.294 526.714 541.164 526.66 541.027 526.636C540.89 526.611 540.75 526.617 540.615 526.652C540.346 526.744 540.104 526.902 539.91 527.114C539.717 527.325 539.579 527.582 539.508 527.862C539.309 528.572 539.378 529.332 539.701 529.994C540.024 530.656 540.578 531.171 541.255 531.439C544.485 532.577 546.43 527.419 543.276 526.138C543.093 526.686 543.035 527.269 543.105 527.843C543.174 528.418 543.371 528.969 543.679 529.455C544.003 529.932 544.464 530.296 544.998 530.496C545.533 530.696 546.116 530.723 546.667 530.574C546.936 530.485 547.186 530.342 547.401 530.154C547.616 529.966 547.791 529.736 547.917 529.478C548.044 529.22 548.118 528.939 548.136 528.651C548.154 528.364 548.116 528.075 548.023 527.803C547.927 527.562 547.632 527.322 547.447 527.497C547.406 527.55 547.379 527.612 547.368 527.678C547.357 527.744 547.362 527.811 547.383 527.875C547.477 528.291 547.713 528.66 548.049 528.917C548.385 529.174 548.799 529.303 549.219 529.279C550.588 529.156 551.42 527.146 550.844 526.027C550.108 526.307 549.968 527.517 550.147 528.278C550.347 528.982 550.809 529.579 551.434 529.943C552.06 530.307 552.8 530.41 553.499 530.229C555.418 529.767 556.243 527.367 555.335 525.676C556.646 528.102 559.691 529.683 562.371 528.707C562.961 528.516 563.478 528.146 563.855 527.647C564.039 527.396 564.155 527.1 564.188 526.789C564.222 526.478 564.173 526.163 564.047 525.878C563.906 525.6 563.666 525.387 563.377 525.281C563.088 525.175 562.77 525.184 562.487 525.305C562.288 525.433 562.126 525.61 562.014 525.819C561.902 526.029 561.844 526.264 561.847 526.502C561.838 526.915 561.951 527.32 562.169 527.668C562.388 528.015 562.703 528.289 563.075 528.454C563.205 528.516 563.347 528.548 563.491 528.548C563.635 528.548 563.777 528.516 563.907 528.454C564.048 528.359 564.168 528.235 564.259 528.089C564.695 527.469 564.993 526.76 565.13 526.01C565.267 525.26 565.24 524.489 565.052 523.751C565.397 524.883 565.845 528.753 567.93 527.003C568.666 526.392 568.57 525.123 569.427 524.649C570.163 524.239 572.357 530.502 572.562 531.205C573.473 534.297 573.773 537.542 573.445 540.753C573.304 541.852 572.92 543.029 571.98 543.589C568.436 545.702 563.568 539.315 563.165 536.304C562.762 533.293 565.615 531.328 567.726 529.852" stroke="black" stroke-miterlimit="10" style="touch-action: pan-y; stroke-dashoffset: 0; stroke-dasharray: 121.36px, 131.36px;"></path><path id="p_109" d="M534.434 542.47C534.451 542.25 534.424 542.029 534.357 541.819C534.491 542.151 533.717 544.226 533.717 544.811C533.717 545.911 533.653 548.668 535.208 548.714C538.617 548.798 540.07 544.675 541.413 542.158C539.852 545.091 544.611 546.997 544.989 544.005C545.168 547.257 548.047 547.14 548.642 544.193C548.984 542.42 548.836 540.585 548.213 538.893C547.868 538.893 547.791 539.393 547.861 539.738C548.501 542.938 553.446 547.133 556.075 543.361" stroke="black" stroke-miterlimit="10" style="touch-action: pan-y; stroke-dashoffset: 0; stroke-dasharray: none;"></path></g></svg>
